<?xml version="1.0" encoding="utf-8"?>
<!-- Generator: Adobe Illustrator 21.0.0, SVG Export Plug-In . SVG Version: 6.00 Build 0)  -->
<svg version="1.1" id="Layer_1" xmlns="http://www.w3.org/2000/svg" xmlns:xlink="http://www.w3.org/1999/xlink" x="0px" y="0px"
	 viewBox="0 0 120.7 120.7" style="enable-background:new 0 0 120.7 120.7;" xml:space="preserve">
<style type="text/css">
	
		.st0{fill-rule:evenodd;clip-rule:evenodd;fill:none;stroke:#FFFFFF;stroke-linecap:round;stroke-linejoin:round;stroke-miterlimit:22.9256;}
</style>
<g>
	<path class="st0" d="M30,57c1.4,0.8,2.6,2.2,3.6,3.7c0.9,1.6,1.5,3.3,1.5,4.9c0,1.6-0.6,2.7-1.5,3.3c-0.9,0.5-2.2,0.5-3.6-0.3
		c-1.4-0.8-2.6-2.2-3.6-3.7c-0.9-1.6-1.5-3.3-1.5-5c0-1.6,0.6-2.7,1.5-3.3C27.4,56.1,28.6,56.2,30,57L30,57z M69.5,79.7
		c1.4,0.8,2.6,2.2,3.6,3.7c0.9,1.6,1.5,3.3,1.5,4.9c0,1.6-0.6,2.7-1.5,3.3c-0.9,0.5-2.2,0.5-3.6-0.3c-1.4-0.8-2.6-2.2-3.6-3.7
		c-0.9-1.6-1.5-3.3-1.5-5c0-1.6,0.6-2.7,1.5-3.3C66.9,78.8,68.1,78.9,69.5,79.7z"/>
	<path class="st0" d="M65.7,87L34.3,68.9c-0.1-0.1-0.2-0.1-0.3-0.2c0.7-0.6,1.1-1.6,1.1-3c0-1.6-0.6-3.4-1.5-4.9
		c-0.9-1.6-2.2-2.9-3.6-3.7c-1.4-0.8-2.6-0.9-3.6-0.3c-0.9,0.5-1.5,1.7-1.5,3.3c0,0.1,0,0.2,0,0.3c-1.6-3.2-2.2-6.9-2.2-11.3
		c0-4.6,1.2-6.5,8.8-10.9c8-4.6,19.1-3.6,22.7-2.6c7.8,2.1,15.4,5.9,20.8,10.3c2.8,2.3,6.8,5.8,10.1,9c9,7.5,15.9,9,17.1,19.9
		c0.6,5.8,0.8,6.9-1.2,8.6c-3.1,2.6-7,4.8-10.7,6.4c-4.2,1.7-6.4,2-11.8,1.8c-1.3,0-3.4-0.2-4.8-0.6c0.4-0.6,0.7-1.4,0.7-2.5
		c0-1.6-0.6-3.4-1.5-4.9c-0.9-1.6-2.2-2.9-3.6-3.7c-1.4-0.8-2.6-0.9-3.6-0.3c-0.9,0.5-1.5,1.7-1.5,3.3C64.5,84,64.9,85.6,65.7,87
		L65.7,87z"/>
	<path class="st0" d="M99.6,66.6c0.8,1.2,1.5,2.6,2,4.2c-0.5,1.8-1.5,3.1-1.9,3.2c-0.5-1-0.6-3.2-0.4-5.3
		C99.4,68,99.5,67.3,99.6,66.6z"/>
	<path class="st0" d="M24.1,43.7c-0.6,1.6,0.9,2.5,3.1,4.2c-1.2,0.7-3,1.4-4.3,0.2"/>
	<path class="st0" d="M34.8,47.6c7.8-0.8,17.4,2.9,21.8,10.5c2.3,4,3.9,8.7,4.2,10C45.6,59.6,35.5,51.9,34.8,47.6z"/>
	<path class="st0" d="M100.5,79.6l-1.1-2.4c-0.2-0.4-0.6-0.5-1-0.3c-2.4,1.7-5.2,3.3-8.4,4.9c-0.6,0.3-1,0.9-1.2,1.6l-1,3.2
		c-0.4,1.4,0.2,1.3,1.3,0.9c2.8-0.9,8.9-4.4,10.8-6.2C100.5,80.7,100.9,80.3,100.5,79.6z"/>
	<path class="st0" d="M74.8,78.2c0.7,1.5,1.6,3.2,2.8,3.6c1.1,0.4,6.5,0.5,9.2-0.2c-0.1-0.8-1.1-2.1-1.8-2.5
		C84.3,78.7,79.1,78.1,74.8,78.2z"/>
	<path class="st0" d="M85.3,54.7C82,62.6,73.7,65.4,64,67c-1.1-3.2-3.8-8.7-5.7-11.5c8.6-3.7,14.5-7,16.8-9.7"/>
	<path class="st0" d="M33,44.1c1.6,0,4.2,0.1,5.8,0.3c3.5-4.2,12.7-8.6,17.7-8.4"/>
</g>
</svg>
