<?xml version="1.0" encoding="utf-8"?>
<!-- Generator: Adobe Illustrator 21.0.0, SVG Export Plug-In . SVG Version: 6.00 Build 0)  -->
<svg version="1.1" id="Layer_1" xmlns="http://www.w3.org/2000/svg" xmlns:xlink="http://www.w3.org/1999/xlink" x="0px" y="0px"
	 viewBox="0 0 120.7 120.7" style="enable-background:new 0 0 120.7 120.7;" xml:space="preserve">
<style type="text/css">
	
		.st0{fill-rule:evenodd;clip-rule:evenodd;fill:none;stroke:#FFFFFF;stroke-linecap:round;stroke-linejoin:round;stroke-miterlimit:22.9256;}
</style>
<g>
	<path class="st0" d="M84,52.6V34.4l-10.4,6c-0.8-1.5-1.6-2.9-2.4-4.4c-3.4,2-6.8,3.9-10.2,5.9c-0.8,2.4-1.6,4.8-2.4,7.2l-10.4,6
		v26.6l17.9-10.3"/>
	<polygon class="st0" points="52.2,60.2 55.7,58.1 55.7,56 52.2,58.1 	"/>
	<path class="st0" d="M84,34.4l-11.8-6.8l-7.8,4.5 M48.2,81.6l-11.8-6.8V48.2l10.4-6l2.4-7.2l10.2-5.9L71.2,36 M49.2,35L61,41.8"/>
	<line class="st0" x1="48.2" y1="55" x2="36.4" y2="48.2"/>
	<path class="st0" d="M58.7,75.5L55,101.2c-0.3,2.1,5.1,3.1,5.6-0.2l4.2-29"/>
	<path class="st0" d="M64.6,73l12.5,16.9c1.1,1.4,6.2,0.5,4.6-1.6L71.5,74.4"/>
	<path class="st0" d="M50.7,80.1l-5.2,7.8c-0.7,1.1,4,2.7,5.4,0.6l7.5-11.2"/>
	<path class="st0" d="M78.8,53.6c-2.5,1.4-4.7,3.9-6.3,6.6c-1.6,2.8-2.6,5.9-2.6,8.8c0,2.8,1,4.8,2.6,5.8c1.6,0.9,3.8,0.8,6.3-0.6
		c2.5-1.4,4.7-3.8,6.3-6.6c1.6-2.8,2.6-5.9,2.6-8.8c0-2.8-1-4.8-2.6-5.8C83.5,52.1,81.2,52.2,78.8,53.6z"/>
	<path class="st0" d="M70,70.6c6.5-0.2,13.2-12,10.2-17.7"/>
	<line class="st0" x1="46.8" y1="42.2" x2="58.6" y2="49"/>
	<path class="st0" d="M85.1,53l-11-6.4c-2-1-4.3-0.3-6.1,0.7c-2.5,1.4-4.7,3.9-6.3,6.6C60,56.8,59,59.9,59,62.7
		c0,2.7,0.9,4.7,2.4,5.7l11,6.4c1.6,0.9,3.8,0.8,6.3-0.6c2.5-1.4,4.7-3.8,6.3-6.6c1.6-2.8,2.6-5.9,2.6-8.8
		C87.7,55.9,86.7,53.9,85.1,53z"/>
</g>
</svg>
