<?xml version="1.0" encoding="utf-8"?>
<!-- Generator: Adobe Illustrator 21.0.0, SVG Export Plug-In . SVG Version: 6.00 Build 0)  -->
<svg version="1.1" id="Layer_1" xmlns="http://www.w3.org/2000/svg" xmlns:xlink="http://www.w3.org/1999/xlink" x="0px" y="0px"
	 viewBox="0 0 120.7 120.7" style="enable-background:new 0 0 120.7 120.7;" xml:space="preserve">
<style type="text/css">
	
		.st0{fill-rule:evenodd;clip-rule:evenodd;fill:none;stroke:#FFFFFF;stroke-linecap:round;stroke-linejoin:round;stroke-miterlimit:22.9256;}
</style>
<g>
	<polyline class="st0" points="30,64.2 18.3,70.9 63.8,97.2 101.8,75.3 90.2,68.6 	"/>
	<line class="st0" x1="62.8" y1="90.5" x2="90.2" y2="74.7"/>
	<polygon class="st0" points="72,67.7 72,76.8 80.9,71.6 80.9,62.6 	"/>
	<polyline class="st0" points="62.8,90.5 90.2,74.7 90.1,51.7 	"/>
	<polygon class="st0" points="56.8,70.4 56.8,87.1 48.8,82.5 48.8,65.8 	"/>
	<polyline class="st0" points="62.8,68.1 62.8,90.5 30,71.5 30,51.4 	"/>
	<polygon class="st0" points="76.8,48.6 92,52.2 59,33.1 43.9,29.5 28.7,50.6 61.7,69.7 	"/>
	<polygon class="st0" points="43.7,62.9 43.7,72 34.8,66.8 34.8,57.8 	"/>
	<g>
		<polygon class="st0" points="45.3,39.2 45.3,49.7 40.3,46.8 40.3,36.3 		"/>
		<polygon class="st0" points="45.3,39.2 45.3,49.7 45.3,49.7 50.3,42.8 50.3,36.3 		"/>
		<polyline class="st0" points="50.3,36.3 45.3,33.4 40.3,36.3 		"/>
	</g>
	<line class="st0" x1="76.8" y1="48.6" x2="43.9" y2="29.5"/>
</g>
</svg>
