<?xml version="1.0" encoding="utf-8"?>
<!-- Generator: Adobe Illustrator 21.0.0, SVG Export Plug-In . SVG Version: 6.00 Build 0)  -->
<svg version="1.1" id="Layer_1" xmlns="http://www.w3.org/2000/svg" xmlns:xlink="http://www.w3.org/1999/xlink" x="0px" y="0px"
	 viewBox="0 0 120.7 120.7" style="enable-background:new 0 0 120.7 120.7;" xml:space="preserve">
<style type="text/css">
	
		.st0{fill-rule:evenodd;clip-rule:evenodd;fill:none;stroke:#FFFFFF;stroke-width:1.0001;stroke-linecap:round;stroke-linejoin:round;stroke-miterlimit:22.9256;}
	
		.st1{fill-rule:evenodd;clip-rule:evenodd;fill:none;stroke:#FFFFFF;stroke-linecap:round;stroke-linejoin:round;stroke-miterlimit:22.9256;}
</style>
<g>
	<path class="st0" d="M82,40.1c0-3.2-2.2-6.5-6.5-8.9c-4.3-2.5-10-3.7-15.6-3.7c-5.6,0-11.3,1.2-15.6,3.7c-4.3,2.5-6.5,5.7-6.5,8.9"
		/>
	<path class="st0" d="M42.9,76.8c3.4,5.3,11.1,7,17,7c6.6,0,15.2-2,17.9-8.8c3.1-7.5,4.1-21.9,4.1-34.9 M37.9,40.1
		c-0.1,4.2,0.1,10.2,0.4,15.4"/>
	<path class="st0" d="M81.3,57.8c1,0.5,2,1,2.9,1.5c6.7,3.9,10,8.9,10,14c0,5.1-3.3,10.1-10,14c-6.7,3.9-15.5,5.8-24.3,5.8
		c-8.8,0-17.5-1.9-24.2-5.8c-6.7-3.9-10-8.9-10-14c0-6.1,4.7-10.8,9.6-13.7"/>
	<g>
		<path class="st0" d="M49.2,55.3l-5.2-3l-8.6,4.9c0,9,0.8,14.6,2.7,17c0.6,0.8,1.5,1.2,2.3,1.7l4,2.3 M49.2,55.3l-8.6,4.9
			c0,16.4,2.6,21.4,9.8,16.8l-5.2-3c-1,0.7-2,1.1-2.9,1.4"/>
		<line class="st0" x1="35.4" y1="57.2" x2="40.6" y2="60.2"/>
	</g>
	<g>
		<path class="st1" d="M47.2,48.7c3.5,2,8.1,3,12.8,3c4.6,0,9.3-1,12.8-3.1c3.5-2,5.3-4.7,5.3-7.4c0-2.7-1.8-5.3-5.3-7.4
			c-3.5-2-8.2-3-12.8-3c-4.6,0-9.2,1-12.8,3.1c-3.5,2-5.3,4.7-5.3,7.4C41.9,44,43.7,46.7,47.2,48.7z"/>
		<path class="st1" d="M76.7,45.2c-0.9-1.2-2.2-2.3-3.9-3.3c-3.5-2-8.2-3-12.8-3c-4.6,0-9.2,1-12.8,3.1c-1.8,1-3.1,2.2-4,3.5"/>
	</g>
</g>
</svg>
