<?xml version="1.0" encoding="utf-8"?>
<!-- Generator: Adobe Illustrator 21.0.0, SVG Export Plug-In . SVG Version: 6.00 Build 0)  -->
<svg version="1.1" id="Layer_1" xmlns="http://www.w3.org/2000/svg" xmlns:xlink="http://www.w3.org/1999/xlink" x="0px" y="0px"
	 viewBox="0 0 120.7 120.7" style="enable-background:new 0 0 120.7 120.7;" xml:space="preserve">
<style type="text/css">
	
		.st0{fill-rule:evenodd;clip-rule:evenodd;fill:none;stroke:#FFFFFF;stroke-linecap:round;stroke-linejoin:round;stroke-miterlimit:10;}
	
		.st1{fill-rule:evenodd;clip-rule:evenodd;fill:none;stroke:#FFFFFF;stroke-linecap:round;stroke-linejoin:round;stroke-miterlimit:22.9256;}
</style>
<g>
	<path class="st0" d="M66.2,57.8c3.9-1.6,7.9-0.1,7.9,4.5c0,2.6-1.2,5.6-1.4,8.5c-0.3,3.9,3.7,4.3,3.7,10.1c0,7.7-5.8,14.4-12.2,18
		c-11.9,7-14.6-2.1-10.6-11.4c0.8-2,2.2-4.7,2-6.9c-0.2-2.6-1.4-4.3-1.4-6.9c0-4.7,4-10.5,7.6-13.3"/>
	<path class="st0" d="M58.6,54.6c-1.2,0.6-2.5,1.4-3.4,2.2c-3.2,2.5-5.7,6.3-7,10.1c-0.4,1.2-0.5,2.3-0.5,3.2c0,2.6,1.4,4.8,1.4,7.3
		c0,2-1.1,4.3-2,6.4c-1.1,2.6-1.7,5.2-1.7,7.5c0,2.7,0.8,4.9,2.5,5.9c2.2,1.2,4.4,2.5,6.5,3.7c-1.7-1-2.5-3.2-2.5-5.9
		c0-2.3,0.6-4.9,1.7-7.5c0.8-2,2.2-4.7,2-6.9c-0.2-2.6-1.4-4.3-1.4-6.9c0-0.9,0.2-2,0.5-3.2c1.2-3.8,3.8-7.6,7-10.1 M66.2,57.8
		c0.1,0,0.2-0.1,0.3-0.1c2-0.7,3.8-0.7,5.1,0.1l-5.5-3.1V57.8z"/>
	<path class="st0" d="M61.7,35.6l0,30.5l4.5-2.6V33.8c-0.1,0-0.1,0.1-0.2,0.1l-3.2,1.8c-0.3,0.2-0.7,0.1-0.9,0
		C61.8,35.7,61.8,35.7,61.7,35.6z"/>
	<polygon class="st0" points="68.1,82.4 60.1,87 60.1,89.2 68.1,84.5 	"/>
	<path class="st0" d="M66.9,22.3l-5.8,3.3c-0.4,0.2-0.7,0.7-0.6,1.2l1,8.2c0,0.3,0.2,0.6,0.5,0.7c0.3,0.1,0.6,0.1,0.9,0l3.2-1.8
		c0.6-0.4,1-1,1.1-1.7l0.7-9.4c0-0.2-0.1-0.4-0.3-0.6C67.3,22.2,67.1,22.2,66.9,22.3z"/>
	<path class="st1" d="M64.1,68c-1,0.6-1.8,1.5-2.4,2.6c-0.6,1.1-1,2.3-1,3.4c0,1.1,0.4,1.9,1,2.2c0.6,0.4,1.5,0.3,2.4-0.2
		c1-0.5,1.8-1.5,2.4-2.6c0.6-1.1,1-2.3,1-3.4c0-1.1-0.4-1.9-1-2.2C65.9,67.4,65,67.5,64.1,68z"/>
	<path class="st0" d="M67.5,22.3l-3.2-1.9c-0.2-0.1-0.4-0.1-0.6,0l-5.8,3.3c-0.4,0.2-0.7,0.7-0.6,1.2l1,8.2c0,0.3,0.2,0.6,0.5,0.7
		l3,1.8"/>
	<polyline class="st0" points="58.6,33.8 58.6,58.7 61.4,60.3 	"/>
</g>
</svg>
