<?xml version="1.0" encoding="utf-8"?>
<!-- Generator: Adobe Illustrator 21.0.0, SVG Export Plug-In . SVG Version: 6.00 Build 0)  -->
<svg version="1.1" id="Layer_1" xmlns="http://www.w3.org/2000/svg" xmlns:xlink="http://www.w3.org/1999/xlink" x="0px" y="0px"
	 viewBox="0 0 120.7 120.7" style="enable-background:new 0 0 120.7 120.7;" xml:space="preserve">
<style type="text/css">
	
		.st0{fill-rule:evenodd;clip-rule:evenodd;fill:none;stroke:#FFFFFF;stroke-linecap:round;stroke-linejoin:round;stroke-miterlimit:22.9256;}
</style>
<g>
	<polygon class="st0" points="46.2,83.2 54.1,87.7 68.7,79.3 60.8,74.7 	"/>
	<polygon class="st0" points="38.5,53.7 38.5,87.6 75.6,66.2 75.6,32.3 	"/>
	<polyline class="st0" points="75.6,32.3 70.8,29.6 33.7,51 33.7,84.9 38.5,87.6 	"/>
	<line class="st0" x1="33.7" y1="51" x2="38.5" y2="53.7"/>
	<line class="st0" x1="42.1" y1="80.1" x2="72" y2="62.9"/>
	<polyline class="st0" points="54,78.6 54,81.5 60,78 60,75.2 	"/>
	<line class="st0" x1="54" y1="81.5" x2="51.6" y2="80.1"/>
	<polygon class="st0" points="50.9,94.7 63,101.8 92.2,84.9 80.1,77.9 	"/>
	<path class="st0" d="M97.5,76.8c0.8,2.7-2.8,4.5-5.3,3.1l-4.7-2.7c-3-1.7-1.5-3.9,1.3-4.6C91.7,71.9,96.5,73.6,97.5,76.8z"/>
</g>
</svg>
