<?xml version="1.0" encoding="utf-8"?>
<!-- Generator: Adobe Illustrator 21.0.0, SVG Export Plug-In . SVG Version: 6.00 Build 0)  -->
<svg version="1.1" id="Layer_1" xmlns="http://www.w3.org/2000/svg" xmlns:xlink="http://www.w3.org/1999/xlink" x="0px" y="0px"
	 viewBox="0 0 99.8 92.1" style="enable-background:new 0 0 99.8 92.1;" xml:space="preserve">
<style type="text/css">
	.st0{fill:#FFFFFF;}
</style>
<path class="st0" d="M74.8,64.2c-0.9-0.8-1-1.1-0.5-1.3c2.8-1,3.8-1.2,5.2-1.5c-0.6-1.1-1-2.3-1.8-3.1c-2-1.9-4.1-3.7-6.4-5.2
	c-3.7-2.4-7.6-4.3-11.4-6.5c-1.8-1-3.6-2-5.5-2.9c-4.6-2.3-9.2-4.5-13.7-6.8c-0.9-0.4-3.8-2.3-4.6-2.8c0-0.1,0.1-0.2,0.1-0.2
	c0.3,0.1,2.6,1.4,2.8,1.4c0.6-2.9,1.2-5.6,1.7-8.5c-0.7-0.4-1.5-1-2.3-1.1c-0.7-0.1-3.3,2.5-4.1,2.8c1-1.4,3.8-3.7,5.2-3
	c0.3,0.2,0.6,0.5,1,0.6c0.8,0.3,0.9,0.8,0.7,1.7c-0.6,2.3-1.1,4.5-1.6,6.8c-0.1,0.5-0.2,1,0.5,1.3c3.1,1.5,6.2,3.1,9.3,4.7
	c2.3,1.2,4.7,2.4,7,3.6c1.9,1,3.7,1.9,5.8,3c4.2-4.9,8.3-9.7,12.4-14.5c1.2-1.4,2.3-2.9,3.6-4.4c0.3-0.3,0.9-0.6,1.2-0.5
	c0.8,0.3,1.5,0.7,2.1,1.2c0.7,0.5,1.2,1,0.6,2.2c-1,1.9-1.8,3.9-2.2,6c-0.3,1.7-1,3.2-1.5,4.7c0.4,0.3,0.8,0.5,1.1,0.7
	c0.6,0.5,1.3,0.9,1.8,1.5c0.6,0.7,0.4,2.2-0.3,2.7c-0.7,0.6-1.4,0.3-2.1-0.1c-0.6-0.4-1.2-0.7-1.9-1c-0.6,1.5-1.1,3-1.6,4.4
	c0.5,0.3,1.1,0.5,1.5,0.8c0.5,0.3,0.9,0.7,1.4,1.1c0.8,0.8,1,2,0.4,2.8c-0.4,0.6-1.5,0.8-2.6,0.3c-0.7-0.4-1.4-0.8-2.1-1.2
	c0,0.1-0.1,0.1-0.1,0.2c0.1,0.1,0.2,0.2,0.3,0.3c2.2,1.4,4,3.1,5.3,5.3c0.7,1.1,1.2,2.3,1.9,3.4c0.9,1.4,2,2.7,2.9,4.1
	c1.1,1.6,0.3,2.9-0.8,3.6c-0.7,0.4-1.6,0.7-2.4,0.7c-2.6,0.2-5-0.5-7.5-1.4c-3.2-1.1-6.2-2.6-9-4.5c-1.9-1.3-3.4-1.6-5.6-0.9
	c1.6,1.1,1.7,1.4,1.3,2.9C60,69,58.7,69.6,57.4,69c-1.7-0.9-3.3-1.9-5-2.8c-0.4-0.2-0.9-0.5-1.4-0.5c-3.1,0.2-6.2,0.5-9.3,0.9
	c-1,0.1-2.1,0.4-3.3,0.6c0.5,0.3,0.8,0.5,1,0.6c1.2,0.7,1.6,2.1,1,3.1c-0.7,1.2-1.9,1.4-3.3,0.6c-1.6-1-3.2-2-4.8-2.9
	c-0.4-0.2-0.9-0.5-1.3-0.5c-2.1,0.3-4.3,0.7-6.4,1c-1.2,0.2-2.4,0.4-3.6,0.5c-0.4,0-0.8-0.1-1.2-0.3c-1.7-1-3.4-2-5.1-3
	c-0.8-0.5-0.7-1,0.2-1.4c0.8-0.3,1.7-0.6,2.5-0.8c2.7-0.9,5.3-1.9,8-2.7c3.7-1.2,7.3-2.2,11-3.4c3.5-1.1,7-2.1,10.6-3.2
	c0.5-0.2,1-0.3,1.6-0.5c-0.3-0.3-0.4-0.5-0.6-0.6c-2.6-2.1-5.2-4.2-7.8-6.3c-2-1.6-4-3.1-6-4.6c-1.8-1.4-3.7-2.4-6-1.8
	c-0.3,0.1-0.7,0.2-1,0.2c-2.9,0.1-5.9,0-8.8,0.4c-1.8,0.2-2.9-0.4-4.1-1.3c-0.7-0.5-0.8-1.8-0.2-2c2.7-1.2,5.4-2.3,8-3.5
	c2-0.9,4-1.7,5.9-2.5c-0.5-2.5-1-4.8-1.3-7c-0.3-1.7-0.5-3.5-0.6-5.3c-0.1-0.7,0.2-0.9,1-0.6c1.9,0.8,4,1.4,4.5,3.7
	c0.1,0.3,0.7,1.7,0.9,2.4c2.3,4,2.7,7.1,4.7,11.2c0.4,0.8-0.1,1-0.7,0.9c-0.7-0.2-1.3-0.5-1.9-0.8c-2.1-1.2-4.3-2.4-6.5-3.7
	c-1.4,0.6-1.4,0.6-2.1,0.9c-1.8,0.7-3.5,1.4-5.3,2.1c-1.9,0.8-3.9,1.6-5.8,2.4c-0.9,0.4-1.1,0.8-0.6,1.2c0.8,0.6,1.6,1.3,2.4,1.4
	c1.5,0.2,3,0,4.5-0.1c3.1-0.2,6.3-0.4,9.4-0.6c0.7,0,1.3-0.2,2.1,0.5c1.8,1.7,4,3.1,6.1,4.7c3.2,2.5,6.3,5.1,9.4,7.6
	c0.6,0.5,1.2,0.9,2.1,0.7c0.4-0.1,0.9,0.1,1.3,0.3c2.8,1.7,5.5,3.5,8.3,5.3c1.7,1.1,3.4,2.1,5.1,3.2c0.2,0.1,0.5,0.5,0.5,0.6
	c-0.1,0.3-0.4,0.5-0.7,0.6c-0.3,0.2-0.7,0.3-1,0.4c2.5,1.4,4.9,2.7,7.3,4c2.9,1.6,5.9,2.6,9.2,2.5c0.7,0,1.4-0.1,2-0.4
	c1.3-0.5,1.6-2,0.8-3.2c-0.7-1-1.4-1.9-2.1-2.8c-0.2-0.2-0.6-0.3-0.9-0.2c-0.9,0.3-2.9,0.7-4,0.9c-0.4,0.1-0.8,0-1.1-0.3L74.8,64.2z
	 M76.7,64.6c1.1-0.2,3.2-0.7,3.9-1c0.3-0.1-0.5-1.1-0.6-1.5c-0.2-0.4-2.8,0.7-3.8,0.9c-0.4,0.1-0.9,0.2-1.3,0.4
	c0.2,0.2,0.6,0.6,0.9,0.9C75.9,64.6,76.3,64.7,76.7,64.6z M62,60.9c-3.2-2-6.3-4-9.5-6c-0.8-0.5-1.6-0.6-2.6-0.3
	c-3.7,1.1-7.5,2-11.2,3.1c-5.3,1.6-10.6,3.4-15.8,5.1c-2.2,0.7-4.5,1.4-6.8,2.1c-0.4,0.1-0.7,0.4-1,0.6c0.3,0.3,0.5,0.6,0.8,0.8
	c1.3,0.8,2.6,1.6,4,2.4c0.3,0.2,0.8,0.3,1.1,0.3c1.3-0.1,2.7-0.3,4-0.5c4.5-0.6,9-1.3,13.5-1.9c3.6-0.5,7.2-1,10.8-1.3
	c3.9-0.4,7.8-0.7,11.8-1.1c1.4-0.1,2.8-0.5,4.1-0.7c0-0.1,0.1-0.2,0.1-0.3C64.2,62.4,63.1,61.6,62,60.9z M74.3,51.3
	c1-2.8,2.1-5.7,3.1-8.5c0.3-0.7,0.4-1.5,0.6-2.3c0.3-0.9,0.8-1.8,1.1-2.7c0.9-2.4,1.7-4.8,2.5-7.3c0.1-0.3-0.2-0.8-0.5-1
	c-0.7-0.5-1.4-0.8-2.2-1.2c-5.4,6.3-10.8,12.7-16.3,19c3.4,2,7,4.1,10.7,6.3C73.7,52.9,74.1,52.1,74.3,51.3z M36.7,36
	c-0.8-1.9-1.5-3.8-2.4-5.7c-0.9-2-0.6-1.5-1.5-3.5c-0.3-0.5-1.4-3.2-1.5-3.8c-0.5-2.1-2.6-2.6-4.3-3.4c0,0.6-0.1,1.1,0,1.6
	c0.6,3.6,1.2,7.2,1.9,10.8c0.1,0.3,0.4,0.7,0.7,0.9c1.9,1.2,3.8,2.3,5.8,3.4c0.5,0.3,1,0.4,1.7,0.7C37,36.6,36.8,36.3,36.7,36z
	 M58.3,68.8c0.2,0.1,0.8-0.1,1.1-0.3c0.8-0.9,0.5-2.3-0.6-3c-0.8-0.5-1.6-0.7-2.5-0.5c-1.1,0.2-2.3,0.4-3.5,0.6
	c0,0.1-0.1,0.2-0.1,0.3C54.6,66.9,56.4,67.9,58.3,68.8z M37.7,71.2c0.5,0.3,1.4,0.1,2-0.1c0.5-0.2,0.5-1.6,0-2.1
	c-1.1-1-2.1-2-3.8-1.6c-0.8,0.2-1.7,0.2-2.6,0.3c0,0.1,0,0.2,0,0.2C34.7,69.1,36.1,70.2,37.7,71.2z M74.2,53.3
	c1,0.5,1.9,0.9,2.8,1.4c0.7,0.4,1.1-0.1,1.3-0.6c0.1-0.4,0.1-1.1-0.2-1.4c-0.5-0.5-1.2-0.9-1.8-1.3c-0.3-0.2-0.7-0.4-1.1-0.6
	C74.8,51.7,74.5,52.5,74.2,53.3z M77.8,43.4c-0.6,1.5-0.5,1.8,0.9,2.6c0.8,0.5,1.5,0.4,1.9-0.3c0.5-0.9,0.4-1.5-0.6-2
	c-0.6-0.3-1.2-0.6-1.9-1C78,42.9,77.9,43.2,77.8,43.4z"/>
</svg>
