<?xml version="1.0" encoding="utf-8"?>
<!-- Generator: Adobe Illustrator 21.0.0, SVG Export Plug-In . SVG Version: 6.00 Build 0)  -->
<svg version="1.1" id="Layer_1" xmlns="http://www.w3.org/2000/svg" xmlns:xlink="http://www.w3.org/1999/xlink" x="0px" y="0px"
	 viewBox="0 0 120.7 120.7" style="enable-background:new 0 0 120.7 120.7;" xml:space="preserve">
<style type="text/css">
	.st0{fill:none;stroke:#FFFFFF;stroke-linecap:round;stroke-linejoin:round;stroke-miterlimit:22.9256;}
	
		.st1{fill-rule:evenodd;clip-rule:evenodd;fill:none;stroke:#FFFFFF;stroke-linecap:round;stroke-linejoin:round;stroke-miterlimit:22.9256;}
</style>
<g>
	<path class="st0" d="M63.5,56.8c1-2.9,2-5.7,3-8.6c-2.3-4-4.6-8-6.9-11.9c-4.6,2.7-9.2,5.3-13.8,8c-2.3,6.6-4.6,13.3-6.9,19.9
		c2.3,4,4.6,7.9,6.9,11.9c4.6-2.7,9.2-5.3,13.8-8l0.7-1.9"/>
	<path class="st0" d="M45.8,28.3c-4.6,2.7-9.2,5.3-13.8,8c-2.3,6.6-4.6,13.3-6.9,19.9c2.3,4,4.6,7.9,6.9,11.9"/>
	<path class="st0" d="M45.8,28.3l13.8,7.9 M32.1,36.3l13.8,7.9 M25.2,56.1l13.8,7.9 M32.1,68.1L45.8,76"/>
	<path class="st1" d="M50.3,60.3l12.3,7.1l3.2-9.4l-10.7-6.2c-0.6-0.4-1.5-0.3-2.4,0.2c-0.9,0.5-1.8,1.5-2.4,2.6
		c-0.6,1.1-1,2.3-1,3.4C49.3,59.2,49.7,60,50.3,60.3z"/>
	<path class="st1" d="M80.3,64.1C78,70.7,75.7,77.3,73.4,84c2.3,4,4.6,7.9,6.9,11.9c4.6-2.7,9.2-5.3,13.8-8
		c2.3-6.6,4.6-13.3,6.9-19.9c-2.3-4-4.6-8-6.9-11.9C89.4,58.8,84.8,61.4,80.3,64.1z"/>
	<path class="st1" d="M80.3,48.2c-4.6,2.7-9.2,5.3-13.8,8c-2.3,6.6-4.6,13.3-6.9,19.9c2.3,4,4.6,7.9,6.9,11.9"/>
	<path class="st1" d="M80.3,48.2L94,56.1 M66.5,56.1l13.8,7.9 M59.6,76L73.4,84 M66.5,87.9l13.8,7.9"/>
	<path class="st1" d="M93.3,74l-3.8-2.2c-0.8-0.4-1.7-0.2-2.4,0.2c-0.9,0.5-1.8,1.5-2.4,2.6c-0.6,1.1-1,2.3-1,3.4
		c0,1.1,0.4,1.9,1,2.2l3.6,2.1"/>
	<path class="st1" d="M90.9,74.2c-1,0.5-1.8,1.5-2.4,2.6c-0.6,1.1-1,2.3-1,3.4c0,1.1,0.4,1.9,1,2.2c0.6,0.4,1.5,0.3,2.4-0.2
		c1-0.5,1.8-1.5,2.4-2.6c0.6-1.1,1-2.3,1-3.4c0-1.1-0.4-1.9-1-2.2C92.7,73.6,91.9,73.7,90.9,74.2z"/>
</g>
</svg>
