<?xml version="1.0" encoding="utf-8"?>
<!-- Generator: Adobe Illustrator 21.0.0, SVG Export Plug-In . SVG Version: 6.00 Build 0)  -->
<svg version="1.1" id="Layer_1" xmlns="http://www.w3.org/2000/svg" xmlns:xlink="http://www.w3.org/1999/xlink" x="0px" y="0px"
	 viewBox="0 0 120.7 120.7" style="enable-background:new 0 0 120.7 120.7;" xml:space="preserve">
<style type="text/css">
	
		.st0{fill-rule:evenodd;clip-rule:evenodd;fill:none;stroke:#FFFFFF;stroke-linecap:round;stroke-linejoin:round;stroke-miterlimit:22.9256;}
</style>
<g>
	<path class="st0" d="M87.3,65l0.8,0.4c0.3,0.2,0.8,0.2,1.3-0.1c1-0.6,1.8-2,1.8-3.1c0-0.6-0.2-1-0.5-1.2l-2.1-1.2"/>
	<path class="st0" d="M89.7,54.2l0.8,0.4c0.3,0.2,0.8,0.2,1.3-0.1c1-0.6,1.8-2,1.8-3.1c0-0.6-0.2-1-0.5-1.2L90.9,49"/>
	<path class="st0" d="M86.3,68.9l6.1-26.4c0.3-1.1-0.1-2.3-1.1-2.8l-1.9-1.1c-0.5-0.3-1.1-0.2-1.5,0.2l-17.8,21"/>
	<path class="st0" d="M37.7,45.2L23.9,51c-0.4,0.2-0.7,0.6-0.8,1.1c0,0.5,0.2,0.9,0.6,1.1l0.6,0.3c1.4,0.8,2.9,1.2,4.6,1l10.5-1
		c0.5,0,0.9,0,1.3,0.4c3.4,3.1,9.5,8.2,16.4,13.5 M72.9,78.6C82.5,84.8,91.7,89.5,97,89c4.6-0.5,3.6-4,1.5-6.6
		c-0.8-1-1.6-2.1-2.8-4.3c-3.8-6.7-11.1-10.3-17.6-13.9c-8.2-4.5-20.7-11.3-28.3-15.4c-0.4-0.2-0.6-0.7-0.5-1.2l1.5-7
		c0.2-1.1-0.2-2.1-1.2-2.6l-1.5-0.9c-0.5-0.3-1-0.2-1.4,0.1l-2.5,2.1"/>
	<path class="st0" d="M95.6,77.9c0,0.1,0.1,0.1,0.1,0.2c0.5,0.9,1,1.7,1.4,2.3c-1,1.2-3.5,1.5-4.8,1.5c-1.4,0-3.2-0.4-4.3-1.4
		c-0.6-0.5-0.1-1.5,0.7-1.3C90.5,79.7,94.4,79.7,95.6,77.9z"/>
	<path class="st0" d="M38.2,83l6.1,3.5c0.3,0.2,0.8,0.2,1.3-0.1c1-0.6,1.8-2,1.8-3.1c0-0.6-0.2-1-0.5-1.2l-0.3-0.1"/>
	<path class="st0" d="M54.3,81l5.6,3.2c0.3,0.2,0.8,0.2,1.3-0.1c1-0.6,1.8-2,1.8-3.1c0-0.5-0.2-0.9-0.4-1.1"/>
	<path class="st0" d="M76.3,78.2l-47.3,6c-1.7,0.2-3.3-0.1-4.8-1l-3.3-1.9c-0.4-0.2-0.7-0.7-0.6-1.2c0.1-0.5,0.4-0.9,0.8-1
		l37.5-12.1c0.4-0.1,0.8-0.1,1.2,0.1l16.7,9.7c0.3,0.2,0.4,0.5,0.4,0.8C76.9,77.9,76.6,78.1,76.3,78.2z"/>
	<path class="st0" d="M48.9,50.6l-7.1-16.5c-0.3-0.8-0.8-1.3-1.6-1.8l-1.2-0.7c-0.3-0.2-0.6-0.2-0.9,0c-0.3,0.2-0.4,0.4-0.4,0.7
		l-0.1,12.8l10.6,5.9c0.2,0.1,0.4,0.1,0.5-0.1C49,50.9,49,50.7,48.9,50.6z"/>
</g>
</svg>
