<svg width="47" height="38" viewBox="0 0 47 38" fill="none" xmlns="http://www.w3.org/2000/svg">
<path d="M23.7678 16.3616C24.3607 14.7985 24.9536 13.2893 25.5465 11.7262C24.1828 9.57015 22.8192 7.41413 21.4555 5.31201C18.7282 6.76732 16.0009 8.16874 13.2736 9.62405C11.9099 13.1815 10.5463 16.7928 9.18262 20.3502C10.5463 22.5063 11.9099 24.6084 13.2736 26.7644C16.0009 25.3091 18.7282 23.9077 21.4555 22.4524L21.8705 21.4283" stroke="#DD0017" stroke-miterlimit="22.9256" stroke-linecap="round" stroke-linejoin="round"/>
<path d="M13.2729 1C10.5456 2.45532 7.81827 3.85674 5.09096 5.31206C3.72731 8.86952 2.36365 12.4809 1 16.0383C2.36365 18.1944 3.72731 20.2965 5.09096 22.4525" stroke="#DD0017" stroke-miterlimit="22.9256" stroke-linecap="round" stroke-linejoin="round"/>
<path d="M5.15053 22.4524L13.2732 26.7106M13.2732 1L21.4551 5.25815L13.2732 1ZM5.15053 5.31205L13.3325 9.57019L5.15053 5.31205ZM1.05957 15.9844L9.2415 20.2425L1.05957 15.9844Z" stroke="#DD0017" stroke-miterlimit="22.9256" stroke-linecap="round" stroke-linejoin="round"/>
<path fill-rule="evenodd" clip-rule="evenodd" d="M15.9405 18.2483L23.2331 22.0752L25.1304 17.0086L18.7864 13.6667C18.4307 13.4511 17.8971 13.505 17.3635 13.7745C16.8299 14.044 16.2963 14.583 15.9405 15.1759C15.5848 15.7688 15.3477 16.4156 15.3477 17.0086C15.3477 17.6554 15.5848 18.0866 15.9405 18.2483Z" stroke="#DD0017" stroke-miterlimit="22.9256" stroke-linecap="round" stroke-linejoin="round"/>
<path fill-rule="evenodd" clip-rule="evenodd" d="M33.7267 20.2964C32.3631 23.8539 30.9994 27.4113 29.6357 31.0227C30.9994 33.1787 32.3631 35.2809 33.7267 37.4369C36.454 35.9816 39.1813 34.5801 41.9086 33.1248C43.2723 29.5674 44.6359 25.956 45.9996 22.3986C44.6359 20.2425 43.2723 18.0865 41.9086 15.9844C39.122 17.4397 36.3947 18.8411 33.7267 20.2964Z" stroke="#DD0017" stroke-miterlimit="22.9256" stroke-linecap="round" stroke-linejoin="round"/>
<path d="M33.728 11.7261C31.0007 13.1814 28.2733 14.5828 25.546 16.0381C24.1824 19.5956 22.8187 23.2069 21.4551 26.7644C22.8187 28.9204 24.1824 31.0226 25.546 33.1786" stroke="#DD0017" stroke-miterlimit="22.9256" stroke-linecap="round" stroke-linejoin="round"/>
<path d="M25.546 33.1246L33.728 37.3827M33.728 11.7261L41.8506 15.9842L33.728 11.7261ZM25.546 15.9842L33.728 20.2423L25.546 15.9842ZM21.4551 26.7104L29.637 31.0224L21.4551 26.7104Z" stroke="#DD0017" stroke-miterlimit="22.9256" stroke-linecap="round" stroke-linejoin="round"/>
<path d="M41.4349 25.632L39.1819 24.4461C38.7076 24.2305 38.174 24.3383 37.759 24.5539C37.2254 24.8234 36.6918 25.3625 36.3361 25.9554C35.9803 26.5483 35.7432 27.1951 35.7432 27.7881C35.7432 28.381 35.9803 28.8122 36.3361 28.9739L38.4705 30.1058" stroke="#DD0017" stroke-miterlimit="22.9256" stroke-linecap="round" stroke-linejoin="round"/>
<path fill-rule="evenodd" clip-rule="evenodd" d="M40.0119 25.7399C39.419 26.0094 38.9447 26.5484 38.589 27.1413C38.2333 27.7342 37.9961 28.381 37.9961 28.9739C37.9961 29.5668 38.2333 29.998 38.589 30.1597C38.9447 30.3753 39.4783 30.3214 40.0119 30.0519C40.6048 29.7824 41.0791 29.2434 41.4349 28.6505C41.7906 28.0576 42.0278 27.4108 42.0278 26.8179C42.0278 26.225 41.7906 25.7938 41.4349 25.6321C41.0791 25.4165 40.6048 25.4704 40.0119 25.7399Z" stroke="#DD0017" stroke-miterlimit="22.9256" stroke-linecap="round" stroke-linejoin="round"/>
</svg>
