<svg width="129" height="137" viewBox="0 0 129 137" fill="none" xmlns="http://www.w3.org/2000/svg">
<path d="M25.644 15.2547C25.4816 15.2547 25.3192 15.2547 25.1568 15.0924C24.832 14.7678 24.832 14.4433 24.9944 14.1187C35.2254 1.62315 48.0549 2.43455 48.7045 2.43455C49.0293 2.43455 49.3541 2.75911 49.3541 3.24595C49.3541 3.57051 49.0293 3.89507 48.5421 3.89507C48.3797 3.89507 35.875 3.08367 26.1312 14.9301C25.9688 15.0924 25.8064 15.2547 25.644 15.2547Z" fill="black"/>
<path d="M29.0542 14.6052L24.9943 11.1973C24.5071 10.7105 23.5327 11.035 23.3703 11.6841L21.9087 17.3639C21.7463 18.1753 22.5583 18.8245 23.2079 18.4999L28.567 16.228C29.379 15.9034 29.5414 15.092 29.0542 14.6052Z" fill="black"/>
<path d="M37.1738 103.048C27.5923 103.048 20.934 99.6404 20.6092 99.4781C20.2844 99.3158 20.122 98.829 20.2844 98.5044C20.4468 98.1799 20.934 98.0176 21.2588 98.1799C21.4212 98.1799 33.2762 104.184 47.8921 100.127C48.2169 99.965 48.7041 100.29 48.8665 100.614C49.0289 100.939 48.7041 101.425 48.3793 101.588C44.3193 102.561 40.5842 103.048 37.1738 103.048Z" fill="black"/>
<path d="M45.2938 98.8282L46.593 103.859C46.7554 104.508 47.5674 104.833 48.217 104.346L52.6017 100.451C53.2513 99.9642 52.9265 98.9905 52.1145 98.8282L46.4306 97.6923C45.781 97.3677 45.1314 98.0168 45.2938 98.8282Z" fill="black"/>
<path d="M95.7997 126.417C93.2013 126.417 90.7654 125.93 88.8166 124.794C88.6542 124.632 88.4918 124.469 88.6542 124.307C88.8166 124.145 88.979 123.983 89.1414 124.145C91.5773 125.281 94.3381 125.93 97.4237 125.605C100.996 125.281 104.569 123.983 108.304 121.711C112.689 118.952 116.424 115.382 119.672 110.838C123.245 105.807 125.194 101.263 126.006 95.9082C126.655 92.1757 126.493 88.7679 125.519 85.6846C125.356 85.0354 125.031 84.224 124.544 83.2504C124.382 83.0881 124.544 82.9258 124.707 82.7635C124.869 82.6012 125.031 82.7635 125.194 82.9258C125.681 83.7372 126.006 84.7109 126.168 85.36C127.143 88.6056 127.305 92.1757 126.655 95.9082C125.681 101.263 123.732 105.97 120.159 111C116.911 115.706 113.176 119.276 108.629 122.198C104.732 124.632 101.159 125.93 97.4237 126.255C96.9365 126.417 96.2869 126.417 95.7997 126.417Z" fill="#010101"/>
<path d="M97.4238 127.228C97.2614 127.228 97.2614 127.228 97.099 127.228C94.9878 127.228 92.3895 126.904 88.8167 124.794C88.6543 124.632 88.6543 124.47 88.6543 124.307C88.8167 124.145 88.9791 124.145 89.1415 124.145C92.5519 126.092 94.9878 126.417 97.099 126.417C97.4238 126.417 97.5862 126.417 97.911 126.417C102.296 126.255 106.518 124.47 106.518 124.47C110.416 122.684 113.988 120.088 117.236 116.68C122.758 110.838 126.331 104.185 127.63 97.0443C128.442 92.9873 128.279 89.4171 127.305 86.1715C126.493 83.7373 125.194 81.7899 123.57 80.1671C123.407 80.0049 123.407 79.6803 123.57 79.6803C123.732 79.518 123.895 79.518 124.057 79.6803C125.681 81.3031 126.98 83.4127 127.955 86.0092C129.091 89.4171 129.091 93.1495 128.442 97.2065C126.98 104.509 123.407 111.325 117.886 117.167C114.638 120.737 111.065 123.334 107.005 125.119C107.005 125.119 102.783 126.904 98.0734 127.228C97.7486 127.228 97.5862 127.228 97.4238 127.228Z" fill="#010101"/>
<path d="M89.6289 122.684C85.2442 122.684 81.8338 121.061 79.2354 117.816C77.7739 116.031 76.7995 113.759 76.4747 111.162C75.8251 107.917 76.1499 104.346 77.1243 100.452V100.289C77.9363 97.3684 79.2354 94.4474 80.0474 92.6623C80.8594 91.0395 82.4834 88.443 84.1074 86.3334C87.1929 82.4386 90.6033 79.5176 94.3385 77.0834C97.9112 74.9738 101.322 73.8378 104.894 73.5133C109.441 73.1887 113.177 74.6492 115.937 77.5703C117.237 79.0308 118.211 80.8158 118.861 82.9255C119.835 86.0088 119.997 89.2544 119.348 92.9868C118.536 98.1798 116.262 103.21 113.014 107.917C109.929 112.46 106.356 115.868 101.971 118.627C98.236 120.899 94.8257 122.197 91.2529 122.522C90.7657 122.684 90.1161 122.684 89.6289 122.684ZM106.356 74.3247C105.869 74.3247 105.544 74.3247 105.057 74.3247C101.646 74.4869 98.3984 75.6229 94.8257 77.7325C91.0905 80.0044 87.6801 82.9255 84.757 86.6579C83.133 88.6053 81.509 91.364 80.697 92.9868C79.885 94.6096 78.5859 97.693 77.7739 100.452V100.614C76.7995 104.346 76.6371 107.754 77.1243 111C77.6115 113.596 78.4235 115.706 79.885 117.329C82.6458 120.737 86.381 122.197 91.2529 121.873C94.6633 121.548 98.0736 120.412 101.646 118.14C105.869 115.544 109.441 112.136 112.527 107.754C115.775 103.048 117.886 98.1798 118.698 93.1491C119.348 89.579 119.185 86.3334 118.211 83.4123C117.561 81.465 116.749 79.8422 115.45 78.3817C113.177 75.6229 110.091 74.3247 106.356 74.3247Z" fill="#010101"/>
<path d="M85.2437 129.662C85.0813 129.662 85.0813 129.662 84.9189 129.5C83.6197 127.39 82.8078 126.092 81.8334 124.145C81.0214 122.684 80.6966 121.386 80.5342 121.061V120.899C80.5342 120.737 80.5342 120.574 80.6966 120.412C80.859 120.412 81.0214 120.412 81.1838 120.574V120.737C81.3462 121.061 81.671 122.359 82.483 123.658C83.4573 125.605 84.2693 126.903 85.5685 128.851C85.7309 129.013 85.5685 129.175 85.4061 129.338C85.4061 129.662 85.4061 129.662 85.2437 129.662Z" fill="#E3202C"/>
<path d="M95.6378 102.886C94.5011 102.886 93.6891 102.399 93.0395 101.588C92.7147 101.101 92.3899 100.614 92.3899 99.9647C92.2275 99.3156 92.2275 98.5042 92.5523 97.6928C92.7147 97.206 92.8771 96.5568 93.2019 96.2323C93.3643 95.9077 93.6891 95.4209 94.0139 95.0963C94.6634 94.4472 95.1506 93.7981 95.9626 93.3112C96.7746 92.8244 97.4242 92.6621 98.2362 92.4998C99.373 92.3376 100.347 92.8244 100.997 93.6358C101.322 93.9604 101.647 94.4472 101.809 94.934C101.971 95.5832 101.971 96.3946 101.971 97.0437C101.809 98.0174 101.322 98.991 100.835 99.9647C100.185 100.776 99.5354 101.425 98.7234 101.912C97.9114 102.399 97.2618 102.723 96.4498 102.723C95.9626 102.886 95.8002 102.886 95.6378 102.886ZM98.2362 93.3112H98.0738C97.4242 93.3112 96.7746 93.6358 96.125 93.9604C95.4754 94.2849 94.8258 94.934 94.3386 95.5832C94.0139 95.9077 93.8515 96.3946 93.6891 96.7191C93.5267 97.0437 93.3643 97.5305 93.2019 98.0174C93.0395 98.6665 93.0395 99.3156 93.0395 99.9647C93.2019 100.452 93.3643 100.938 93.5267 101.263C94.0139 101.912 94.8258 102.237 95.9626 102.237C96.6122 102.237 97.2618 101.912 97.9114 101.588C98.561 101.101 99.2106 100.452 99.8602 99.8024C100.51 98.991 100.835 98.1796 100.997 97.206C101.159 96.5568 101.159 95.9077 100.835 95.4209C100.672 95.0963 100.51 94.6095 100.185 94.4472C99.6978 93.6358 99.0482 93.3112 98.2362 93.3112ZM95.6378 100.776C95.1506 100.776 94.8258 100.614 94.5011 100.289C94.3387 100.127 94.3387 99.8024 94.1763 99.6402C94.1763 99.1533 94.1763 98.8288 94.3386 98.3419C94.501 98.0174 94.6634 97.5305 94.6634 97.3682C94.8258 97.206 94.9882 96.7191 95.1506 96.5568C95.6378 96.07 95.9626 95.5832 96.6122 95.2586C97.0994 94.934 97.4242 94.7718 97.9114 94.7718C98.3986 94.7718 98.7234 94.934 99.0482 95.0963C99.2106 95.2586 99.2106 95.4209 99.373 95.5832C99.5354 95.9077 99.5354 96.3946 99.373 96.8814C99.2106 97.5305 99.0482 98.1796 98.561 98.8288C98.0738 99.4779 97.5866 99.9647 97.0994 100.289C96.6122 100.614 96.125 100.776 95.8002 100.776C95.8002 100.776 95.8002 100.776 95.6378 100.776ZM98.2362 95.4209C98.2362 95.4209 98.0738 95.4209 98.2362 95.4209C97.9114 95.4209 97.5866 95.5832 97.2618 95.7454C96.7746 96.07 96.4498 96.3946 96.125 96.8814C95.9626 97.0437 95.8002 97.3682 95.6378 97.6928C95.4754 97.8551 95.313 98.3419 95.313 98.5042C95.1506 98.8288 95.1506 99.3156 95.313 99.4779C95.313 99.6402 95.313 99.8024 95.4754 99.8024C95.4754 99.9647 95.6378 99.9647 96.125 99.9647C96.4498 99.9647 96.7746 99.8024 97.0994 99.6402C97.5866 99.3156 98.0738 98.991 98.3986 98.3419C98.7234 97.8551 99.0482 97.206 99.2106 96.5568C99.2106 96.2323 99.2106 95.9077 99.2106 95.5832C99.2106 95.4209 99.2106 95.4209 99.0482 95.2586C98.561 95.4209 98.561 95.4209 98.2362 95.4209Z" fill="#010101"/>
<path d="M98.0738 123.983C97.9114 123.983 97.749 123.821 97.749 123.658C97.749 123.496 97.9114 123.334 98.0738 123.334C98.0738 123.334 102.621 123.009 109.117 118.952C115.45 114.733 119.673 109.54 122.921 101.426C125.194 95.9084 125.844 89.5795 124.707 84.2243C122.921 77.0839 118.536 72.5401 116.425 70.4305L113.664 67.5094C113.502 67.3471 113.502 67.1849 113.664 67.0226C113.826 66.8603 113.989 66.8603 114.151 67.0226L117.074 69.9436C119.186 72.0533 123.733 76.5971 125.519 84.062C126.656 89.5795 125.844 96.0707 123.57 101.75C120.16 109.864 115.938 115.22 109.442 119.601C102.783 123.658 98.2362 123.983 98.0738 123.983Z" fill="#E3202C"/>
<path d="M114.476 74.4863H114.313C114.313 74.4863 114.151 74.4863 111.065 70.9162C110.903 70.7539 110.903 70.5916 111.065 70.4293C111.228 70.267 111.39 70.267 111.552 70.4293C112.689 71.7276 114.476 73.8372 114.638 73.8372C114.8 73.9995 114.8 74.1618 114.8 74.3241C114.8 74.4863 114.638 74.4863 114.476 74.4863Z" fill="#ED2224"/>
<path d="M90.4407 136.152C89.3039 136.152 88.3295 135.665 87.8423 134.854C87.1927 133.88 86.5432 132.906 85.8936 131.932L85.0816 130.797C84.7568 130.472 84.7568 129.823 84.9192 129.498C85.244 128.687 86.2184 127.875 86.7056 127.713C87.0303 127.551 87.8423 127.226 88.4919 127.064C87.8423 126.09 86.5432 124.305 86.5432 124.305C86.3808 124.143 86.3808 123.981 86.5432 123.818C86.7055 123.656 86.8679 123.656 87.0303 123.818C87.0303 123.981 88.6543 126.09 89.3039 127.064C90.1159 127.226 90.4407 127.713 90.7655 128.038C91.0903 128.525 91.5775 129.174 91.9023 129.661C92.3895 130.31 92.8767 130.959 93.3639 131.77C93.8511 132.582 94.0135 133.555 93.6887 134.367C93.2015 135.34 92.3895 135.989 91.2527 136.314C90.7655 136.152 90.6031 136.152 90.4407 136.152ZM89.1415 127.713C88.4919 127.713 87.6799 128.038 87.0303 128.362C86.5431 128.687 85.8936 129.174 85.5688 129.823C85.5688 129.985 85.5688 130.31 85.7312 130.472L86.5432 131.608C87.1927 132.582 87.8423 133.555 88.4919 134.529C88.9791 135.34 89.9535 135.665 91.0903 135.503C92.0647 135.34 92.7143 134.854 93.0391 134.042C93.3639 133.393 93.2015 132.744 92.8767 132.095C92.3895 131.446 91.9023 130.797 91.4151 129.985C91.0903 129.498 90.6031 128.849 90.2783 128.362C89.9535 128.038 89.7911 127.713 89.4663 127.713C89.1415 127.713 89.1415 127.713 89.1415 127.713Z" fill="#E3202C"/>
<path d="M112.365 71.5651L111.553 71.4028C111.066 71.4028 110.578 71.0783 110.254 70.7537L109.117 69.6178C108.467 68.9686 107.98 68.3195 107.33 67.6704C106.194 66.3722 106.356 64.4248 107.493 63.2888C108.792 62.1529 110.741 62.1529 111.878 63.6134C112.527 64.2625 113.177 64.9116 113.826 65.723L114.801 66.859C115.126 67.1836 115.288 67.6704 115.288 68.1572C115.288 68.3195 115.126 68.4818 115.126 68.6441L114.801 69.2932L114.476 68.8064C114.314 68.6441 113.826 67.995 113.339 67.995C113.014 67.8327 112.202 67.995 112.04 68.1572C111.715 68.3195 111.39 68.6441 111.066 68.9686C110.741 69.4555 110.903 70.4292 111.066 70.5914C111.228 70.916 111.39 71.2406 111.553 71.4028L112.365 71.5651ZM109.766 63.1266C109.279 63.1266 108.63 63.2888 108.142 63.7757C107.168 64.7494 107.168 66.0476 107.98 67.1836C108.63 67.8327 109.117 68.4818 109.766 69.1309L110.578 70.1046C110.416 69.6178 110.416 68.6441 110.741 67.995C111.066 67.5081 111.553 67.0213 112.04 66.859C112.527 66.6967 113.339 66.5344 113.826 66.6967C113.989 66.6967 113.989 66.6967 114.151 66.859L113.339 66.0476C112.69 65.3985 112.04 64.5871 111.39 63.938C111.066 63.4511 110.416 63.1266 109.766 63.1266Z" fill="#E3202C"/>
<path d="M91.7398 124.956C91.5774 124.956 91.5774 124.956 91.415 124.956C89.1414 124.956 86.5431 124.632 82.8079 122.36C82.6455 122.197 82.6455 122.035 82.6455 121.873C82.8079 121.711 82.9703 121.711 83.1327 121.711C86.7055 123.82 89.3038 124.145 91.415 124.145C91.7398 124.145 91.9022 124.145 92.227 124.145C96.7741 123.983 100.996 122.197 100.996 122.197C105.056 120.25 108.629 117.654 111.877 114.246C117.561 108.241 120.971 101.588 122.433 94.2853C123.245 90.2283 123.083 86.6582 122.108 83.2503C120.647 79.1933 118.211 76.2723 114.8 74.4872C114.638 74.4872 114.638 74.3249 114.638 74.3249C114.476 74.1626 114.476 74.0003 114.476 73.8381C114.476 73.6758 114.8 73.6758 114.963 73.6758C114.963 73.6758 115.125 73.6758 115.125 73.8381C118.698 75.7854 121.296 78.8687 122.92 82.9257C124.057 86.4959 124.219 90.2283 123.407 94.2853C121.946 101.75 118.373 108.566 112.689 114.57C109.279 118.14 105.706 120.737 101.646 122.684C101.646 122.684 97.2613 124.632 92.5518 124.794C92.0646 124.956 91.9022 124.956 91.7398 124.956Z" fill="#010101"/>
<path d="M90.1159 124.144C85.4063 124.144 81.184 122.196 78.4232 118.789C76.9616 116.841 75.9873 114.569 75.5001 111.648C74.8505 108.24 75.1753 104.346 76.1497 100.126C76.1497 100.126 76.1497 100.126 76.1497 99.9641C76.9616 97.043 78.2608 93.7974 79.2352 92.0124C80.0472 90.3896 81.8336 87.4685 83.62 85.1966C86.8679 81.1396 90.4407 77.894 94.5006 75.4598C98.3982 73.1879 101.971 71.8896 105.544 71.7274C110.416 71.4028 114.151 72.8633 117.074 76.1089C118.536 77.7317 120.16 80.3282 120.647 82.4378C121.621 85.6834 121.784 89.2536 121.134 93.1483C120.16 98.6658 118.211 103.372 114.476 108.565C111.228 113.271 107.33 117.003 102.783 119.925C98.8854 122.359 95.1502 123.657 91.4151 123.982C91.2527 124.144 90.6031 124.144 90.1159 124.144ZM76.7992 100.613C75.8249 104.67 75.5001 108.403 76.1497 111.648C76.6369 114.407 77.6112 116.679 79.0728 118.464C81.996 122.034 86.3807 123.819 91.7399 123.332C95.3126 123.008 99.0478 121.71 102.783 119.275C107.33 116.517 111.065 112.784 114.313 108.24C117.886 103.21 119.835 98.5036 120.809 93.1483C121.459 89.2536 121.296 85.8457 120.322 82.7624C119.835 80.815 118.373 78.3808 116.912 76.758C114.151 73.6747 110.578 72.3765 105.868 72.701C102.296 73.0256 98.723 74.1616 94.9878 76.4335C90.9279 78.8677 87.5175 81.951 84.2696 86.008C82.6456 88.1176 80.8592 90.8764 79.8848 92.6615C79.0728 94.2843 77.6112 97.5299 76.7992 100.613Z" fill="#010101"/>
<path d="M44.1571 73.0259C41.5588 73.0259 39.1228 72.5391 37.174 71.4031C37.0116 71.2408 36.8492 71.0785 37.0116 70.9163C37.174 70.754 37.3364 70.5917 37.4988 70.754C39.9348 71.8899 42.6955 72.5391 45.7811 72.2145C49.3539 71.8899 52.9266 70.5917 56.6618 68.3198C61.0465 65.561 64.7817 61.9909 68.0296 57.447L68.3544 56.9602C68.5168 56.7979 68.6792 56.7979 68.8416 56.7979C69.004 56.9602 69.004 57.1225 69.004 57.2847L68.6792 57.6093C65.4313 62.3154 61.5337 65.8856 57.149 68.8066C53.2514 71.2408 49.6786 72.5391 45.9435 72.8636C45.2939 73.0259 44.6443 73.0259 44.1571 73.0259ZM70.7904 53.8769H70.628C70.4656 53.7146 70.4656 53.5523 70.4656 53.39C72.252 50.1444 73.876 45.6006 74.2007 42.5173C75.6623 28.5612 65.1065 22.5568 64.9441 22.5568C64.7817 22.3946 64.7817 22.2323 64.7817 22.07C64.9441 21.9077 65.1065 21.9077 65.2689 21.9077C65.4313 21.9077 76.3119 28.0744 74.8503 42.5173C74.5255 45.6006 72.9016 50.3067 71.1152 53.7146C70.9528 53.8769 70.9528 53.8769 70.7904 53.8769Z" fill="#010101"/>
<path d="M72.4144 54.689H72.252C72.0896 54.5267 71.9272 54.3645 72.0896 54.2022C72.9016 52.5794 73.7136 50.9566 74.2007 49.3338C75.8247 45.1145 76.1495 41.0575 75.4999 37.1628C73.7136 27.2637 65.9184 23.0444 65.1065 22.7199H64.9441C64.7817 22.5576 64.7817 22.3953 64.9441 22.233C65.1065 22.0708 65.2689 22.0708 65.4313 22.233C66.4056 22.7199 74.5255 27.1014 76.3119 37.3251C76.9615 41.2198 76.6367 45.4391 75.0127 49.8206C74.3631 51.4434 73.7136 53.2285 72.7392 54.689C72.7392 54.5267 72.5768 54.689 72.4144 54.689Z" fill="#010101"/>
<path d="M45.7812 73.8374C45.6188 73.8374 45.6188 73.8374 45.4564 73.8374C43.3452 73.8374 40.7469 73.5128 37.1741 71.4032C37.0117 71.2409 37.0117 71.0786 37.0117 70.9163C37.1741 70.7541 37.3365 70.7541 37.4989 70.7541C40.9093 72.7014 43.3452 73.026 45.4564 73.026C45.7812 73.026 45.9436 73.026 46.2684 73.026C50.6532 72.8637 54.8755 71.0786 54.8755 71.0786C58.773 69.2935 62.3458 66.6971 65.5938 63.2892C67.2177 61.5041 68.8417 59.5567 70.1409 57.7717C70.3033 57.6094 70.4657 57.6094 70.6281 57.6094C70.7905 57.7717 70.7905 57.9339 70.7905 58.0962C69.4913 60.0436 67.8673 61.9909 66.2434 63.776C62.9954 67.3462 59.4226 69.9427 55.3627 71.7277C55.3627 71.7277 51.1403 73.5128 46.4308 73.8374C46.106 73.8374 45.9436 73.8374 45.7812 73.8374Z" fill="#010101"/>
<path d="M37.3362 86.3343C18.9852 86.3343 11.3525 77.7335 7.13018 70.7555C2.42064 63.1283 3.07023 54.0406 8.75416 45.9266C13.4637 39.2731 20.122 36.5144 28.5667 37.6503C28.7291 37.6503 28.8915 37.8126 28.8915 38.1372C28.8915 38.2995 28.7291 38.4617 28.4043 38.4617C20.2844 37.4881 13.7885 40.0845 9.24135 46.4135C3.71982 54.3652 3.07023 63.1283 7.61738 70.4309C12.3269 78.2203 21.4212 88.1194 46.1057 85.0361C46.2681 85.0361 46.4305 85.1984 46.5929 85.3607C46.5929 85.5229 46.4305 85.6852 46.2681 85.8475C43.0201 86.1721 40.097 86.3343 37.3362 86.3343Z" fill="#E3202C"/>
<path d="M80.209 60.0443C76.4739 60.0443 72.7387 59.3952 69.6531 57.7724L64.9436 55.5005C64.9436 55.5005 64.7812 55.1759 64.9436 55.0137C65.106 54.8514 65.2684 54.6891 65.4308 54.8514L70.1403 57.1233C78.9098 61.5049 92.3889 59.0707 100.346 51.9303C104.569 48.0356 110.902 39.2725 105.056 24.0182C98.56 7.62792 78.9098 2.75952 63.482 1.78584C63.3196 1.78584 63.1572 1.62356 63.1572 1.46128C63.1572 1.299 63.3196 1.13672 63.482 1.13672C79.0722 2.27268 99.0472 7.14108 105.543 24.0182C111.552 39.5971 105.056 48.6847 100.509 52.7417C95.312 57.4479 87.5169 60.0443 80.209 60.0443Z" fill="#E3202C"/>
<path d="M80.2095 56.1488C76.7991 56.1488 73.7136 55.4997 71.44 54.3637L67.0552 52.2541C66.8928 52.0918 66.7304 51.9295 66.8928 51.7672C67.0552 51.605 67.2176 51.4427 67.38 51.605L71.7648 53.7146C78.2607 56.9602 90.1158 55.8242 97.5861 49.1708C101.971 45.276 106.031 37.9734 101.321 25.6402C94.8253 8.60077 70.1408 5.84201 62.6705 5.35517C62.5081 5.35517 62.3457 5.19289 62.3457 5.03061C62.3457 4.86833 62.5081 4.70605 62.6705 4.70605C75.3375 5.51745 85.4062 8.60077 92.5517 13.7937C98.5605 18.1753 100.996 22.8814 101.971 25.3156C106.843 37.9734 102.458 45.6006 98.0733 49.6576C93.2013 54.2014 86.2182 56.1488 80.2095 56.1488Z" fill="#E3202C"/>
<path d="M37.9859 90.2287C21.7461 90.2287 11.0278 84.7112 3.71991 72.8647C-1.80162 63.777 -1.15203 53.2288 5.50629 43.6543C8.91664 38.9482 16.5493 31.3211 30.8404 33.9175C31.0028 33.9175 31.1652 34.0798 31.1652 34.4044C31.1652 34.5667 31.0028 34.7289 30.678 34.7289C16.8741 32.2947 9.40384 39.5973 6.15588 44.1412C-0.340041 53.3911 -0.989633 63.777 4.3695 72.5402C12.327 85.5226 24.5069 90.7155 43.9946 89.4173C44.969 89.4173 45.781 89.255 46.593 89.0927L47.0802 88.9304C47.2426 88.9304 47.405 89.0927 47.5674 89.255C47.5674 89.4173 47.405 89.5796 47.2426 89.7418L46.7554 89.9041C45.9434 90.0664 45.1314 90.2287 44.157 90.2287C41.8834 90.2287 39.9347 90.2287 37.9859 90.2287Z" fill="#E3202C"/>
<path d="M40.0972 71.5654C39.9348 71.5654 39.7724 71.5654 39.7724 71.5654C37.4988 71.5654 34.9005 71.2409 31.1653 68.969C31.0029 68.8067 31.0029 68.6444 31.0029 68.4821C31.1653 68.3198 31.3277 68.3199 31.4901 68.3199C35.0629 70.4295 37.6612 70.7541 39.7724 70.7541C40.0972 70.7541 40.2596 70.7541 40.5844 70.7541C45.1316 70.5918 49.3539 68.8067 49.3539 68.8067C53.4138 66.8593 56.9866 64.2628 60.2346 60.855C65.9185 54.8506 69.3288 48.1971 70.7904 40.8945C71.6024 36.8375 71.44 33.2674 70.4656 29.8595C69.0041 25.9648 66.5681 23.0437 63.1577 21.2587C62.9953 21.2587 62.9953 21.0964 62.8329 21.0964C62.6705 20.9341 62.6705 20.7718 62.6705 20.6095C62.8329 20.4473 62.9953 20.4473 63.1577 20.4473C63.1577 20.4473 63.3201 20.4473 63.4825 20.6095C67.0553 22.3946 69.6536 25.4779 71.1152 29.5349C72.252 33.1051 72.4144 36.8375 71.6024 40.8945C70.1408 48.3594 66.5681 55.1752 60.8842 61.1795C57.4738 64.7497 53.901 67.3462 49.8411 69.2935C49.8411 69.2935 45.4564 71.2409 40.7468 71.4032C40.422 71.5654 40.2596 71.5654 40.0972 71.5654Z" fill="#010101"/>
<path d="M38.4733 70.7537C33.7638 70.7537 29.5414 68.8063 26.7807 65.3984C25.3191 63.4511 24.3447 61.1791 23.8575 58.2581C23.2079 54.8502 23.5327 50.9555 24.5071 46.7362C24.5071 46.7362 24.5071 46.7362 24.5071 46.5739C25.3191 43.6529 26.6183 40.4073 27.5926 38.6222C28.4046 36.8371 30.191 34.0784 31.9774 31.8065C35.2253 27.7495 38.7981 24.5039 42.8581 22.0697C46.7556 19.7977 50.3284 18.4995 54.0635 18.3372C58.9355 18.0127 62.6706 19.4732 65.5938 22.7188C67.0554 24.5039 68.6793 26.9381 69.1665 29.0477C70.1409 32.2933 70.3033 35.8635 69.6537 39.7582C68.6793 45.2757 66.7306 49.9818 62.9954 55.1748C59.7474 59.8809 55.8499 63.6133 51.3028 66.5344C47.4052 68.9686 43.67 70.2668 39.9349 70.5914C39.4477 70.7537 38.9605 70.7537 38.4733 70.7537ZM25.1567 47.2231C24.1823 51.2801 23.8575 55.0125 24.5071 58.2581C24.9943 61.0169 25.9687 63.2888 27.4302 65.0739C30.3534 68.644 34.7382 70.4291 40.0973 69.9423C43.67 69.6177 47.4052 68.3195 51.1404 65.8853C55.6875 63.1265 59.4226 59.3941 62.6706 54.8502C66.2434 49.8195 68.1921 45.1134 69.1665 39.7582C69.8161 35.8635 69.6537 32.4556 68.6793 29.3723C68.1921 27.4249 66.7306 24.9907 65.269 23.3679C62.5082 20.2846 58.9355 18.9863 54.2259 19.3109C50.6532 19.6355 47.0804 20.7714 43.3452 23.0433C39.2853 25.4775 35.8749 28.5609 32.627 32.6179C31.003 34.7275 29.2166 37.4863 28.2422 39.2713C27.4302 40.8941 25.9687 44.1397 25.1567 47.2231C25.1567 47.0608 25.1567 47.2231 25.1567 47.2231Z" fill="#010101"/>
<path d="M37.9863 69.2949C33.6016 69.2949 30.1912 67.6721 27.5929 64.4265C26.1313 62.6414 25.1569 60.3695 24.8321 57.773C24.1825 54.5275 24.5073 50.9573 25.4817 47.0626V46.9003C26.2937 43.9793 27.5929 41.0582 28.4049 39.2731C29.2168 37.6503 30.8408 35.0539 32.4648 32.9442C35.5504 29.0495 38.9607 26.1285 42.6959 23.6943C46.2686 21.5846 49.679 20.4487 53.2517 20.1241C57.7989 19.7995 61.534 21.2601 64.2948 24.1811C65.594 25.6416 66.5684 27.4267 67.218 29.5363C68.1924 32.6197 68.3548 35.8653 67.7052 39.5977C66.8932 44.7906 64.6196 49.8213 61.3716 54.5275C58.2861 59.0713 54.7133 62.4792 50.3286 65.2379C46.5934 67.5098 43.1831 68.8081 39.6103 69.1326C39.1231 69.2949 38.4735 69.2949 37.9863 69.2949ZM54.5509 20.9355C54.0637 20.9355 53.7389 20.9355 53.2517 20.9355C49.8414 21.0978 46.5934 22.2337 43.0207 24.3434C39.2855 26.6153 35.8752 29.5363 32.952 33.2688C31.328 35.2161 29.704 37.9749 28.892 39.5977C28.0801 41.2205 26.7809 44.3038 25.9689 47.0626V47.2249C24.9945 50.9573 24.8321 54.3652 25.3193 57.6108C25.8065 60.2072 26.6185 62.3169 28.0801 63.9397C30.6784 67.3476 34.576 68.8081 39.4479 68.4835C42.8583 68.159 46.2686 67.023 49.8414 64.7511C54.0637 62.1546 57.6365 58.7467 60.722 54.3652C63.97 49.659 66.0812 44.7906 66.8932 39.76C67.5428 36.1898 67.3804 32.9442 66.406 30.0232C65.7564 28.0758 64.9444 26.453 63.6452 24.9925C61.534 22.2337 58.4485 20.9355 54.5509 20.9355Z" fill="#010101"/>
<path d="M47.8926 89.7402C47.5678 89.7402 47.0806 89.5779 46.9182 89.4156C46.2686 88.9288 46.1062 87.7928 45.9438 87.306C45.7814 86.8191 45.7814 85.6832 46.2686 84.8718C46.5934 84.3849 47.0806 84.2226 47.5678 84.0604C48.2174 83.8981 48.7046 83.7358 49.3542 83.7358C50.0038 83.5735 50.8157 83.4112 51.4653 83.249C52.2773 83.0867 53.0893 83.249 53.7389 83.8981C54.3885 84.5472 54.7133 85.5209 54.5509 86.6568C54.2261 87.7928 53.4141 88.7665 52.4397 88.9288C51.4653 89.091 50.4909 89.4156 49.5166 89.5779L48.3798 89.9024C48.055 89.7402 47.8926 89.7402 47.8926 89.7402ZM46.9182 85.1963C46.5934 85.8454 46.5934 86.6568 46.5934 87.1437C46.5934 87.6305 46.9182 88.4419 47.4054 88.7665C47.5678 88.9288 47.8926 88.9288 48.055 88.9288L49.1918 88.6042C50.1662 88.4419 51.1405 88.1174 52.1149 87.9551C52.9269 87.7928 53.5765 87.1437 53.7389 86.17C53.9013 85.3586 53.7389 84.5472 53.2517 84.0604C52.7645 83.5735 52.2773 83.4112 51.6277 83.5735C50.9781 83.7358 50.1662 83.8981 49.5166 84.0604C48.867 84.2226 48.3798 84.3849 47.7302 84.3849C47.243 84.7095 47.0806 84.8718 46.9182 85.1963Z" fill="#E3202C"/>
<path d="M63.3206 6.4912C63.1582 6.4912 63.1582 6.4912 63.3206 6.4912L61.5342 6.32892C60.7222 6.32892 59.7478 6.16664 58.9359 6.16664C57.1495 6.00436 56.0127 4.54384 56.0127 2.92104C56.1751 1.13596 57.6367 0 59.4231 0C60.235 0 61.2094 0.16228 62.0214 0.16228L63.483 0.32456C63.9702 0.32456 64.4574 0.48684 64.7822 0.8114C64.9446 0.97368 64.9446 1.13596 64.9446 1.13596L65.2694 1.78508L64.6198 1.6228C64.4574 1.6228 63.6454 1.46052 63.3206 1.78508H63.1582C62.8334 1.94736 62.671 2.10964 62.3462 2.75876C62.1838 3.08332 62.1838 3.57016 62.3462 4.057C62.5086 4.54384 63.1582 5.19296 63.483 5.19296C63.8078 5.35524 64.1326 5.35524 64.295 5.35524L65.107 5.51752L64.4574 6.00436C64.1326 6.32892 63.6454 6.4912 63.3206 6.4912ZM59.2607 0.64912C57.9615 0.64912 56.9871 1.6228 56.8247 2.92104C56.6623 4.21928 57.6367 5.35524 59.0983 5.51752C59.9102 5.51752 60.7222 5.6798 61.6966 5.6798L62.9958 5.84208C62.5086 5.51752 61.859 5.03068 61.6966 4.21928C61.5342 3.57016 61.6966 2.92104 61.859 2.59648C62.1838 1.6228 62.671 1.46052 62.9958 1.29824H63.1582C63.3206 1.29824 63.3206 1.13596 63.483 1.13596H62.1838C61.2094 0.8114 60.235 0.8114 59.2607 0.64912Z" fill="#E3202C"/>
<path d="M44.3195 48.6856C43.1827 48.6856 42.3707 48.1987 41.7211 47.3873C41.3963 46.9005 41.0715 46.4136 41.0715 45.7645C40.9091 45.1154 40.9091 44.304 41.2339 43.4926C41.3963 43.0058 41.5587 42.3566 41.8835 42.0321C42.0459 41.7075 42.3707 41.2207 42.6955 40.8961C43.3451 40.247 43.8323 39.5979 44.6443 39.111C45.4563 38.6242 46.1059 38.4619 46.9178 38.2996C48.0546 38.1374 49.029 38.6242 49.6786 39.4356C50.0034 39.7602 50.3282 40.247 50.4906 40.7338C50.653 41.383 50.653 42.1944 50.653 42.8435C50.4906 43.8172 50.0034 44.7908 49.5162 45.7645C48.8666 46.5759 48.217 47.225 47.405 47.7119C46.5931 48.1987 45.9435 48.5233 45.1315 48.5233C44.6443 48.6856 44.4819 48.6856 44.3195 48.6856ZM46.9178 39.111H46.7554C46.1059 39.111 45.4563 39.4356 44.8067 39.7602C44.1571 40.0847 43.5075 40.7338 43.0203 41.383C42.6955 41.7075 42.5331 42.1944 42.3707 42.5189C42.2083 42.8435 42.0459 43.3303 41.8835 43.8172C41.7211 44.4663 41.7211 45.1154 41.7211 45.7645C41.8835 46.2514 42.0459 46.7382 42.2083 47.0628C42.6955 47.7119 43.5075 48.0364 44.6443 48.0364C45.2939 48.0364 45.9435 47.7119 46.5931 47.3873C47.2426 46.9005 47.8922 46.2514 48.5418 45.6022C49.1914 44.7908 49.5162 43.9794 49.6786 43.0058C49.841 42.3566 49.841 41.7075 49.5162 41.2207C49.3538 40.8961 49.1914 40.4093 48.8666 40.247C48.3794 39.4356 47.7298 39.111 46.9178 39.111ZM44.4819 46.5759C43.9947 46.5759 43.6699 46.4136 43.3451 46.0891C43.1827 45.9268 43.1827 45.6022 43.0203 45.44C43.0203 44.9531 43.0203 44.6286 43.1827 44.1417C43.3451 43.8172 43.5075 43.3303 43.5075 43.168C43.6699 43.0058 43.8323 42.5189 43.9947 42.3566C44.4819 41.8698 44.8067 41.383 45.4563 41.0584C45.9435 40.7338 46.2683 40.5716 46.7554 40.5716C47.2426 40.5716 47.5674 40.7338 47.8922 40.8961C48.0546 41.0584 48.0546 41.2207 48.217 41.383C48.3794 41.7075 48.3794 42.1944 48.217 42.6812C48.0546 43.3303 47.8922 43.9794 47.405 44.6286C46.9178 45.2777 46.4306 45.7645 45.9435 46.0891C45.4563 46.4136 44.9691 46.5759 44.6443 46.5759C44.4819 46.5759 44.4819 46.5759 44.4819 46.5759ZM46.9178 41.2207C46.593 41.2207 46.2683 41.383 45.9435 41.5452C45.4563 41.8698 45.1315 42.1944 44.8067 42.6812C44.6443 42.8435 44.4819 43.168 44.3195 43.4926C44.1571 43.6549 43.9947 44.1417 43.9947 44.304C43.8323 44.6286 43.8323 45.1154 43.9947 45.2777C43.9947 45.44 43.9947 45.6022 44.1571 45.6022C44.1571 45.7645 44.3195 45.7645 44.8067 45.7645C45.1315 45.7645 45.4563 45.6022 45.7811 45.44C46.2683 45.1154 46.7554 44.7908 47.0802 44.1417C47.405 43.6549 47.7298 43.0058 47.8922 42.3566C47.8922 42.0321 47.8922 41.7075 47.8922 41.383C47.8922 41.2207 47.8922 41.2207 47.7298 41.0584C47.405 41.383 47.2426 41.2207 46.9178 41.2207Z" fill="#010101"/>
</svg>
