<svg width="166" height="152" viewBox="0 0 166 152" fill="none" xmlns="http://www.w3.org/2000/svg">
<path d="M126.517 127.11C125.629 125.686 123.852 125.151 122.431 125.864C121.898 126.22 121.366 126.398 120.833 126.754L119.056 127.822C119.056 127.822 119.056 127.822 118.879 127.822C118.524 128 118.168 128.534 117.991 128.89L113.017 131.56C108.044 134.052 106.623 135.12 101.649 137.613C100.228 138.325 98.9846 138.681 98.0964 138.681C97.3859 138.681 96.853 138.503 96.4978 137.969C95.0768 136.188 97.5635 124.439 97.7411 123.727C97.9188 123.015 99.6951 115.539 99.6951 115.539L98.9846 114.649V114.827C98.9846 115.183 97.0306 123.015 96.853 123.549C96.6754 124.261 94.1886 136.544 95.7873 138.503C96.3202 139.215 97.0306 139.571 97.9188 139.571C98.9845 139.571 100.228 139.215 101.827 138.325L118.168 129.602C118.168 129.602 118.346 129.424 118.524 129.424C118.701 129.424 118.701 129.246 118.879 129.246C119.056 129.246 119.056 129.246 119.234 129.246C119.412 129.246 120.3 129.246 120.655 129.602C121.01 129.958 121.188 130.314 121.188 130.67C121.366 131.382 121.188 131.56 121.01 131.738V131.916C120.833 132.272 119.945 132.806 119.589 132.984C117.458 134.052 115.326 135.298 113.195 136.366C108.932 138.681 107.333 139.571 102.715 142.063C102.359 142.241 102.004 142.419 101.649 142.597H101.471C99.8727 143.487 98.4517 144.377 96.6754 144.377C96.3202 144.377 95.9649 144.377 95.6096 144.199C91.8795 143.487 90.8137 139.749 90.9913 136.722C91.169 131.916 92.4123 125.151 93.6557 120.167C94.1886 117.853 94.8991 115.361 95.2544 113.046C95.432 111.978 95.7872 110.732 95.9649 109.664C96.1425 109.308 96.1425 108.774 96.3201 108.418L96.1425 105.926L95.9649 106.46C95.9649 106.46 94.5439 112.334 94.3662 113.046C93.8334 115.361 93.3005 117.675 92.7676 120.167C91.5242 125.151 90.2808 131.916 90.1032 136.9C89.9256 140.283 91.169 144.377 95.432 145.089C95.7873 145.089 96.1425 145.267 96.4978 145.267C98.4517 145.267 100.05 144.377 101.649 143.487C102.004 143.309 102.359 143.131 102.892 142.775C107.511 140.461 108.754 139.571 113.372 137.257C115.682 136.01 117.991 134.764 120.122 133.696C120.655 133.874 121.01 133.696 121.543 133.518L122.787 132.806C123.497 132.45 124.208 131.916 124.918 131.56C126.872 130.314 127.227 128.534 126.517 127.11ZM121.898 132.094C122.076 131.56 122.431 131.204 122.076 130.314C122.076 129.958 121.721 129.246 121.188 128.89C120.833 128.534 119.945 128.356 119.589 128.356L120.477 127.822C121.188 127.466 121.898 127.11 122.609 126.754C123.675 126.22 124.918 126.576 125.629 127.644C126.162 128.712 125.984 129.958 124.918 130.492C124.918 130.492 124.918 130.492 124.74 130.492C124.03 131.026 123.142 131.382 122.609 131.738L121.898 132.094Z" fill="#E3202C"/>
<path d="M136.464 101.654C138.063 95.6017 138.24 89.7272 136.997 84.0307C136.109 80.2923 134.688 77.2661 132.556 74.5958C129.892 71.7476 126.695 70.1455 122.964 69.9674C122.787 69.9674 122.787 69.9674 122.609 69.9674C122.432 69.9674 122.254 69.7894 122.254 69.6114C122.254 69.4334 122.432 69.2554 122.609 69.2554H122.787C126.517 69.4334 129.892 71.0355 132.734 74.0618C135.043 76.732 136.464 79.7583 137.352 83.6746C138.773 89.5492 138.418 95.7797 136.819 102.01L136.464 101.654Z" fill="#010101"/>
<path d="M135.044 107.884C133.622 111.089 131.846 113.937 129.537 116.607C129.537 116.607 126.517 119.812 122.61 121.77C122.432 121.77 122.432 121.948 122.254 121.948C122.077 121.948 122.077 122.126 121.899 122.126C119.945 122.838 117.458 123.728 113.551 123.194C113.373 123.194 113.195 123.016 113.195 122.838C113.195 122.66 113.373 122.482 113.551 122.482C117.281 123.016 119.768 122.304 121.544 121.414C121.721 121.236 122.077 121.236 122.254 121.058C125.985 119.277 129.004 116.073 129.004 116.073C131.313 113.403 133.267 110.377 134.688 106.816L135.044 107.884Z" fill="#010101"/>
<path d="M135.399 110.555C134.155 112.691 132.912 114.649 131.313 116.429C131.313 116.429 128.294 119.633 124.386 121.592C124.208 121.592 124.208 121.77 124.031 121.77C123.853 121.77 123.853 121.948 123.675 121.948C121.722 122.66 119.235 123.55 115.327 123.016C115.149 123.016 114.972 122.838 114.972 122.66C114.972 122.482 115.149 122.304 115.327 122.304C119.057 122.838 121.544 122.126 123.32 121.236C123.498 121.058 123.853 121.058 124.031 120.88C127.761 119.099 130.781 115.895 130.781 115.895C132.557 113.937 133.978 111.623 135.221 109.309L135.399 110.555Z" fill="#010101"/>
<path d="M137.707 103.256C139.661 96.6698 140.017 90.2612 138.596 84.0307C137.707 80.2923 136.286 77.2661 134.155 74.5958C131.49 71.7476 126.517 70.1455 122.964 69.9674C122.787 69.9674 122.787 69.9674 122.609 69.9674C122.432 69.9674 122.254 69.7894 122.254 69.6114C122.254 69.4334 122.432 69.2554 122.609 69.2554H122.787C126.517 69.4334 131.491 71.0355 134.51 74.0618C136.819 76.732 138.24 79.7583 139.128 83.6746C140.549 90.2612 140.194 97.0258 138.063 103.79L137.707 103.256Z" fill="#010101"/>
<path d="M164.707 133.696C163.819 132.272 162.043 131.738 160.622 132.45C160.089 132.806 159.556 132.984 159.023 133.34L157.247 134.408C157.247 134.408 157.247 134.408 157.07 134.408C156.714 134.587 156.359 135.121 156.181 135.477L151.208 138.147C146.234 140.639 144.813 141.707 139.84 144.199C138.419 144.911 137.175 145.267 136.287 145.267C135.577 145.267 135.044 145.089 134.688 144.555C133.267 142.775 134.511 138.325 135.399 134.587C135.577 133.518 135.932 132.628 136.109 131.916C136.465 129.958 136.998 128 137.53 125.864C139.84 116.429 142.504 103.968 134.333 98.9834L132.912 103.968C135.932 106.638 135.044 112.513 133.8 117.319C133.623 118.387 128.827 137.969 128.649 142.953C128.471 146.336 129.715 150.43 133.978 151.142C134.333 151.142 134.688 151.32 135.044 151.32C136.998 151.32 138.596 150.43 140.195 149.54C140.55 149.362 140.905 149.184 141.438 148.828C146.057 146.514 147.3 145.623 151.918 143.309C154.227 142.063 156.537 140.817 158.668 139.749C159.201 139.927 159.556 139.749 160.089 139.571L161.333 138.859C162.043 138.503 162.754 137.969 163.464 137.613C165.063 137.079 165.418 135.299 164.707 133.696ZM160.089 138.859C160.267 138.325 160.622 137.969 160.267 137.079C160.267 136.723 159.912 136.011 159.379 135.655C159.023 135.299 158.135 135.121 157.78 135.121L158.668 134.587C159.379 134.23 160.089 133.874 160.8 133.518C161.865 132.984 163.109 133.34 163.819 134.408C164.352 135.477 164.175 136.723 163.109 137.257C163.109 137.257 163.109 137.257 162.931 137.257C162.221 137.791 161.333 138.147 160.8 138.503L160.089 138.859ZM137.175 103.256C140.55 108.596 138.419 118.209 136.465 125.864C135.932 128 135.399 129.958 135.044 132.094C134.866 132.806 134.688 133.696 134.511 134.765C133.445 138.859 132.379 143.309 133.978 145.445C134.511 146.158 135.221 146.514 136.109 146.514C137.175 146.514 138.419 146.158 140.017 145.267L156.359 136.545C156.359 136.545 156.537 136.367 156.714 136.367C156.892 136.367 156.892 136.189 157.07 136.189C157.247 136.189 157.247 136.189 157.425 136.189C157.602 136.189 158.491 136.189 158.846 136.545C159.201 136.901 159.379 137.257 159.379 137.613C159.556 138.325 159.379 138.503 159.201 138.681V138.859C159.023 139.215 158.135 139.749 157.78 139.927C155.648 140.995 153.517 142.241 151.385 143.309C147.122 145.623 145.524 146.514 140.905 149.006C140.55 149.184 140.195 149.362 139.84 149.54H139.662C138.063 150.43 136.642 151.32 134.866 151.32C134.511 151.32 134.156 151.32 133.8 151.142C130.07 150.43 129.004 146.692 129.182 143.665C129.36 138.859 134.333 118.209 134.333 118.209C135.399 114.115 136.287 108.418 134.333 105.57C133.978 105.036 133.445 104.502 132.912 103.968L133.978 100.23C135.399 100.942 136.465 102.01 137.175 103.256Z" fill="#E3202C"/>
<path d="M119.057 121.77C118.879 121.77 118.879 121.948 118.702 121.948C116.748 122.66 114.261 123.55 110.176 123.016C109.998 123.016 109.82 122.838 109.82 122.66C109.82 122.482 109.998 122.304 110.176 122.304C114.083 122.838 116.392 122.126 118.346 121.236C118.524 121.058 118.879 121.058 119.057 120.88C122.965 119.099 125.807 115.895 125.984 115.717C128.826 112.513 130.78 108.953 132.379 104.68C135.043 97.3815 135.576 90.0829 133.978 83.3183C133.089 79.4019 131.668 76.3757 129.359 73.8834C126.517 71.0352 123.32 69.433 119.767 69.255C119.59 69.255 119.59 69.255 119.412 69.255C119.235 69.255 119.057 69.077 119.057 68.899C119.057 68.721 119.235 68.543 119.412 68.543C119.412 68.543 119.59 68.543 119.767 68.543C123.498 68.721 127.05 70.3231 129.892 73.5274C132.201 76.1976 133.8 79.4019 134.688 83.3183C136.287 90.4389 135.754 97.7375 133.089 105.214C131.491 109.665 129.359 113.225 126.517 116.607C126.517 116.607 123.498 119.989 119.412 121.77C119.235 121.77 119.057 121.77 119.057 121.77Z" fill="#010101"/>
<path d="M117.28 121.77C113.195 123.55 108.754 123.55 105.202 121.592C103.07 120.524 101.472 118.744 99.8729 116.607C98.0966 113.759 96.6756 110.377 96.1427 106.283C95.7874 103.434 95.6098 100.052 95.7875 98.2719C95.9651 96.4917 96.3203 93.2874 97.0308 90.6172C98.2742 85.8108 100.228 81.7164 102.715 77.9781C105.202 74.5958 107.866 72.1036 110.886 70.5014C114.971 68.3653 118.879 68.1872 122.609 69.7894C124.563 70.6795 126.872 72.2816 128.116 73.8837C130.247 76.376 131.668 79.4022 132.556 83.1405C133.8 88.303 133.8 93.1094 132.734 99.162C131.668 104.502 129.714 109.309 126.872 113.403C124.385 116.964 121.721 119.634 118.524 121.414C118.168 121.236 117.813 121.592 117.28 121.77ZM96.6756 106.283C97.3861 110.199 98.6295 113.581 100.228 116.251C101.649 118.388 103.425 119.99 105.379 121.058C109.287 123.194 113.905 123.016 118.168 120.524C121.188 118.922 123.853 116.251 126.339 112.869C129.181 108.775 131.135 104.146 132.201 98.8059C133.444 92.9314 133.267 88.125 132.023 83.1405C131.135 79.5802 129.714 76.732 127.583 74.2398C126.339 72.8156 124.208 71.2135 122.254 70.3234C118.524 68.7213 115.149 68.8993 111.063 70.8575C108.044 72.4596 105.379 74.7738 103.07 78.1561C100.406 81.7164 98.6295 85.8108 97.3861 90.6172C96.6756 93.1094 96.3203 96.1357 96.1427 98.0939C96.3203 99.874 96.3203 103.256 96.6756 106.283C96.6756 106.105 96.6756 106.283 96.6756 106.283Z" fill="#010101"/>
<path d="M116.392 120.702C112.662 122.304 108.932 122.304 105.557 120.346C103.603 119.278 102.005 117.676 100.584 115.539C98.8073 112.869 97.7415 109.665 97.031 105.927V105.749C96.6757 102.9 96.6758 99.874 96.6758 97.9158C96.8534 96.1357 97.2086 93.2874 97.9191 90.7952C99.1625 86.1668 100.939 82.4285 103.426 78.8682C105.735 75.6639 108.222 73.3497 111.241 71.7475C115.149 69.6114 118.879 69.4333 122.432 71.0355C124.208 71.7475 125.629 72.9936 127.05 74.5958C129.004 76.91 130.425 79.7582 131.313 83.3185C132.556 88.125 132.556 93.2874 131.491 98.8059C130.425 103.968 128.649 108.241 125.984 112.335C123.675 115.717 121.011 118.21 118.169 119.812C117.28 120.168 116.748 120.346 116.392 120.702ZM112.307 72.1036C111.952 72.2816 111.596 72.4596 111.241 72.6376C108.399 74.0617 105.912 76.3759 103.781 79.5802C101.294 82.9625 99.6954 86.8789 98.4521 91.3293C97.9192 93.6435 97.3863 96.6697 97.3863 98.2719C97.2087 100.052 97.2086 103.078 97.7415 105.927V106.105C98.2744 109.843 99.5178 112.869 101.116 115.361C102.537 117.498 103.958 118.922 105.912 119.99C109.465 121.948 113.373 121.77 117.458 119.634C120.3 118.032 122.787 115.717 125.096 112.335C127.761 108.419 129.537 104.146 130.603 99.1619C131.668 93.8215 131.668 88.659 130.425 84.0306C129.537 80.6483 128.293 77.9781 126.339 75.6639C125.096 74.0617 123.675 72.9936 122.076 72.2816C118.879 70.5014 115.682 70.6794 112.307 72.1036Z" fill="#010101"/>
<path d="M114.083 100.229C113.195 100.585 112.129 100.585 111.241 100.051C110.708 99.8734 110.353 99.3393 109.998 98.9833C109.642 98.4493 109.465 97.7372 109.287 97.0251C109.287 96.4911 109.287 95.957 109.287 95.601C109.287 95.245 109.465 94.7109 109.465 94.3549C109.642 93.4648 109.998 92.7528 110.531 92.0407C111.063 91.3286 111.596 90.9726 112.129 90.6166C113.017 90.0825 114.083 90.0825 114.971 90.4386C115.326 90.6166 115.859 90.9726 116.037 91.3286C116.392 91.8627 116.747 92.3967 116.925 93.1088C117.103 93.9989 117.103 95.067 116.925 96.1351C116.747 97.0251 116.392 97.9152 115.859 98.6273C115.326 99.3393 114.794 99.8734 114.261 100.229C114.261 100.051 114.083 100.051 114.083 100.229ZM112.662 90.9726C112.662 90.9726 112.484 90.9726 112.484 91.1506C111.952 91.5067 111.419 91.8627 111.063 92.3967C110.708 92.9308 110.353 93.6428 110.175 94.3549C109.998 94.7109 109.998 95.245 109.998 95.601C109.998 95.957 109.998 96.4911 109.998 97.0251C110.175 97.7372 110.353 98.2712 110.708 98.8053C111.063 99.1613 111.241 99.5174 111.596 99.6954C112.307 100.051 113.195 100.051 114.083 99.6954C114.616 99.3393 115.149 98.9833 115.504 98.4493C116.037 97.7372 116.215 97.0251 116.392 96.1351C116.57 95.245 116.57 94.3549 116.392 93.4648C116.215 92.9308 116.037 92.3967 115.682 91.8627C115.504 91.5067 115.149 91.3286 114.794 91.1506C113.905 90.6166 113.373 90.6166 112.662 90.9726ZM113.195 98.4493C112.84 98.6273 112.484 98.6273 112.129 98.4493C111.952 98.2712 111.774 98.0932 111.596 97.9152C111.419 97.5592 111.241 97.2032 111.241 96.6691C111.241 96.3131 111.241 95.957 111.241 95.601C111.241 95.423 111.241 94.889 111.419 94.7109C111.596 94.1769 111.774 93.6428 112.129 93.1088C112.484 92.7528 112.662 92.3967 113.017 92.2187C113.373 92.0407 113.728 92.0407 114.083 92.2187C114.261 92.2187 114.438 92.3967 114.616 92.5747C114.794 92.9308 114.971 93.2868 115.149 93.6428C115.326 94.3549 115.326 94.8889 115.149 95.779C114.971 96.4911 114.794 97.0251 114.438 97.5592C114.083 97.7372 113.728 98.0932 113.195 98.4493C113.373 98.2712 113.373 98.2712 113.195 98.4493ZM113.373 92.7528C113.017 92.9308 112.84 93.1088 112.662 93.4648C112.307 93.8209 112.129 94.3549 111.952 94.8889C111.952 95.245 111.774 95.601 111.774 95.779C111.774 95.957 111.774 96.3131 111.774 96.6691C111.774 97.0251 111.952 97.3812 112.129 97.5592C112.307 97.7372 112.307 97.7372 112.484 97.9152C112.662 97.9152 112.662 98.0932 113.017 97.9152C113.195 97.7372 113.55 97.5592 113.728 97.2031C114.083 96.6691 114.261 96.3131 114.438 95.601C114.616 94.889 114.616 94.3549 114.438 93.8209C114.438 93.4648 114.261 93.2868 114.083 93.1088L113.905 92.9308C113.728 92.5748 113.728 92.5747 113.373 92.7528Z" fill="#010101"/>
<path d="M50.6699 142.954C49.9594 142.954 49.2489 142.954 48.5384 142.776L6.61833 132.629C2.00001 131.561 -0.842037 126.754 0.223728 121.948L25.9797 7.66173C27.0455 3.03333 31.1309 -0.170953 35.9268 0.00706303L77.1364 2.32126C79.9785 2.49928 82.4652 3.9234 84.2415 6.05959C86.0178 8.37379 86.7283 11.4001 86.0178 14.2483L60.2618 135.121C59.7289 137.791 58.1303 139.927 55.8211 141.351C54.0448 142.419 52.4462 142.954 50.6699 142.954ZM35.2164 0.897141C31.1309 0.897141 27.5784 3.74539 26.6902 7.83975L0.934254 122.126C0.0461166 126.398 2.53291 130.67 6.79596 131.739L48.716 141.707C51.0252 142.241 53.3343 141.885 55.2882 140.639C57.4198 139.393 58.6632 137.257 59.196 134.943L84.952 14.0703C85.4849 11.4001 84.952 8.72983 83.3534 6.59364C81.7547 4.63547 79.4456 3.38936 76.9588 3.21134L35.7492 0.897141C35.5716 0.897141 35.394 0.897141 35.2164 0.897141Z" fill="#010101"/>
<path d="M46.94 142.064C46.2295 142.064 45.6966 142.064 44.9861 141.885C44.8085 141.885 44.6309 141.529 44.6309 141.351C44.6309 141.173 44.9861 140.995 45.1637 140.995C47.2953 141.529 49.4268 141.173 51.3807 139.927C53.5122 138.503 55.1109 136.189 55.6438 133.697L81.3998 12.8242C82.1103 9.44191 81.755 6.94969 80.5116 5.34755C79.4459 3.92343 77.3143 3.21137 74.6499 3.03335C74.4723 3.03335 74.2947 2.85534 74.2947 2.67732C74.2947 2.4993 74.4723 2.32129 74.6499 2.32129C77.6696 2.32129 79.8011 3.21137 81.2221 4.99152C82.6431 6.77168 82.9984 9.61993 82.2879 13.1802L56.5319 134.053C55.999 136.901 54.2227 139.393 51.736 140.817C50.3149 141.529 48.7163 142.064 46.94 142.064Z" fill="#010101"/>
<path d="M60.0841 6.59427L46.4068 5.88221C45.8739 5.88221 45.6963 5.52618 45.6963 4.99213C45.8739 4.45808 46.2292 4.10205 46.7621 4.10205L60.4394 4.81411C60.9723 4.81411 61.1499 5.17014 61.1499 5.70419C60.9722 6.23824 60.617 6.59427 60.0841 6.59427Z" fill="#010101"/>
<path d="M60.0841 6.94996L46.2292 6.2379C45.8739 6.2379 45.5187 6.05988 45.3411 5.70385C45.1634 5.34782 44.9858 4.99179 45.1634 4.63576C45.341 3.9237 46.0516 3.38965 46.5844 3.38965L60.2617 4.10171C60.617 4.10171 60.9722 4.27973 61.1499 4.63576C61.3275 4.99179 61.5051 5.34782 61.3275 5.70385C61.3275 6.59393 60.7946 6.94996 60.0841 6.94996ZM60.0841 6.05988C60.2617 6.05988 60.617 5.88187 60.617 5.52583C60.617 5.34782 60.617 5.34782 60.617 5.1698L60.4394 4.99179L46.7621 4.27973C46.5844 4.27973 46.2292 4.45774 46.2292 4.81377C46.2292 4.99179 46.2292 4.99179 46.2292 5.1698L46.4068 5.34782L60.0841 6.05988Z" fill="#010101"/>
<path d="M31.4856 132.095C31.308 132.095 30.9527 132.095 30.7751 132.095L20.6503 129.781C19.9398 129.603 19.2293 129.069 18.6964 128.356C18.3412 127.644 18.1635 126.932 18.3412 126.042C18.5188 125.33 19.0517 124.618 19.7622 124.084C20.4727 123.728 21.3608 123.55 22.0713 123.728L32.1961 126.042C32.9066 126.22 33.6171 126.754 34.15 127.466C34.5052 128.178 34.6829 128.89 34.5052 129.781C34.3276 130.493 33.7947 131.205 33.0842 131.739C32.5513 131.917 32.0185 132.095 31.4856 132.095ZM21.3608 124.44C21.0056 124.44 20.6503 124.618 20.2951 124.796C19.7622 125.152 19.4069 125.508 19.4069 126.22C19.0517 127.466 19.9398 128.534 21.0056 128.89L31.1303 131.205C31.6632 131.383 32.1961 131.205 32.729 130.849C33.2618 130.493 33.6171 130.137 33.6171 129.425C33.9724 128.178 33.0842 127.11 32.0185 126.754L21.8937 124.44C21.7161 124.44 21.5385 124.44 21.3608 124.44Z" fill="#010101"/>
<path d="M96.1421 76.3749C95.9644 76.3749 95.9645 76.1968 95.7868 76.1968C88.6817 68.3642 80.1556 69.2542 79.978 69.2542C79.6227 69.2542 79.0898 69.0762 79.0898 68.5422C79.0898 68.1861 79.2675 67.6521 79.8004 67.6521C80.1556 67.6521 89.3922 66.584 97.0302 75.1287C97.3854 75.4848 97.3854 76.0188 97.0302 76.1968C96.6749 76.5529 96.4973 76.5529 96.1421 76.3749Z" fill="black"/>
<path d="M94.011 75.841L96.6754 73.3488C97.0307 72.9928 97.5635 73.1708 97.7411 73.7048L98.9845 77.6212C99.1622 78.1552 98.6293 78.6893 98.0964 78.5112L94.1886 77.0871C93.8334 76.7311 93.6558 76.197 94.011 75.841Z" fill="black"/>
</svg>
