<svg width="127" height="140" viewBox="0 0 127 140" fill="none" xmlns="http://www.w3.org/2000/svg">
<path d="M37.1336 41.4091C36.9558 40.5206 35.8889 39.2768 30.0208 40.876L29.6652 38.566C29.4874 37.8552 28.5982 37.4999 26.82 37.8552C25.2197 38.2106 23.0858 38.9214 20.7742 39.9875C18.6403 41.0537 16.5065 42.2975 15.0839 43.5413C13.4836 44.7852 12.7723 45.8513 12.7723 46.7398L13.1279 49.0498C7.61549 52.959 7.08203 54.9135 7.08203 55.802C7.25985 57.0458 9.03806 57.4012 12.061 56.8681C12.7723 56.6905 13.4836 56.5128 14.1948 56.3351L14.5505 58.8227C14.5505 59.1781 14.9061 59.5335 15.4396 59.5335C15.973 59.7112 16.6843 59.5335 17.5734 59.3558C19.1738 59.0004 21.3076 58.2897 23.6193 57.2235C25.7531 56.1574 27.887 54.9136 29.3095 53.6697C30.9099 52.4259 31.6212 51.3597 31.6212 50.4713L31.2655 47.9836C31.9768 47.4505 32.6881 46.9175 33.2216 46.5621C35.1776 45.1406 37.4893 43.0083 37.1336 41.4091ZM15.7952 55.9797C15.973 55.9797 16.1508 55.802 16.1508 55.802C16.3287 55.802 16.6843 55.6243 16.8621 55.6243C17.04 55.6243 17.2178 55.4466 17.3956 55.4466C17.5734 55.4466 17.7512 55.2689 18.1069 55.2689H18.2847H18.4625H18.6403C18.996 55.0912 19.3516 54.9135 19.8851 54.7359C20.0629 54.7359 20.2407 54.5582 20.2407 54.5582C20.5964 54.3805 20.7742 54.3805 21.1298 54.2028L21.4854 54.0251C22.0189 53.8474 22.3746 53.6697 22.7302 53.492C23.0858 53.3143 23.4415 53.1366 23.6193 52.959L23.7971 52.7813C24.1528 52.6036 24.3306 52.4259 24.6862 52.2482C25.0419 52.0705 25.3975 51.8928 25.7531 51.7151H25.9309C27.5313 50.8267 29.1317 49.7605 30.5543 48.8721L30.9099 51.182C30.9099 51.5374 30.5543 52.4259 28.9539 53.6697C27.5313 54.9136 25.3975 55.9797 23.2636 57.0458C21.1298 58.112 18.996 58.8227 17.3956 59.1781C15.6174 59.5335 15.0839 59.1781 14.9061 58.8227L14.5505 56.5128C15.0839 56.1574 15.4396 55.9797 15.7952 55.9797ZM30.9099 47.8059C29.3095 48.8721 27.7091 49.9382 25.9309 50.8267C25.9309 50.8267 25.931 50.8267 25.7531 50.8267C25.0419 51.182 24.5084 51.5374 23.7971 51.8928L23.6193 52.0705C23.2637 52.2482 22.908 52.4259 22.5524 52.6036C22.0189 52.7813 21.6633 52.959 21.3076 53.1366L21.1298 53.3143C20.7742 53.492 20.5964 53.492 20.2407 53.6697C20.0629 53.6697 19.8851 53.8474 19.7072 53.8474C19.3516 54.0251 18.996 54.2028 18.6403 54.2028C18.4625 54.2028 18.2847 54.3805 18.1069 54.3805C17.7512 54.5582 17.5734 54.5582 17.2178 54.7359C17.04 54.7359 16.8621 54.9135 16.6843 54.9135L15.973 55.0912C15.7952 55.0912 15.6174 55.2689 15.4396 55.2689C15.2618 55.2689 15.0839 55.4466 14.9061 55.4466H14.7283H14.5505H14.3726C13.4835 55.6243 12.7723 55.802 12.061 55.9797C9.3937 56.5128 7.6155 56.3351 7.43768 55.4466C7.25986 54.5582 8.68241 52.4259 13.1279 49.4051L13.3057 50.1159C11.1719 51.7151 10.2828 53.1366 10.4606 54.0251C10.4606 54.5582 10.8163 54.9135 11.5275 54.9135C12.4166 55.0912 13.4835 54.9135 14.3726 54.7359C16.6843 54.2028 19.5294 53.3143 22.7302 51.7151C25.7531 50.2936 28.5982 48.5167 30.7321 46.9175C32.3325 45.6736 34.1107 43.8967 33.9328 42.6529C33.755 41.4091 31.799 41.5867 30.1986 41.7644L30.0208 41.0537C34.6441 39.8098 36.6001 40.3429 36.6001 41.2314C36.778 42.1198 35.3554 43.8967 32.8659 45.8513C32.3325 46.7398 31.799 47.2728 30.9099 47.8059ZM33.3994 43.186C33.5772 43.8967 32.3325 45.1406 30.5543 46.7398C28.5983 48.339 25.7531 50.1159 22.7302 51.5374C19.7073 52.959 16.8621 54.0251 14.5505 54.5582C12.4166 54.9136 11.1719 54.7359 10.9941 54.2028C10.8163 53.6697 11.8832 52.4259 13.4835 51.0044L13.8392 52.959C14.017 53.6697 14.9061 54.0251 16.6843 53.6697C18.2847 53.3143 20.4185 52.6036 22.7302 51.5374C24.864 50.4713 26.8201 49.2274 28.4204 48.1613C29.6652 47.2728 30.9099 45.8513 30.7321 44.9629L30.3764 43.0083C32.1546 42.4752 33.2216 42.6529 33.3994 43.186ZM22.5524 50.8267C20.4185 51.8928 18.2847 52.6036 16.6843 52.959C14.9061 53.3143 14.3727 52.959 14.1948 52.6036L13.3057 47.4505H13.4835C14.017 47.6282 14.7283 47.4505 15.6174 47.2728C17.2178 46.9175 19.3516 46.2067 21.6633 45.1406C24.6862 43.719 28.2426 41.4091 29.3095 39.6321L30.1986 44.7852C30.3765 45.8513 27.5313 48.5167 22.5524 50.8267ZM21.4854 44.7852C19.3516 45.8513 17.2178 46.5621 15.6174 46.9175C13.8392 47.2728 13.3057 46.9175 13.1279 46.5621C13.1279 46.2067 13.4836 45.3182 15.0839 44.0744C16.5065 42.8306 18.4625 41.7644 20.7742 40.6983C22.908 39.6321 25.0419 38.9214 26.6422 38.566C27.5313 38.3883 28.0648 38.3883 28.5982 38.3883C28.9539 38.3883 29.1317 38.566 29.1317 38.7437C29.3095 39.8098 26.4644 42.4752 21.4854 44.7852Z" fill="#010101"/>
<path d="M19.1739 77.8366C17.9291 77.8366 16.6844 77.6589 15.4397 77.4812C9.74942 76.2374 5.1261 71.9728 2.4588 65.5759C-0.208503 59.1791 -0.741969 51.5384 1.03623 43.8977C4.77045 28.0832 17.2179 17.4217 28.7762 20.0871C34.4664 21.3309 39.0897 25.5955 41.757 31.9924C44.4243 38.3892 44.9578 46.0299 43.1796 53.6706C41.4014 61.3113 37.4893 68.0636 32.3326 72.5059C28.2427 76.0597 23.6194 77.8366 19.1739 77.8366ZM25.2198 20.4425C15.084 20.4425 5.12609 30.2155 1.92533 44.0753C0.147131 51.5384 0.680597 59.0014 3.3479 65.2205C6.0152 71.262 10.2829 75.3489 15.6175 76.5928C20.9521 77.8366 26.6423 76.0597 31.7991 71.7951C36.9559 67.3528 40.6901 60.956 42.2905 53.493C44.0687 46.0299 43.5352 38.5669 40.8679 32.3478C38.2006 26.3063 33.9329 22.2194 28.5983 20.9755C27.5314 20.6202 26.2867 20.4425 25.2198 20.4425Z" fill="#010101"/>
<path d="M20.063 78.0132C19.1739 78.0132 18.2848 78.0132 17.3957 77.8355C17.2179 77.8355 17.04 77.6578 17.04 77.3024C17.04 77.1248 17.2179 76.9471 17.5735 76.9471C30.5544 78.1909 40.6901 69.4841 44.2465 53.4919C47.8029 38.3882 41.4014 23.8175 30.1987 21.3299C30.0209 21.3299 29.8431 20.9745 29.8431 20.7968C29.8431 20.6191 30.1987 20.4414 30.3765 20.4414C42.1126 23.1068 48.692 38.0328 45.1356 53.6696C41.5792 69.1287 32.3326 78.0132 20.063 78.0132Z" fill="#010101"/>
<path d="M90.8353 139.317C90.124 139.317 89.4127 139.317 88.7014 139.139L46.5581 129.366C41.9348 128.3 39.0897 123.68 40.1566 119.06L66.1183 7.47045C67.1852 2.85049 71.2751 -0.170252 76.0762 0.00743842L117.508 2.31742C120.353 2.49511 123.021 3.91664 124.621 6.04892C126.399 8.3589 126.933 11.202 126.399 13.8673L100.438 131.676C99.9041 134.164 98.3037 136.296 96.1699 137.718C94.3917 138.784 92.6135 139.317 90.8353 139.317ZM88.8793 138.429C91.1909 138.962 93.5026 138.606 95.6364 137.362C97.5924 136.119 99.015 134.164 99.5485 131.854L125.51 14.045C126.044 11.5573 125.51 8.89198 123.91 6.75969C122.309 4.6274 119.998 3.38356 117.33 3.20587L75.8984 0.895892C71.6307 0.718201 67.7187 3.56125 66.8296 7.64814L40.8679 119.06C39.801 123.325 42.4682 127.412 46.7359 128.478L88.8793 138.429Z" fill="#010101"/>
<path d="M87.2794 138.427C86.5682 138.427 86.0347 138.427 85.3234 138.25C85.1456 138.25 84.9678 138.072 84.9678 137.717C84.9678 137.539 85.1456 137.361 85.5012 137.361C87.6351 137.894 89.9467 137.361 91.9028 136.295C94.0366 134.874 95.637 132.741 96.1704 130.254L121.954 12.4447C122.666 9.2463 122.31 6.75863 121.065 5.15941C119.998 3.73789 117.864 2.84943 115.019 2.84943C114.842 2.84943 114.664 2.67174 114.664 2.49405C114.664 2.31636 114.842 2.13867 115.019 2.13867C118.042 2.13867 120.354 3.02713 121.599 4.80403C123.021 6.58094 123.377 9.2463 122.488 12.6224L96.5261 130.431C95.9926 133.097 94.2144 135.584 91.9028 137.006C90.658 138.072 88.8798 138.427 87.2794 138.427Z" fill="#010101"/>
<path d="M78.9218 91.695C78.7439 91.695 78.5661 91.5173 78.5661 91.3396C78.5661 91.1619 78.7439 90.9842 78.9218 90.9842C79.4552 90.9842 79.9887 90.9842 80.5221 90.8065C80.6999 90.8065 80.8778 90.9842 80.8778 91.1619C80.8778 91.3396 80.6999 91.5173 80.5221 91.5173C80.1665 91.695 79.633 91.695 78.9218 91.695ZM75.721 91.3396L75.8988 90.9842L75.721 91.3396C75.1875 91.1619 74.6541 90.9842 74.1206 90.8065C73.9428 90.8065 73.765 90.4512 73.9428 90.2735C74.1206 90.0958 74.2984 89.9181 74.4763 90.0958C75.0097 90.2735 75.3654 90.4512 75.8988 90.4512L75.721 91.3396ZM83.7229 90.9842C83.5451 90.9842 83.3673 90.8065 83.3673 90.8065C83.3673 90.6288 83.3673 90.4512 83.5451 90.2735C84.0786 90.0958 84.4342 89.9181 84.9676 89.7404C85.1454 89.7404 85.3233 89.7404 85.5011 89.9181C85.6789 90.0958 85.5011 90.2735 85.3233 90.4512C84.7898 90.4512 84.2564 90.6288 83.7229 90.9842ZM71.4533 89.5627H71.2755C70.742 89.2073 70.3864 88.8519 70.0308 88.6743C69.8529 88.4966 69.8529 88.3189 70.0308 88.1412C70.2086 87.9635 70.3864 87.9635 70.5642 88.1412C70.9199 88.4966 71.4533 88.8519 71.809 89.0296C71.9868 89.2073 71.9868 89.385 71.9868 89.5627C71.809 89.5627 71.6312 89.5627 71.4533 89.5627ZM87.8128 88.6743C87.6349 88.6743 87.6349 88.6742 87.4571 88.4966C87.2793 88.3189 87.4571 88.1412 87.6349 87.9635C87.9906 87.6081 88.524 87.4304 88.8797 87.075C89.0575 86.8973 89.2353 86.8973 89.4131 87.075C89.5909 87.2527 89.5909 87.4304 89.4131 87.6081C89.0575 87.9635 88.524 88.3189 88.1684 88.4966C87.9906 88.6742 87.9906 88.6743 87.8128 88.6743ZM68.0747 86.3643C67.8969 86.3643 67.8969 86.3643 67.7191 86.1866C67.3635 85.8312 67.0078 85.2981 66.83 84.9427C66.6522 84.7651 66.83 84.5874 67.0078 84.4097C67.1857 84.232 67.3635 84.4097 67.5413 84.5874C67.8969 84.9427 68.0748 85.4758 68.4304 85.8312C68.6082 86.0089 68.6082 86.1866 68.4304 86.3643C68.2526 86.3643 68.0747 86.3643 68.0747 86.3643ZM91.547 85.6535C91.3692 85.6535 91.3691 85.6535 91.1913 85.4758C91.0135 85.2981 91.0135 85.1204 91.1913 84.9427C91.547 84.5874 91.9026 84.232 92.2583 83.6989C92.4361 83.5212 92.6139 83.5212 92.7917 83.6989C92.9695 83.8766 92.9695 84.0543 92.7917 84.232C92.4361 84.5874 92.0804 85.1204 91.7248 85.4758C91.7248 85.6535 91.547 85.6535 91.547 85.6535ZM65.5853 82.2774C65.4074 82.2774 65.2296 82.2774 65.2296 82.0997C65.0518 81.5666 64.874 81.0336 64.5183 80.6782C64.5183 80.5005 64.5183 80.3228 64.6962 80.1451C64.874 80.1451 65.0518 80.1451 65.2296 80.3228C65.4075 80.8559 65.5853 81.2112 65.7631 81.7443C65.9409 81.922 65.9409 82.0997 65.5853 82.2774ZM94.3921 81.922H94.2143C94.0365 81.7443 94.0365 81.5666 94.0365 81.3889C94.3921 81.0335 94.5699 80.5005 94.9256 79.9674C95.1034 79.7897 95.2812 79.7897 95.459 79.7897C95.6368 79.9674 95.6368 80.1451 95.6368 80.3228C95.2812 80.8559 95.1034 81.2112 94.7477 81.7443C94.7477 81.7443 94.5699 81.922 94.3921 81.922ZM63.9849 77.8351C63.8071 77.8351 63.6292 77.6574 63.6292 77.4797C63.4514 76.9467 63.4514 76.4136 63.2736 75.8805C63.2736 75.7028 63.4514 75.5251 63.6292 75.3474C63.8071 75.3474 63.9849 75.5251 64.1627 75.7028C64.3405 76.2359 64.3405 76.769 64.5183 77.302C64.3405 77.4797 64.3405 77.8351 63.9849 77.8351ZM96.7038 77.6574C96.7038 77.6574 96.5259 77.6574 96.7038 77.6574C96.3481 77.4797 96.1703 77.302 96.3481 77.1244C96.5259 76.5913 96.7038 76.2359 96.8816 75.7028C96.8816 75.5251 97.2372 75.3474 97.415 75.5251C97.5928 75.5251 97.7707 75.8805 97.5929 76.0582C97.415 76.5913 97.2372 77.1243 97.0594 77.4797C97.0594 77.6574 96.8816 77.6574 96.7038 77.6574ZM98.3041 73.2152C97.9485 73.2152 97.9485 72.8598 97.9485 72.6821C98.1263 72.149 98.3041 71.6159 98.3041 71.0829C98.3041 70.9052 98.6598 70.7275 98.8376 70.7275C99.0154 70.7275 99.1932 70.9052 99.1932 71.0829C99.0154 71.6159 99.0154 72.149 98.8376 72.6821C98.6598 73.0375 98.4819 73.2152 98.3041 73.2152ZM63.2736 73.0375C63.0958 73.0375 62.918 72.8598 62.918 72.6821C62.918 72.149 62.918 71.6159 62.918 71.0829C62.918 70.9052 63.0958 70.7275 63.2736 70.7275C63.4514 70.7275 63.6292 70.9052 63.6292 71.0829C63.6292 71.6159 63.6292 72.149 63.6292 72.6821C63.6292 72.8598 63.4514 73.0375 63.2736 73.0375ZM99.1932 68.4175C98.8376 68.4175 98.8376 68.2398 98.8376 67.8844C98.8376 67.3514 99.0154 66.8183 99.0154 66.2852C99.0154 66.1075 99.1932 65.9298 99.3711 65.9298C99.5489 65.9298 99.7267 66.1075 99.7267 66.2852C99.7267 66.8183 99.5489 67.3514 99.5489 67.8844C99.5489 68.4175 99.5489 68.4175 99.1932 68.4175ZM63.2736 68.4175C63.0958 68.4175 62.918 68.2398 62.918 68.0621C62.918 67.529 63.0958 66.996 63.0958 66.4629C63.0958 66.2852 63.2736 66.1075 63.4514 66.1075C63.6293 66.1075 63.8071 66.2852 63.8071 66.6406C63.8071 67.1737 63.6292 67.7067 63.6292 68.2398C63.6292 68.2398 63.4514 68.4175 63.2736 68.4175ZM99.5489 63.7975C99.3711 63.7975 99.1932 63.6199 99.1932 63.4422C99.1932 62.9091 99.1932 62.376 99.1932 61.8429C99.1932 61.6653 99.3711 61.4876 99.5489 61.4876C99.7267 61.4876 99.9045 61.6653 99.9045 61.8429C99.9045 62.376 99.9045 62.9091 99.9045 63.4422C99.9045 63.6199 99.7267 63.7975 99.5489 63.7975ZM64.3405 63.2645H63.9849L63.6292 63.0868C63.8071 62.5537 63.8071 62.0206 63.9849 61.4876C63.9849 61.3099 64.3405 61.1322 64.5183 61.1322C64.6962 61.1322 64.874 61.4876 64.874 61.6653C64.6962 62.376 64.5184 62.9091 64.3405 63.2645ZM65.4074 59.1776C65.0518 58.9999 64.874 58.8222 65.0518 58.6445C65.2296 58.1114 65.4074 57.5784 65.5853 57.223C65.7631 57.0453 65.9409 56.8676 66.1187 57.0453C66.2966 57.223 66.4744 57.4007 66.2965 57.5784C66.1187 58.1114 65.9409 58.4668 65.7631 58.9999C65.7631 58.9999 65.5853 59.1776 65.4074 59.1776ZM99.0154 58.9999C98.8376 58.9999 98.6598 58.8222 98.6598 58.6445C98.482 58.1114 98.4819 57.5784 98.3041 57.0453C98.3041 56.8676 98.3041 56.6899 98.6598 56.5122C98.8376 56.5122 99.0154 56.5122 99.1932 56.8676C99.371 57.4007 99.3711 57.9338 99.5489 58.4668C99.5489 58.8222 99.3711 58.9999 99.0154 58.9999C99.1932 58.9999 99.1932 58.9999 99.0154 58.9999ZM67.5413 54.913H67.3635C67.1856 54.7353 67.1856 54.5576 67.1856 54.3799C67.5413 53.8469 67.7191 53.4915 68.0747 52.9584C68.2526 52.7807 68.4304 52.7807 68.6082 52.7807C68.786 52.9584 68.786 53.1361 68.786 53.3138C68.4304 53.6692 68.2526 54.2022 67.8969 54.7353C67.7191 54.7353 67.5413 54.913 67.5413 54.913ZM97.7707 54.3799C97.5929 54.3799 97.415 54.2022 97.415 54.2022C97.2372 53.6692 97.0594 53.3138 96.8816 52.7807C96.7038 52.603 96.8816 52.4253 97.0594 52.2476C97.2372 52.07 97.415 52.2476 97.5929 52.4253C97.7707 52.9584 97.9485 53.4915 98.3041 53.8469C98.3041 54.0246 98.1263 54.3799 97.7707 54.3799C97.9485 54.3799 97.9485 54.3799 97.7707 54.3799ZM70.2086 50.8261C70.2086 50.8261 70.0308 50.8261 70.0308 50.6484C69.8529 50.4707 69.8529 50.293 70.0308 50.1154C70.3864 49.76 70.7421 49.2269 71.0977 48.8715C71.2755 48.6938 71.4533 48.6938 71.6311 48.8715C71.809 49.0492 71.809 49.2269 71.6311 49.4046C71.2755 49.76 70.9199 50.1154 70.5642 50.6484C70.3864 50.8261 70.2086 50.8261 70.2086 50.8261ZM95.6368 50.1154C95.459 50.1154 95.459 50.1154 95.2812 49.9377C94.9255 49.5823 94.7477 49.0492 94.3921 48.6938C94.2143 48.5161 94.2143 48.3384 94.3921 48.1608C94.5699 47.9831 94.7477 47.9831 94.9256 48.1608C95.2812 48.5161 95.6368 49.0492 95.8147 49.4046C95.9925 49.5823 95.8146 49.76 95.6368 49.9377C95.8146 50.1154 95.6368 50.1154 95.6368 50.1154ZM73.5872 47.6277C73.4093 47.6277 73.4093 47.6277 73.2315 47.45C73.0537 47.2723 73.0537 47.0946 73.2315 46.9169C73.5872 46.5615 74.1206 46.2062 74.4763 46.0285C74.6541 45.8508 74.8319 46.0285 75.0097 46.2062C75.1875 46.3838 75.0097 46.5615 74.8319 46.7392C74.4763 47.0946 73.9428 47.2723 73.5872 47.6277C73.5872 47.6277 73.765 47.45 73.5872 47.6277ZM92.4361 46.7392C92.4361 46.7392 92.2583 46.7392 92.2583 46.5615C91.9026 46.2062 91.3692 45.8508 91.0135 45.6731C90.8357 45.4954 90.8357 45.3177 90.8357 45.14C91.0135 44.9623 91.1913 44.9623 91.3692 44.9623C91.7248 45.3177 92.2582 45.4954 92.6139 45.8508C92.7917 46.0285 92.7917 46.2062 92.6139 46.3839C92.6139 46.5615 92.6139 46.7392 92.4361 46.7392ZM77.4992 44.9623C77.3214 44.9623 77.1436 44.9623 77.1436 44.7846C76.9657 44.6069 77.1436 44.4293 77.3214 44.2516C77.8549 44.0739 78.3883 43.8962 78.7439 43.7185C78.9218 43.7185 79.0996 43.7185 79.2774 43.8962C79.2774 44.0739 79.2774 44.2516 79.0996 44.4293C78.744 44.6069 78.2105 44.7846 77.4992 44.9623C77.677 44.9623 77.677 44.9623 77.4992 44.9623ZM88.3462 44.2516C87.8128 44.0739 87.2793 43.8962 86.7458 43.8962V43.5408L86.9237 43.1854L86.7458 43.5408L86.9237 43.1854C87.4571 43.3631 87.9906 43.5408 88.524 43.7185C88.7018 43.7185 88.8797 44.0739 88.7019 44.2516C88.7019 44.2516 88.524 44.2516 88.3462 44.2516ZM82.1225 43.7185C81.9447 43.7185 81.7669 43.5408 81.7669 43.3631C81.7669 43.1854 81.9447 43.0077 82.1225 42.83C82.656 42.83 83.1894 42.6523 83.7229 42.6523C83.9007 42.6523 84.0785 42.83 84.0785 43.0077C84.0785 43.1854 83.9007 43.3631 83.7229 43.3631C83.1894 43.5408 82.656 43.5408 82.1225 43.7185Z" fill="#E3202C"/>
<path d="M75.0092 64.6856C74.8314 64.6856 74.4758 64.6856 74.2979 64.5079C65.2291 55.4457 51.3592 53.4911 51.1814 53.4911C50.6479 53.4911 50.2923 52.958 50.4701 52.425C50.4701 51.8919 51.0036 51.5365 51.537 51.7142C52.0705 51.7142 66.2961 53.8465 75.7205 63.2641C76.0761 63.6195 76.0761 64.1525 75.7205 64.5079C75.3649 64.5079 75.1871 64.6856 75.0092 64.6856Z" fill="black"/>
<path d="M71.0973 64.1536L75.365 59.8891C75.8984 59.356 76.9653 59.5337 77.1432 60.2444L79.277 66.6413C79.6326 67.5298 78.7435 68.4182 77.8544 68.0628L71.4529 65.9305C70.7416 65.7528 70.5638 64.6867 71.0973 64.1536Z" fill="black"/>
</svg>
