<svg width="31" height="33" viewBox="0 0 31 33" fill="none" xmlns="http://www.w3.org/2000/svg">
<path d="M9.45039 18.15L9.45039 -3.8466e-07L0.650389 0L0.65039 18.15C0.65039 26.3384 7.31199 33 15.5004 33C23.6888 33 30.3504 26.3384 30.3504 18.15L30.3504 -1.29823e-06L21.5504 -9.13568e-07L21.5504 18.15C21.5504 21.4857 18.8361 24.2 15.5004 24.2C12.1646 24.2 9.45039 21.4857 9.45039 18.15ZM8.35039 1.1L8.35039 7.7L1.75039 7.7L1.75039 1.1L8.35039 1.1ZM29.2504 1.1L29.2504 7.7L22.6504 7.7L22.6504 1.1L29.2504 1.1ZM15.5004 25.3C19.4428 25.3 22.6504 22.0924 22.6504 18.15L22.6504 8.8L29.2504 8.8L29.2504 18.15C29.2504 25.7317 23.0821 31.9 15.5004 31.9C7.91864 31.9 1.75039 25.7317 1.75039 18.15L1.75039 8.8L8.35039 8.8L8.35039 18.15C8.35039 22.0924 11.558 25.3 15.5004 25.3Z" fill="#DD0017"/>
<path d="M5.60059 6.0501L5.60059 4.9501L6.70059 4.9501C7.00474 4.9501 7.25059 4.70425 7.25059 4.4001C7.25059 4.09595 7.00474 3.8501 6.70059 3.8501L5.60059 3.8501L5.60059 2.7501C5.60059 2.44595 5.35474 2.2001 5.05059 2.2001C4.74644 2.2001 4.50059 2.44595 4.50059 2.7501L4.50059 3.8501L3.40059 3.8501C3.09644 3.8501 2.85059 4.09595 2.85059 4.4001C2.85059 4.70425 3.09644 4.9501 3.40059 4.9501L4.50059 4.9501L4.50059 6.0501C4.50059 6.35425 4.74644 6.6001 5.05059 6.6001C5.35474 6.6001 5.60059 6.35425 5.60059 6.0501Z" fill="#DD0017"/>
<path d="M26.5004 6.0501L26.5004 2.7501C26.5004 2.44595 26.2545 2.2001 25.9504 2.2001C25.6462 2.2001 25.4004 2.44595 25.4004 2.7501L25.4004 6.0501C25.4004 6.35425 25.6462 6.6001 25.9504 6.6001C26.2545 6.6001 26.5004 6.35425 26.5004 6.0501Z" fill="#DD0017"/>
</svg>
