<svg width="145" height="160" viewBox="0 0 145 160" fill="none" xmlns="http://www.w3.org/2000/svg">
<path d="M110.84 134.26C110.069 132.764 108.526 132.204 107.292 132.951C106.829 133.325 106.366 133.512 105.903 133.886L104.361 135.007C104.361 135.007 104.361 135.007 104.207 135.007C103.898 135.194 103.589 135.755 103.435 136.129L99.1157 138.933C94.7962 141.549 93.5621 142.671 89.2426 145.288C88.0085 146.035 86.9286 146.409 86.1573 146.409C85.5402 146.409 85.0775 146.222 84.7689 145.661C83.5348 143.792 85.6945 131.456 85.8488 130.708C86.003 129.961 87.5457 122.11 87.5457 122.11L86.9286 121.176V121.363C86.9286 121.737 85.2317 129.961 85.0774 130.521C84.9232 131.269 82.7635 144.166 84.1519 146.222C84.6147 146.97 85.2317 147.344 86.003 147.344C86.9286 147.344 88.0085 146.97 89.3969 146.035L103.589 136.877C103.589 136.877 103.744 136.69 103.898 136.69C104.052 136.69 104.052 136.503 104.207 136.503C104.361 136.503 104.361 136.503 104.515 136.503C104.669 136.503 105.441 136.503 105.749 136.877C106.058 137.25 106.212 137.624 106.212 137.998C106.366 138.746 106.212 138.933 106.058 139.119V139.306C105.903 139.68 105.132 140.241 104.824 140.428C102.972 141.549 101.121 142.858 99.27 143.979C95.5676 146.409 94.1792 147.344 90.1683 149.96C89.8597 150.147 89.5512 150.334 89.2426 150.521H89.0884C87.7 151.456 86.4659 152.39 84.9232 152.39C84.6147 152.39 84.3061 152.39 83.9976 152.203C80.758 151.456 79.8324 147.531 79.9866 144.353C80.1409 139.306 81.2208 132.204 82.3006 126.97C82.7634 124.54 83.3805 121.923 83.689 119.494C83.8433 118.372 84.1518 117.064 84.3061 115.942C84.4604 115.568 84.4604 115.008 84.6146 114.634L84.4604 112.017L84.3061 112.578C84.3061 112.578 83.072 118.746 82.9177 119.494C82.4549 121.923 81.9921 124.353 81.5293 126.97C80.4494 132.204 79.3696 139.306 79.2153 144.54C79.061 148.091 80.1409 152.39 83.8433 153.138C84.1518 153.138 84.4604 153.325 84.7689 153.325C86.4659 153.325 87.8542 152.39 89.2426 151.456C89.5512 151.269 89.8597 151.082 90.3225 150.708C94.3335 148.278 95.4133 147.344 99.4242 144.914C101.43 143.605 103.435 142.297 105.286 141.176C105.749 141.362 106.058 141.176 106.521 140.989L107.6 140.241C108.217 139.867 108.835 139.306 109.452 138.933C111.149 137.624 111.457 135.755 110.84 134.26ZM106.829 139.493C106.983 138.933 107.292 138.559 106.983 137.624C106.983 137.25 106.675 136.503 106.212 136.129C105.903 135.755 105.132 135.568 104.824 135.568L105.595 135.007C106.212 134.634 106.829 134.26 107.446 133.886C108.372 133.325 109.452 133.699 110.069 134.82C110.531 135.942 110.377 137.25 109.452 137.811C109.452 137.811 109.452 137.811 109.297 137.811C108.68 138.372 107.909 138.746 107.446 139.119L106.829 139.493Z" fill="#E3202C"/>
<path d="M119.48 107.533C120.869 101.178 121.023 95.0102 119.943 89.0289C119.172 85.1038 117.937 81.9262 116.086 79.1225C113.772 76.1319 110.995 74.4497 107.756 74.2628C107.601 74.2628 107.601 74.2628 107.447 74.2628C107.293 74.2628 107.139 74.0759 107.139 73.889C107.139 73.7021 107.293 73.5151 107.447 73.5151H107.601C110.841 73.702 113.772 75.3843 116.24 78.5618C118.246 81.3655 119.48 84.543 120.251 88.6551C121.486 94.8232 121.177 101.365 119.789 107.907L119.48 107.533Z" fill="#010101"/>
<path d="M118.246 114.076C117.012 117.441 115.47 120.431 113.464 123.235C113.464 123.235 110.842 126.599 107.448 128.655C107.293 128.655 107.293 128.842 107.139 128.842C106.985 128.842 106.985 129.029 106.831 129.029C105.134 129.777 102.974 130.711 99.58 130.151C99.4258 130.151 99.2715 129.964 99.2715 129.777C99.2715 129.59 99.4258 129.403 99.58 129.403C102.82 129.964 104.979 129.216 106.522 128.281C106.676 128.095 106.985 128.095 107.139 127.908C110.379 126.039 113.001 122.674 113.001 122.674C115.007 119.87 116.704 116.693 117.938 112.955L118.246 114.076Z" fill="#010101"/>
<path d="M118.556 116.879C117.476 119.122 116.396 121.178 115.008 123.047C115.008 123.047 112.385 126.411 108.992 128.467C108.837 128.467 108.837 128.654 108.683 128.654C108.529 128.654 108.529 128.841 108.375 128.841C106.678 129.589 104.518 130.523 101.124 129.963C100.97 129.963 100.815 129.776 100.815 129.589C100.815 129.402 100.97 129.215 101.124 129.215C104.364 129.776 106.523 129.028 108.066 128.093C108.22 127.907 108.529 127.907 108.683 127.72C111.923 125.851 114.545 122.486 114.545 122.486C116.088 120.43 117.322 118 118.402 115.57L118.556 116.879Z" fill="#010101"/>
<path d="M120.562 109.216C122.259 102.3 122.567 95.5709 121.333 89.0289C120.562 85.1038 119.328 81.9262 117.476 79.1225C115.162 76.1319 110.843 74.4497 107.758 74.2628C107.603 74.2628 107.603 74.2628 107.449 74.2628C107.295 74.2628 107.141 74.0759 107.141 73.889C107.141 73.7021 107.295 73.5151 107.449 73.5151H107.603C110.843 73.702 115.162 75.3843 117.785 78.5618C119.79 81.3655 121.025 84.543 121.796 88.6551C123.03 95.5709 122.722 102.674 120.87 109.776L120.562 109.216Z" fill="#010101"/>
<path d="M144.009 141.178C143.238 139.683 141.695 139.122 140.461 139.87C139.998 140.243 139.535 140.43 139.072 140.804L137.53 141.926C137.53 141.926 137.53 141.926 137.376 141.926C137.067 142.113 136.758 142.673 136.604 143.047L132.285 145.851C127.965 148.468 126.731 149.589 122.412 152.206C121.178 152.954 120.098 153.327 119.326 153.327C118.709 153.327 118.246 153.14 117.938 152.58C116.704 150.711 117.784 146.038 118.555 142.113C118.709 140.991 119.018 140.057 119.172 139.309C119.481 137.253 119.943 135.197 120.406 132.954C122.412 123.047 124.726 109.964 117.629 104.73L116.395 109.964C119.018 112.767 118.246 118.935 117.167 123.982C117.012 125.103 112.847 145.664 112.693 150.897C112.539 154.449 113.618 158.748 117.321 159.495C117.629 159.495 117.938 159.682 118.246 159.682C119.943 159.682 121.332 158.748 122.72 157.813C123.029 157.626 123.337 157.439 123.8 157.066C127.811 154.636 128.891 153.701 132.902 151.271C134.907 149.963 136.913 148.655 138.764 147.533C139.227 147.72 139.535 147.533 139.998 147.346L141.078 146.598C141.695 146.225 142.312 145.664 142.929 145.29C144.318 144.729 144.626 142.86 144.009 141.178ZM139.998 146.598C140.152 146.038 140.461 145.664 140.152 144.729C140.152 144.356 139.844 143.608 139.381 143.234C139.072 142.86 138.301 142.673 137.993 142.673L138.764 142.113C139.381 141.739 139.998 141.365 140.615 140.991C141.541 140.43 142.621 140.804 143.238 141.926C143.7 143.047 143.546 144.356 142.621 144.916C142.621 144.916 142.621 144.916 142.466 144.916C141.849 145.477 141.078 145.851 140.615 146.225L139.998 146.598ZM120.098 109.216C123.029 114.823 121.178 124.917 119.481 132.954C119.018 135.197 118.555 137.253 118.246 139.496C118.092 140.243 117.938 141.178 117.784 142.299C116.858 146.598 115.932 151.271 117.321 153.514C117.784 154.262 118.401 154.636 119.172 154.636C120.098 154.636 121.178 154.262 122.566 153.327L136.758 144.169C136.758 144.169 136.913 143.982 137.067 143.982C137.221 143.982 137.221 143.795 137.376 143.795C137.53 143.795 137.53 143.795 137.684 143.795C137.838 143.795 138.61 143.795 138.918 144.169C139.227 144.542 139.381 144.916 139.381 145.29C139.535 146.038 139.381 146.225 139.227 146.412V146.598C139.072 146.972 138.301 147.533 137.993 147.72C136.141 148.841 134.29 150.15 132.439 151.271C128.737 153.701 127.348 154.636 123.337 157.253C123.029 157.439 122.72 157.626 122.412 157.813H122.257C120.869 158.748 119.635 159.682 118.092 159.682C117.784 159.682 117.475 159.682 117.167 159.495C113.927 158.748 113.001 154.823 113.156 151.645C113.31 146.598 117.629 124.917 117.629 124.917C118.555 120.618 119.326 114.636 117.629 111.646C117.321 111.085 116.858 110.524 116.395 109.964L117.321 106.038C118.555 106.786 119.481 107.908 120.098 109.216Z" fill="#E3202C"/>
<path d="M104.362 128.655C104.207 128.655 104.207 128.841 104.053 128.841C102.356 129.589 100.196 130.524 96.6483 129.963C96.4941 129.963 96.3398 129.776 96.3398 129.589C96.3398 129.402 96.4941 129.215 96.6483 129.215C100.042 129.776 102.048 129.028 103.745 128.094C103.899 127.907 104.207 127.907 104.362 127.72C107.756 125.851 110.224 122.486 110.378 122.299C112.846 118.935 114.543 115.197 115.932 110.711C118.246 103.047 118.709 95.384 117.32 88.2813C116.549 84.1693 115.315 80.9917 113.309 78.375C110.841 75.3844 108.064 73.7021 104.979 73.5152C104.825 73.5152 104.824 73.5152 104.67 73.5152C104.516 73.5152 104.362 73.3283 104.362 73.1414C104.362 72.9545 104.516 72.7676 104.67 72.7676C104.67 72.7676 104.825 72.7676 104.979 72.7676C108.218 72.9545 111.304 74.6367 113.772 78.0011C115.777 80.8048 117.166 84.1693 117.937 88.2813C119.326 95.7579 118.863 103.421 116.549 111.272C115.16 115.944 113.309 119.683 110.841 123.234C110.841 123.234 108.218 126.785 104.67 128.655C104.516 128.655 104.362 128.655 104.362 128.655Z" fill="#010101"/>
<path d="M102.82 128.656C99.2714 130.525 95.4147 130.525 92.3294 128.469C90.4782 127.347 89.0898 125.478 87.7014 123.235C86.1587 120.245 84.9246 116.693 84.4618 112.394C84.1533 109.404 83.999 105.852 84.1533 103.983C84.3076 102.114 84.6161 98.7496 85.2331 95.9459C86.313 90.8992 88.01 86.6002 90.1697 82.675C92.3294 79.1237 94.6434 76.5069 97.266 74.8247C100.814 72.5817 104.208 72.3948 107.448 74.077C109.144 75.0116 111.15 76.6938 112.23 78.376C114.081 80.9928 115.315 84.1703 116.086 88.0955C117.166 93.516 117.166 98.5626 116.241 104.918C115.315 110.525 113.618 115.572 111.15 119.871C108.99 123.609 106.676 126.413 103.899 128.282C103.591 128.095 103.282 128.469 102.82 128.656ZM84.9246 112.394C85.5417 116.506 86.6216 120.058 88.01 122.861C89.2441 125.104 90.7867 126.787 92.4837 127.908C95.8775 130.151 99.8884 129.964 103.591 127.347C106.213 125.665 108.527 122.861 110.687 119.31C113.155 115.011 114.852 110.151 115.778 104.544C116.858 98.3757 116.704 93.3291 115.624 88.0955C114.852 84.3572 113.618 81.3666 111.767 78.7499C110.687 77.2545 108.836 75.5723 107.139 74.6378C103.899 72.9555 100.968 73.1425 97.4202 75.1985C94.7977 76.8807 92.4837 79.3106 90.4782 82.8619C88.1642 86.6002 86.6216 90.8992 85.5417 95.9459C84.9246 98.5626 84.6161 101.74 84.4618 103.796C84.6161 105.665 84.6161 109.217 84.9246 112.394C84.9246 112.207 84.9246 112.394 84.9246 112.394Z" fill="#010101"/>
<path d="M102.047 127.533C98.8078 129.215 95.5682 129.215 92.6372 127.159C90.9402 126.038 89.5518 124.355 88.3177 122.112C86.775 119.309 85.8494 115.944 85.2323 112.019V111.832C84.9238 108.842 84.9238 105.664 84.9238 103.608C85.0781 101.739 85.3866 98.7483 86.0037 96.1315C87.0835 91.2718 88.6262 87.3466 90.7859 83.6083C92.7914 80.2439 94.9511 77.814 97.5737 76.1318C100.968 73.8888 104.207 73.7019 107.292 75.3842C108.835 76.1318 110.069 77.4402 111.303 79.1224C113 81.5523 114.234 84.5429 115.006 88.2812C116.086 93.3278 116.086 98.7483 115.16 104.543C114.234 109.963 112.692 114.449 110.378 118.748C108.372 122.299 106.058 124.916 103.59 126.598C102.819 126.972 102.356 127.159 102.047 127.533ZM98.4993 76.5056C98.1907 76.6925 97.8822 76.8795 97.5737 77.0664C95.1054 78.5617 92.9457 80.9916 91.0945 84.356C88.9348 87.9073 87.5464 92.0194 86.4665 96.6923C86.0037 99.1221 85.5409 102.3 85.5409 103.982C85.3866 105.851 85.3866 109.029 85.8494 112.019V112.206C86.3122 116.131 87.3921 119.309 88.7805 121.926C90.0146 124.169 91.2487 125.664 92.9457 126.785C96.031 128.841 99.4249 128.654 102.973 126.411C105.441 124.729 107.601 122.299 109.606 118.748C111.92 114.636 113.463 110.15 114.389 104.916C115.314 99.3091 115.314 93.8886 114.234 89.0288C113.463 85.4775 112.383 82.6738 110.686 80.2439C109.606 78.5617 108.372 77.4402 106.984 76.6925C104.207 74.8234 101.43 75.0103 98.4993 76.5056Z" fill="#010101"/>
<path d="M100.042 106.036C99.2708 106.41 98.3452 106.41 97.5739 105.849C97.1111 105.663 96.8026 105.102 96.4941 104.728C96.1855 104.167 96.0312 103.42 95.877 102.672C95.877 102.111 95.877 101.55 95.877 101.177C95.877 100.803 96.0312 100.242 96.0312 99.8682C96.1855 98.9337 96.494 98.186 96.9568 97.4384C97.4196 96.6907 97.8824 96.3169 98.3452 95.943C99.1166 95.3823 100.042 95.3823 100.813 95.7561C101.122 95.9431 101.585 96.3169 101.739 96.6907C102.048 97.2514 102.356 97.8122 102.51 98.5598C102.665 99.4944 102.665 100.616 102.51 101.737C102.356 102.672 102.048 103.606 101.585 104.354C101.122 105.102 100.659 105.663 100.196 106.036C100.196 105.849 100.042 105.849 100.042 106.036ZM98.808 96.3169C98.808 96.3169 98.6538 96.3169 98.6538 96.5038C98.191 96.8776 97.7281 97.2514 97.4196 97.8122C97.1111 98.3729 96.8026 99.1206 96.6483 99.8682C96.494 100.242 96.4941 100.803 96.4941 101.177C96.4941 101.55 96.4941 102.111 96.4941 102.672C96.6483 103.42 96.8026 103.98 97.1111 104.541C97.4196 104.915 97.5739 105.289 97.8824 105.476C98.4995 105.849 99.2708 105.849 100.042 105.476C100.505 105.102 100.968 104.728 101.276 104.167C101.739 103.42 101.893 102.672 102.048 101.737C102.202 100.803 102.202 99.8682 102.048 98.9337C101.893 98.3729 101.739 97.8122 101.431 97.2514C101.276 96.8776 100.968 96.6907 100.659 96.5038C99.8879 95.9431 99.4251 95.9431 98.808 96.3169ZM99.2708 104.167C98.9623 104.354 98.6538 104.354 98.3452 104.167C98.191 103.98 98.0367 103.793 97.8824 103.606C97.7282 103.233 97.5739 102.859 97.5739 102.298C97.5739 101.924 97.5739 101.55 97.5739 101.177C97.5739 100.99 97.5739 100.429 97.7282 100.242C97.8824 99.6813 98.0367 99.1206 98.3452 98.5598C98.6538 98.186 98.808 97.8122 99.1166 97.6253C99.4251 97.4384 99.7336 97.4384 100.042 97.6253C100.196 97.6253 100.351 97.8122 100.505 97.9991C100.659 98.3729 100.814 98.7467 100.968 99.1206C101.122 99.8682 101.122 100.429 100.968 101.364C100.814 102.111 100.659 102.672 100.351 103.233C100.042 103.42 99.7336 103.793 99.2708 104.167C99.4251 103.98 99.4251 103.98 99.2708 104.167ZM99.4251 98.186C99.1166 98.3729 98.9623 98.5598 98.808 98.9337C98.4995 99.3075 98.3452 99.8682 98.1909 100.429C98.1909 100.803 98.0367 101.177 98.0367 101.364C98.0367 101.55 98.0367 101.924 98.0367 102.298C98.0367 102.672 98.191 103.046 98.3452 103.233C98.4995 103.42 98.4995 103.42 98.6538 103.606C98.808 103.606 98.808 103.793 99.1166 103.606C99.2708 103.42 99.5793 103.233 99.7336 102.859C100.042 102.298 100.196 101.924 100.351 101.177C100.505 100.429 100.505 99.8682 100.351 99.3075C100.351 98.9337 100.196 98.7467 100.042 98.5598L99.8879 98.3729C99.7336 97.9991 99.7336 97.9991 99.4251 98.186Z" fill="#010101"/>
<path d="M44.969 150.896C44.3519 150.896 43.7349 150.896 43.1178 150.709L6.71081 140.055C2.69987 138.934 0.231594 133.887 1.15719 128.84L23.5259 8.84204C24.4515 3.9823 27.9996 0.617866 32.1648 0.804779L67.9548 3.23465C70.423 3.42156 72.5828 4.91687 74.1254 7.15982C75.6681 9.58969 76.2852 12.7672 75.6681 15.7578L53.2994 142.672C52.8366 145.476 51.4482 147.718 49.4427 149.214C47.9001 150.335 46.5117 150.896 44.969 150.896ZM31.5478 1.73934C27.9996 1.73934 24.9143 4.72995 24.143 9.02895L1.77428 129.027C1.00294 133.513 3.16268 137.999 6.86509 139.12L43.272 149.588C45.2775 150.148 47.283 149.775 48.9799 148.466C50.8311 147.158 51.911 144.915 52.3738 142.485L74.7425 15.5709C75.2053 12.7672 74.7425 9.96352 73.3541 7.72056C71.9657 5.66452 69.9602 4.35613 67.8005 4.16921L32.0106 1.73934C31.8563 1.73934 31.702 1.73934 31.5478 1.73934Z" fill="#010101"/>
<path d="M41.7291 149.962C41.112 149.962 40.6493 149.962 40.0322 149.775C39.8779 149.775 39.7236 149.401 39.7236 149.214C39.7236 149.027 40.0322 148.84 40.1864 148.84C42.0376 149.401 43.8888 149.027 45.5858 147.719C47.437 146.223 48.8254 143.793 49.2882 141.177L71.6569 14.2627C72.274 10.7114 71.9654 8.0946 70.8856 6.41239C69.96 4.91708 68.1087 4.16943 65.7947 3.98252C65.6405 3.98252 65.4862 3.7956 65.4862 3.60869C65.4862 3.42178 65.6405 3.23486 65.7947 3.23486C68.4173 3.23486 70.2685 4.16943 71.5026 6.03856C72.7367 7.90769 73.0453 10.8983 72.4282 14.6366L50.0595 141.551C49.5967 144.541 48.054 147.158 45.8943 148.653C44.6602 149.401 43.2718 149.962 41.7291 149.962Z" fill="#010101"/>
<path d="M53.1451 7.72125L41.2665 6.97361C40.8037 6.97361 40.6494 6.59978 40.6494 6.03905C40.8037 5.47832 41.1122 5.10449 41.575 5.10449L53.4536 5.85214C53.9164 5.85214 54.0706 6.22596 54.0706 6.7867C53.9164 7.34743 53.6079 7.72125 53.1451 7.72125Z" fill="#010101"/>
<path d="M53.1453 8.09473L41.1126 7.34707C40.804 7.34707 40.4955 7.16016 40.3412 6.78633C40.187 6.4125 40.0327 6.03867 40.1869 5.66484C40.3412 4.91719 40.9583 4.35645 41.4211 4.35645L53.2996 5.1041C53.6081 5.1041 53.9167 5.29102 54.0709 5.66484C54.2252 6.03867 54.3795 6.4125 54.2252 6.78633C54.2252 7.7209 53.7624 8.09473 53.1453 8.09473ZM53.1453 7.16016C53.2996 7.16016 53.6081 6.97324 53.6081 6.59941C53.6081 6.4125 53.6081 6.4125 53.6081 6.22559L53.4539 6.03867L41.5754 5.29102C41.4211 5.29102 41.1126 5.47793 41.1126 5.85176C41.1126 6.03867 41.1126 6.03867 41.1126 6.22559L41.2668 6.4125L53.1453 7.16016Z" fill="#010101"/>
<path d="M28.3083 139.494C28.154 139.494 27.8455 139.494 27.6912 139.494L18.898 137.064C18.2809 136.877 17.6639 136.316 17.2011 135.569C16.8925 134.821 16.7383 134.073 16.8926 133.139C17.0468 132.391 17.5096 131.644 18.1267 131.083C18.7437 130.709 19.5151 130.522 20.1321 130.709L28.9253 133.139C29.5424 133.326 30.1595 133.887 30.6223 134.634C30.9308 135.382 31.0851 136.13 30.9308 137.064C30.7765 137.812 30.3137 138.559 29.6967 139.12C29.2339 139.307 28.7711 139.494 28.3083 139.494ZM19.5151 131.457C19.2065 131.457 18.898 131.644 18.5895 131.831C18.1267 132.204 17.8181 132.578 17.8181 133.326C17.5096 134.634 18.281 135.756 19.2066 136.13L27.9998 138.559C28.4626 138.746 28.9253 138.559 29.3881 138.186C29.8509 137.812 30.1595 137.438 30.1595 136.69C30.468 135.382 29.6967 134.26 28.7711 133.887L19.9779 131.457C19.8236 131.457 19.6693 131.457 19.5151 131.457Z" fill="#010101"/>
<path d="M84.461 80.9902C84.3067 80.9902 84.3067 80.8033 84.1525 80.8033C77.9818 72.5791 70.577 73.5137 70.4227 73.5137C70.1142 73.5137 69.6514 73.3268 69.6514 72.766C69.6514 72.3922 69.8057 71.8315 70.2685 71.8315C70.577 71.8315 78.5988 70.71 85.2323 79.6818C85.5408 80.0556 85.5408 80.6164 85.2323 80.8033C84.9238 81.1771 84.7695 81.1771 84.461 80.9902Z" fill="black"/>
<path d="M82.6096 80.4295L84.9236 77.8127C85.2321 77.4388 85.6949 77.6257 85.8491 78.1865L86.929 82.2986C87.0833 82.8593 86.6205 83.4201 86.1577 83.2332L82.7638 81.7379C82.4553 81.364 82.3011 80.8033 82.6096 80.4295Z" fill="black"/>
</svg>
