<svg width="40" height="40" viewBox="0 0 40 40" fill="none" xmlns="http://www.w3.org/2000/svg">
<ellipse cx="22.8763" cy="19.2423" rx="3.54908" ry="5.5" transform="rotate(11.7448 22.8763 19.2423)" fill="white"/>
<path d="M12.91 10.99C13.0437 11.1249 13.1642 11.2723 13.27 11.43C13.6738 12.0672 13.9237 12.7896 14 13.54C14.1332 14.7128 13.9929 15.9005 13.59 17.01C13.2413 18.1145 12.6695 19.1355 11.91 20.01C11.3716 20.659 10.6859 21.1698 9.91 21.5C9.33174 21.7402 8.69763 21.8129 8.08 21.71" stroke="white" stroke-width="0.5" stroke-linecap="round" stroke-linejoin="round"/>
<path d="M7.74 21.83C8.4752 22.0173 9.24108 22.0514 9.99 21.93L10.18 21.83C10.7834 21.6082 11.3473 21.2908 11.85 20.89C12.5695 20.2513 13.1601 19.4808 13.59 18.62C14.3717 17.1833 14.7191 15.5505 14.59 13.92C14.5305 13.1194 14.2727 12.3462 13.84 11.67C13.5863 11.2841 13.2433 10.965 12.84 10.74V10.74" stroke="white" stroke-width="0.5" stroke-linecap="round" stroke-linejoin="round"/>
<path d="M7.6 22.83C7.19 22.48 6.96 22.26 6.6 21.94C6.42869 21.7661 6.27153 21.5789 6.13 21.38" stroke="#FD0000" stroke-width="0.5" stroke-linecap="round" stroke-linejoin="round"/>
<path d="M7.57 21.69C7.57 21.69 8.05 22.05 8.22 22.2C8.23108 22.2047 8.24298 22.2071 8.255 22.2071C8.26702 22.2071 8.27892 22.2047 8.29 22.2C8.34105 22.1964 8.39229 22.2034 8.44049 22.2206C8.48868 22.2379 8.53278 22.2649 8.57 22.3L9.31 22.9C9.38292 22.9598 9.43925 23.0373 9.47357 23.1251C9.5079 23.2129 9.51907 23.3081 9.50602 23.4015C9.49296 23.4949 9.45612 23.5833 9.39903 23.6584C9.34194 23.7334 9.26652 23.7925 9.18 23.83C9.0764 23.8992 8.9546 23.9362 8.83 23.9362C8.7054 23.9362 8.5836 23.8992 8.48 23.83L7.69 23.17C7.66108 23.1433 7.63811 23.1108 7.62261 23.0746C7.6071 23.0384 7.59939 22.9994 7.6 22.96C7.6323 22.7941 7.71222 22.6412 7.83 22.52C7.95759 22.3848 8.12035 22.2878 8.3 22.24" stroke="#FD0000" stroke-width="0.5" stroke-linecap="round" stroke-linejoin="round"/>
<path d="M8.1 16.29C8.02949 16.3094 7.95531 16.3114 7.88386 16.2957C7.81242 16.28 7.74588 16.2472 7.69 16.2C7.62041 16.144 7.56549 16.0719 7.53 15.99C7.48353 15.8827 7.4597 15.7669 7.46 15.65C7.45171 15.5669 7.45171 15.4831 7.46 15.4C7.47767 15.3282 7.50108 15.258 7.53 15.19C7.5881 15.0543 7.67315 14.9318 7.78 14.83C7.85921 14.7433 7.95893 14.678 8.07 14.64C8.13968 14.6155 8.21423 14.6082 8.28733 14.6187C8.36044 14.6291 8.42995 14.657 8.49 14.7C8.55168 14.7452 8.60285 14.8032 8.64 14.87C8.69674 14.9679 8.7309 15.0772 8.74 15.19C8.75137 15.3532 8.7275 15.5169 8.67 15.67C8.62068 15.8143 8.54242 15.947 8.44 16.06C8.36167 16.15 8.26193 16.2188 8.15 16.26L8.1 16.29Z" stroke="white" stroke-width="0.5" stroke-miterlimit="10"/>
<path d="M9.24 8.00999L10 8.44999C11.2067 9.11627 12.2356 10.0629 13 11.21C13.5666 12.3521 13.7956 13.6323 13.66 14.9C13.5551 16.5433 12.92 18.1083 11.85 19.36C11.3201 20.0398 10.634 20.5818 9.85 20.94" stroke="#FD0000" stroke-width="0.5" stroke-linecap="round" stroke-linejoin="round"/>
<path d="M10.68 9.94L8.92 8.83" stroke="#FD0000" stroke-width="0.5" stroke-linecap="round" stroke-linejoin="round"/>
<path d="M8.98 8.94999C8.8967 8.95956 8.81254 8.94202 8.74 8.89999L7.99 8.41999C7.9179 8.38254 7.85431 8.33059 7.80322 8.26742C7.75213 8.20424 7.71464 8.13119 7.6931 8.05285C7.67156 7.97451 7.66643 7.89257 7.67804 7.81215C7.68964 7.73174 7.71773 7.65459 7.76055 7.58553C7.80336 7.51648 7.85997 7.45701 7.92684 7.41086C7.99371 7.36471 8.06939 7.33286 8.14913 7.31732C8.22888 7.30178 8.31098 7.30288 8.39028 7.32054C8.46959 7.33821 8.54439 7.37207 8.61 7.41999L9.38 7.88999C9.4178 7.90546 9.45124 7.92995 9.47739 7.96133C9.50354 7.99271 9.5216 8.03002 9.53 8.06999C9.53287 8.08989 9.53287 8.1101 9.53 8.12999C9.4378 8.05722 9.32683 8.01214 9.21 7.99999C9.09486 8.0121 8.98471 8.0534 8.89 8.11999C8.8092 8.19233 8.75031 8.28587 8.72 8.38999C8.70436 8.53415 8.73975 8.67922 8.82 8.79999C8.86767 8.85571 8.92133 8.90601 8.98 8.94999V8.94999Z" stroke="#FD0000" stroke-width="0.5" stroke-miterlimit="10"/>
<path d="M3.96 15.45C4.07922 14.8976 4.24309 14.3558 4.45 13.83C4.82662 12.8604 5.37924 11.9687 6.08 11.2C6.62485 10.5726 7.31009 10.0826 8.08 9.77C8.49151 9.5902 8.94068 9.51353 9.38853 9.54664C9.83639 9.57975 10.2694 9.72164 10.65 9.96C11.0783 10.2185 11.452 10.5582 11.75 10.96C12.1605 11.6094 12.4139 12.3455 12.49 13.11C12.6235 14.3 12.4797 15.5048 12.07 16.63C11.7089 17.7354 11.1272 18.7561 10.36 19.63C9.80477 20.2917 9.09811 20.8097 8.3 21.14C7.81996 21.359 7.29146 21.4501 6.7658 21.4046C6.24015 21.359 5.7352 21.1783 5.3 20.88C4.86796 20.5529 4.52426 20.1233 4.3 19.63C3.95468 18.8834 3.77068 18.0725 3.76 17.25V17.25C3.76671 16.6448 3.83371 16.0419 3.96 15.45V15.45Z" stroke="white" stroke-width="0.5" stroke-linecap="round" stroke-linejoin="round"/>
<path d="M5.87 21.19C6.69739 21.6077 7.64037 21.7379 8.55 21.56L8.72 21.51C9.33747 21.2717 9.91174 20.9339 10.42 20.51C11.1446 19.8711 11.7417 19.1009 12.18 18.24C12.9699 16.7774 13.3173 15.1166 13.18 13.46C13.1195 12.6488 12.8583 11.8653 12.42 11.18C11.8544 10.4091 11.0313 9.86632 10.1 9.64999" stroke="white" stroke-width="0.5" stroke-linecap="round" stroke-linejoin="round"/>
<path d="M24.56 34.83L15.66 32.76C15.4374 32.7082 15.2272 32.613 15.0413 32.4799C14.8555 32.3468 14.6977 32.1784 14.577 31.9843C14.4563 31.7902 14.375 31.5743 14.3377 31.3487C14.3005 31.1232 14.3081 30.8926 14.36 30.67L19.83 7.11999C19.9414 6.6781 20.2005 6.28751 20.5642 6.01291C20.9279 5.73831 21.3745 5.59616 21.83 5.60999L30.58 6.08999C30.8598 6.11304 31.1315 6.19472 31.3777 6.32973C31.6238 6.46473 31.8387 6.65004 32.0085 6.87359C32.1783 7.09714 32.2991 7.35392 32.3631 7.62725C32.4271 7.90057 32.4329 8.1843 32.38 8.45999L26.9 33.31C26.7849 33.8183 26.4759 34.2616 26.0389 34.5455C25.6018 34.8294 25.0712 34.9315 24.56 34.83Z" stroke="white" stroke-width="0.5" stroke-miterlimit="10" stroke-linecap="round"/>
<path d="M30.18 6.03C31.98 6.03 31.86 7.41 31.7 8.14L26.18 33.03C26.1308 33.2881 26.0313 33.5339 25.887 33.7535C25.7428 33.9731 25.5567 34.1621 25.3394 34.3098C25.1221 34.4574 24.8778 34.5608 24.6206 34.6141C24.3633 34.6673 24.098 34.6693 23.84 34.62" stroke="white" stroke-width="0.5" stroke-miterlimit="10" stroke-linecap="round"/>
<path d="M16.81 14.83C18.4273 15.0673 19.9433 15.7611 21.18 16.83" stroke="#FD0000" stroke-width="0.5" stroke-miterlimit="10" stroke-linecap="round"/>
<path d="M20.45 16.94L21.24 16.15C21.2653 16.1264 21.2959 16.1094 21.3293 16.1006C21.3627 16.0917 21.3978 16.0912 21.4314 16.0991C21.465 16.107 21.4962 16.1231 21.5221 16.1459C21.548 16.1688 21.5679 16.1976 21.58 16.23L21.97 17.41C21.9804 17.4461 21.981 17.4843 21.9716 17.5206C21.9622 17.557 21.9433 17.5902 21.9167 17.6167C21.8902 17.6433 21.857 17.6622 21.8206 17.6716C21.7843 17.6809 21.7461 17.6804 21.71 17.67L20.53 17.28C20.4976 17.2679 20.4688 17.248 20.4459 17.2221C20.4231 17.1962 20.407 17.165 20.3991 17.1314C20.3912 17.0977 20.3917 17.0627 20.4006 17.0293C20.4094 16.9959 20.4264 16.9652 20.45 16.94V16.94Z" fill="#FD0000"/>
<rect x="0.5" y="0.5" width="38.5" height="38.5" rx="4.75" stroke="white" stroke-width="0.5"/>
</svg>
