<?xml version="1.0" encoding="utf-8"?>
<!-- Generator: Adobe Illustrator 21.0.0, SVG Export Plug-In . SVG Version: 6.00 Build 0)  -->
<svg version="1.1" id="Layer_1" xmlns="http://www.w3.org/2000/svg" xmlns:xlink="http://www.w3.org/1999/xlink" x="0px" y="0px"
	 viewBox="0 0 706.8 217.4" style="enable-background:new 0 0 706.8 217.4;" xml:space="preserve">
<style type="text/css">
	.st0{fill:#DD0017;}
	.st1{fill:#FFFFFF;}
</style>
<title>Logo</title>
<path class="st0" d="M694.2,112.6c0-3.4,2.7-6.2,6.1-6.2c0,0,0,0,0,0h0.1c3.5-0.1,6.3,2.6,6.4,6.1c0,0,0,0.1,0,0.1
	c-0.1,3.4-2.9,6.1-6.3,6c0,0-0.1,0-0.1,0c-3.3,0.1-6.1-2.5-6.2-5.8C694.2,112.7,694.2,112.7,694.2,112.6"/>
<path class="st0" d="M564.8,110.7v4.5c0,0.4-0.2,0.8-0.6,1c-2.4,1-5,1.5-7.6,1.4c-7.7,0-11.5-4.4-11.5-13.1l0.1-26.9h-6.3
	c-0.4-0.1-0.7-0.4-0.6-0.8l0,0v-5.3c0-0.4,0.2-0.6,0.7-0.6h6.3c0.2-6.6,0.3-14,0.8-15.8c0.1-0.5,0.3-0.8,0.6-0.8l7.1-1
	c0.4-0.1,0.6,0,0.6,0.4c-0.3,3.6-0.3,11.5-0.3,17.3h10c0.3,0,0.6,0.1,0.6,0.4c0,0,0,0,0,0V77c0,0.3-0.1,0.6-0.4,0.6c0,0,0,0,0,0
	h-10.3l-0.2,26.3c0,4.8,2,7.2,5.8,7.2c1.6-0.1,3.1-0.4,4.6-0.9C564.6,110.1,564.8,110.2,564.8,110.7"/>
<path class="st0" d="M574.5,70.9h8.6v46.7h-8.6V70.9z M572.7,53.7c-0.1-3.3,2.5-6.2,5.8-6.3c3.3-0.1,6.2,2.5,6.3,5.8
	c0.1,3.3-2.5,6.2-5.8,6.3c-0.1,0-0.2,0-0.3,0C575.4,59.5,572.7,56.9,572.7,53.7C572.7,53.7,572.7,53.7,572.7,53.7"/>
<path class="st0" d="M594.8,94.2c0-14.8,11.5-24.3,24.8-24.3c6.6-0.1,13,2.6,17.6,7.4l-5.4,5.7c-3.1-3.2-7.4-5-11.8-4.9
	c-9.1,0-16.4,6.5-16.4,16.1s7.3,16.1,16.4,16.1c4.5,0.1,8.7-1.7,11.8-4.9l5.4,5.7c-4,4.6-10.3,7.4-17.6,7.4
	C606.3,118.5,594.8,109,594.8,94.2"/>
<polygon class="st0" points="677.8,117.6 656.5,94.8 656.5,117.6 648,117.6 648,45.4 656.5,45.4 656.5,87.4 672.5,70.9 684.5,70.9 
	664.7,91.1 689.3,117.6 "/>
<path class="st0" d="M511.5,118.5c13.1,0,21.1-9,21.1-19c0-9.1-6.4-15.1-17.1-17.8l-8.2-2c-8.4-2-9.2-6.7-9.2-8.9
	c0-6.3,5.9-10.2,12.2-10.2c6.8,0,12,4.4,12,10.8h8.2c0-11.4-8.9-18.6-20-18.6s-20.8,7-20.8,18.1c0,5.2,2.1,13.2,15.5,16.5l8.2,2
	c5.3,1.4,10.9,4.2,10.9,10.4c0,5.7-4.5,10.9-12.7,10.9c-8.4,0-13.8-5.8-14-11.4h-8.2C489.3,109.2,498.2,118.5,511.5,118.5"/>
<polygon class="st1" points="329.9,117.6 338.9,117.6 338.9,57.8 359.7,57.8 359.7,49.5 309.1,49.5 309.1,57.8 329.9,57.8 "/>
<path class="st1" d="M403.2,91.1v26.5h8.6v-27c0.1-13.1-7.1-20.7-18.5-20.7c-5,0-12.5,2.4-15.3,8.1V45.4h-8.6v72.2h8.6V92.3
	c0-10.1,7.7-13.8,14.1-13.8S403.2,83.3,403.2,91.1z"/>
<path class="st1" d="M446.7,69.9c-13.1,0-23.7,9.4-23.7,24.2s10.5,24.5,23.7,24.5c8.9,0,17.2-4.2,21.2-12.3l-7.5-3
	c-2.6,4.7-7.8,7.1-13.4,7.1c-7.9,0-13.8-4.1-15.1-12.4h37.5c0.1-1.3,0.2-2.6,0.2-3.9C469.6,79.3,459.8,69.9,446.7,69.9z M431.9,90.5
	c1.4-8.4,6.9-12.4,14.7-12.4c7.6,0,13.2,4.4,14.3,12.4H431.9z"/>
<path class="st1" d="M297.3,138.6c6.7,0,13.1,3,17.4,8.1l5.9-5.1c-5.8-6.9-14.3-10.8-23.3-10.7c-17.6,0-31.5,14.4-31.5,32.2
	s14,32.2,31.5,32.2c9,0.1,17.5-3.8,23.3-10.7l-5.9-5.1c-4.3,5.1-10.7,8.1-17.4,8.1c-13.1,0-23.3-11.1-23.3-24.6
	S284.3,138.6,297.3,138.6z"/>
<path class="st1" d="M352.4,147c-13.1,0-24.1,9.4-24.1,24.2s10.9,24.5,24.1,24.5s24.2-9.7,24.2-24.5S365.5,147,352.4,147z
	 M352.4,187.5c-8.4,0-15.4-6.6-15.4-16.3s7-16,15.4-16s15.6,6.4,15.6,16S360.9,187.5,352.4,187.5z"/>
<path class="st1" d="M443.2,147c-4.6,0-11.9,1.4-16.1,9.7c-2.7-6.2-8.5-9.7-15.2-9.7c-6.5,0-12.4,3.1-14.8,8.1V148h-8.6v46.7h8.7
	v-25.3c0-9.9,6.5-14,13-14c6.1,0,10.4,4.9,10.4,12.8v26.5h8.6v-23.8l0.1,0.4c-0.8-9,4.1-16,12.3-15.9c6.7,0,10.9,5,10.9,12.8v26.5
	h8.6v-27C461.1,154.6,454.8,147,443.2,147z"/>
<path class="st1" d="M500.3,147c-6.6,0-13.3,3-16.4,8.4V148h-8.6v69.4h8.6v-30c3.1,5.5,9.6,8.3,16.5,8.3c12.7,0,23-9.5,23-24.3
	S513,147,500.3,147z M499.6,187.5c-8.7,0-15.6-7.1-15.6-15.8c0-0.1,0-0.2,0-0.2c0-10,7.4-16.3,15.6-16.3c8.5,0,15.2,7,15.2,16.3
	S508.1,187.5,499.6,187.5L499.6,187.5z"/>
<path class="st1" d="M571.8,155.3c-3.1-5.5-9.6-8.3-16.5-8.3c-12.7,0-23,9.5-23,24.3s10.5,24.4,23.1,24.4c6.6,0,13.3-3,16.4-8.4v7.4
	h8.6V148h-8.6L571.8,155.3z M556.1,187.5c-8.4,0-15.1-7-15.1-16.3s6.7-16,15.1-16c8.7,0,15.7,7,15.7,15.7c0,0.1,0,0.2,0,0.3
	C571.8,181.3,564.4,187.5,556.1,187.5L556.1,187.5z"/>
<path class="st1" d="M619.3,147c-5,0-12.5,2.4-15.3,8.1V148h-8.6v46.7h8.6v-25.3c0-10.1,7.7-13.8,14.1-13.8s11.1,4.8,11.1,12.6v26.5
	h8.6v-27C637.9,154.6,630.7,147,619.3,147z"/>
<polygon class="st1" points="682.5,148 668.5,182.4 654.5,148 645.3,148 663.7,193.4 654.1,217.4 663.2,217.4 691.8,148 "/>
<path class="st1" d="M302.6,12.4c-4-7.1-20.1-15.1-82.5,9.8l-10-17.6c-3.5-6.2-15.1-6.2-34.4,0.1c-17.7,5.7-39.6,16-61.7,28.9
	S72,60.7,58.3,73.4c-15,13.8-20.8,24-17.3,30.2l10,17.6c-52.5,42.3-53.6,60.4-49.6,67.5c5.8,10.1,26.5,9.4,59.5-1.4
	c7.1-2.3,14.8-5.1,23-8.4l11.2,19.6c1.8,3.1,5.6,4.7,11.2,4.7s13.6-1.6,23.2-4.7c17.7-5.7,39.6-16,61.7-28.9
	c22.1-12.9,41.9-27.1,55.6-39.7c15-13.8,20.8-24,17.3-30.2L253,80c6.8-5.5,13.1-10.8,18.7-16C289.7,47.4,309.8,25.1,302.6,12.4z
	 M98.2,172.9l4.2-1.9l0.6-0.3c2.4-1.1,4.9-2.2,7.4-3.4c1.8-0.8,3.6-1.7,5.5-2.6c2.1-1,4.3-2.1,6.5-3.1l1.6-0.8
	c0.8-0.4,1.5-0.8,2.3-1.1s1.4-0.7,2.2-1.1c4-2,8.1-4.1,12.2-6.3l4.3-2.3c3.1-1.7,6.2-3.4,9.4-5.1l4.1-2.3c4.8-2.7,9.1-5.1,13.2-7.5
	c3.2-1.9,6.5-3.8,9.6-5.7l2.2-1.4c3-1.9,6.1-3.7,9.1-5.6l0.3-0.2c3.3-2.1,6.5-4.1,9.8-6.2l1-0.7c16.5-10.8,31.7-21.6,45.2-32.2
	l10.8,18.9c1.5,2.7-1.9,10.5-16.3,23.7c-13.5,12.4-33,26.3-54.7,39.1c-21.7,12.8-43.4,22.9-60.7,28.5c-18.6,6-26.9,5.1-28.4,2.4
	L88.7,177C91.8,175.7,95,174.4,98.2,172.9z M249,76.5l-1,0.8c-13.6,10.9-29.2,22.1-46.4,33.3c-0.3,0.2-0.7,0.4-1,0.6
	c-6.5,4.3-13.1,8.4-19.5,12.3l-2.2,1.3c-3.2,2-6.5,3.9-9.8,5.8c-4.5,2.6-8.9,5.1-13.2,7.5l-4.3,2.4c-3,1.7-6,3.3-9,4.9L138,148
	c-3.4,1.8-6.8,3.5-10.2,5.2c-1.8,0.9-3.5,1.8-5.3,2.6l-0.6,0.3c-2.9,1.4-5.8,2.8-8.6,4.2c-1.9,0.9-3.8,1.8-5.7,2.7l-6.6,3
	c-1.9,0.9-3.8,1.7-5.7,2.5s-3.7,1.6-5.5,2.4l-2.2,0.9c-0.8,0.3-1.6,0.7-2.5,1l-1.7,0.7c-8.5,3.4-16.7,6.4-24.1,8.9
	c-28.9,9.5-49.4,11-53.4,3.8c-3.9-6.9,6.2-26.9,47.7-60.4l2.9,5.1c-18.7,17.7-26,30.6-21.6,38.3c2.2,3.9,7,5.8,14.4,5.8
	c10,0,23.1-3.6,32.3-6.6c24.5-8,55-22.4,85.9-40.4s58.4-37.7,77.5-55.2c14.1-13,29.8-30.5,24.1-40.6c-5.5-9.6-26.6-5.5-43.5-0.2
	l-2.9-5c49.4-19.7,71.4-18.7,75.3-11.8c4.1,7.1-7.4,24.4-29.9,45.1C262.4,65.4,256,70.9,249,76.5z M264.6,34.6
	c3,5.3-5.8,18.4-23.1,34.1c-18.8,17.3-46,36.6-76.6,54.6s-60.6,32-84.9,40c-22.1,7.2-37.7,8.4-40.7,3.2c-2.8-4.9,4.8-16.8,19.8-31.1
	l9,15.9c3.5,6.2,15.2,6.2,34.5-0.1c17.7-5.7,39.6-16,61.8-28.9c21.1-12.3,40.9-26.4,54.5-38.7c10.9-9.9,23-23.3,18.5-31.2l-9.1-15.9
	C248,30.5,261.9,29.8,264.6,34.6L264.6,34.6z M161.8,117.8c-21.8,12.8-43.4,22.9-60.7,28.5c-18.6,6-26.9,5.1-28.4,2.4l-23.2-40.7
	c0.9,0.1,1.8,0.2,2.7,0.1c5.7,0,13.5-1.6,23.2-4.7c17.7-5.7,39.6-16,61.7-29c31.1-18.2,65.1-43.6,72.5-60.3L232.8,55
	C236.6,61.7,211.4,88.8,161.8,117.8z M134.6,70.1C112.7,82.8,91.2,93,73.8,98.6c-18.6,6-26.9,5.1-28.4,2.4s1.9-10.5,16.3-23.7
	C75.1,64.9,94.5,51,116.4,38.2s43.4-22.9,60.7-28.5c9-2.9,16.5-4.5,21.7-4.5c3.5,0,6,0.7,6.7,2C209.4,13.9,184.2,41,134.6,70.1z"/>
</svg>
