<svg width="278" height="151" viewBox="0 0 278 151" fill="none" xmlns="http://www.w3.org/2000/svg">
<circle cx="139" cy="191" r="138.5" stroke="white"/>
<path d="M44.5 61.5L63 89.5H212.5L230.5 68C147.5 3.00002 44.5 61.5 44.5 61.5Z" fill="black"/>
<path d="M105.75 55.3724C106.05 55.3158 106.275 55.1462 106.437 54.8918C106.6 54.6374 106.65 54.3547 106.575 54.0579C106.537 53.9024 106.475 53.7752 106.4 53.648C106.312 53.5208 106.212 53.4219 106.088 53.3512C105.963 53.2664 105.825 53.224 105.688 53.1816C105.538 53.1533 105.388 53.1533 105.238 53.1816C105.088 53.2099 104.95 53.2664 104.825 53.3512C104.7 53.436 104.613 53.5349 104.538 53.6622C104.463 53.7894 104.413 53.9166 104.388 54.0579C104.363 54.1992 104.375 54.3547 104.413 54.4961C104.488 54.7929 104.65 55.0331 104.913 55.2028C105.175 55.3865 105.45 55.443 105.75 55.3724ZM105.138 54.0438C105.2 53.9448 105.288 53.8883 105.4 53.86C105.513 53.8318 105.625 53.86 105.725 53.9307C105.825 54.0014 105.888 54.0862 105.925 54.1992C105.95 54.3123 105.938 54.4113 105.863 54.5102C105.8 54.6091 105.713 54.6657 105.6 54.6939C105.488 54.7222 105.388 54.6939 105.288 54.6374C105.188 54.5809 105.125 54.4819 105.1 54.3689C105.063 54.2558 105.075 54.1427 105.138 54.0438Z" fill="white"/>
<path d="M129.038 56.7716C128.95 56.7716 128.875 56.7999 128.813 56.8564C128.75 56.913 128.7 56.9836 128.675 57.0685C128.2 58.4253 127.325 60.1497 126.113 62.2699C126.063 61.6904 126.025 61.125 125.988 60.602C125.95 60.0791 125.913 59.6126 125.888 59.2169C125.863 58.8211 125.838 58.496 125.825 58.2557C125.813 58.0154 125.8 57.8882 125.8 57.8882C125.788 57.761 125.738 57.6621 125.663 57.5632C125.575 57.4783 125.475 57.4359 125.35 57.4359C125.238 57.4501 125.138 57.4925 125.063 57.5773C124.988 57.6621 124.95 57.761 124.938 57.8741C124.925 58.2981 124.875 58.6798 124.775 59.0048C124.675 59.3299 124.563 59.5985 124.413 59.8105C124.263 60.0366 124.113 60.1921 123.938 60.3052C123.775 60.4183 123.613 60.4889 123.45 60.5031C123.113 60.5313 122.863 60.4465 122.675 60.2204C122.488 59.9942 122.375 59.6833 122.325 59.3017C122.263 58.7787 122.288 58.3264 122.413 57.9306C122.525 57.5349 122.7 57.2239 122.913 56.9554C123.125 56.701 123.363 56.4889 123.638 56.3617C123.9 56.2204 124.163 56.1497 124.388 56.1215C124.538 56.1073 124.675 56.1073 124.8 56.1356C124.913 56.1639 125.013 56.1921 125.1 56.2345C125.188 56.2769 125.25 56.3193 125.313 56.3617C125.363 56.4041 125.413 56.4324 125.438 56.4607C125.55 56.5455 125.65 56.5738 125.763 56.5738C125.875 56.5596 125.975 56.5031 126.05 56.4041C126.125 56.3052 126.163 56.1921 126.15 56.0649C126.138 55.9377 126.088 55.8388 125.988 55.7398C125.975 55.7257 125.938 55.6974 125.85 55.6268C125.763 55.5561 125.65 55.4854 125.5 55.4147C125.35 55.3441 125.163 55.2875 124.963 55.231C124.75 55.1886 124.525 55.1745 124.288 55.1886C123.925 55.2169 123.563 55.3441 123.188 55.542C122.825 55.7398 122.5 56.0225 122.213 56.3759C121.988 56.6727 121.813 57.0261 121.675 57.4077C121.65 57.4218 121.625 57.4359 121.613 57.4501C121.55 57.5066 121.5 57.5773 121.475 57.6762C121.413 57.9024 121.325 58.1851 121.188 58.5526C121.063 58.92 120.9 59.2734 120.713 59.6268C120.525 59.9801 120.313 60.2911 120.075 60.5738C119.838 60.8423 119.575 60.9978 119.288 61.0402C119.125 61.0543 119 61.0402 118.888 60.9695C118.775 60.8988 118.688 60.814 118.613 60.6868C118.538 60.5596 118.475 60.4041 118.438 60.2345C118.388 60.0508 118.35 59.867 118.325 59.6833C118.3 59.5278 118.288 59.3582 118.263 59.1886C118.25 59.0048 118.238 58.8352 118.225 58.6656C118.213 58.496 118.2 58.3264 118.188 58.1851C118.175 58.0296 118.163 57.9024 118.15 57.8034C118.088 57.3511 117.925 56.9836 117.688 56.701C117.45 56.4183 117.125 56.3052 116.713 56.3617C116.513 56.39 116.3 56.4889 116.088 56.6444C115.875 56.7999 115.688 57.0402 115.513 57.3511C115.338 57.6762 115.175 58.0154 115.025 58.3688C114.875 58.7222 114.738 59.0755 114.613 59.4289C114.488 59.7822 114.375 60.1356 114.275 60.4748C114.175 60.814 114.088 61.1391 114.013 61.4218C113.988 61.1815 113.963 60.8847 113.925 60.5313C113.888 60.178 113.85 59.8246 113.825 59.4713C113.788 59.1179 113.75 58.7787 113.725 58.4677C113.688 58.1568 113.663 57.9306 113.625 57.7893C113.588 57.5914 113.538 57.4077 113.463 57.2239C113.4 57.0402 113.313 56.8847 113.2 56.7434C113.1 56.602 112.975 56.4889 112.838 56.4183C112.7 56.3476 112.538 56.3193 112.35 56.3617C112.05 56.4183 111.775 56.6727 111.55 57.125C111.325 57.5914 111.125 58.284 110.95 59.2027V59.2169C110.813 59.7398 110.675 60.2345 110.513 60.6727C110.35 61.125 110.188 61.5207 110.013 61.8458C109.838 62.1851 109.65 62.4536 109.463 62.6515C109.275 62.8494 109.075 62.9766 108.863 63.019C108.738 63.0472 108.6 63.0472 108.45 63.0331C108.3 63.019 108.15 62.9483 107.988 62.8211C107.825 62.708 107.688 62.5243 107.538 62.284C107.4 62.0437 107.275 61.7045 107.175 61.2805C107.1 60.9695 107.025 60.6303 106.963 60.2487C106.9 59.867 106.838 59.5137 106.788 59.1745C106.738 58.8352 106.688 58.5526 106.65 58.2981C106.613 58.0579 106.588 57.9024 106.575 57.86C106.55 57.7469 106.488 57.648 106.388 57.5632C106.288 57.4925 106.175 57.4642 106.063 57.4783C105.938 57.5066 105.838 57.5632 105.775 57.6762C105.713 57.7752 105.688 57.8882 105.7 58.0013C105.775 58.6939 105.9 59.3865 106.025 60.0649C106.013 60.0932 106 60.1356 106 60.1639C105.975 60.3193 105.938 60.5031 105.888 60.7292C105.838 60.9554 105.775 61.1957 105.7 61.4359C105.625 61.6904 105.538 61.9306 105.438 62.1851C105.338 62.4395 105.225 62.6798 105.088 62.8918C104.963 63.1038 104.825 63.2875 104.675 63.443C104.525 63.5844 104.363 63.6833 104.175 63.7257C104.013 63.7681 103.875 63.7398 103.763 63.6833C103.638 63.6126 103.538 63.5137 103.45 63.3723C103.363 63.231 103.288 63.0755 103.213 62.8918C103.138 62.708 103.088 62.5243 103.038 62.3264C102.95 61.9872 102.875 61.6621 102.825 61.3511C102.775 61.0402 102.725 60.7858 102.675 60.602C102.613 60.3759 102.538 60.178 102.438 59.9942C102.338 59.8105 102.213 59.6692 102.088 59.542C101.95 59.4147 101.8 59.3441 101.625 59.2875C101.45 59.2451 101.263 59.2451 101.063 59.2875C100.863 59.3299 100.663 59.4571 100.475 59.6268C100.288 59.8105 100.113 60.0649 99.975 60.39C99.8375 60.7292 99.7125 61.0967 99.6 61.4642C99.4875 61.8458 99.3875 62.2133 99.3125 62.595C99.225 62.9766 99.15 63.3299 99.0875 63.6833C99.025 64.0366 98.975 64.3617 98.9375 64.6586C98.875 64.4748 98.8125 64.2911 98.7625 64.1073C98.725 64.0084 98.6875 63.867 98.6375 63.6974C98.5875 63.5278 98.525 63.3441 98.4625 63.1462C98.4 62.9483 98.3375 62.7504 98.2875 62.5526C98.225 62.3547 98.175 62.1851 98.1375 62.0437C98.3125 61.1674 98.4625 60.2769 98.5875 59.3723C98.725 58.4677 98.8125 57.549 98.85 56.6303C98.8875 55.6974 98.8625 54.7646 98.7875 53.8317C98.775 53.648 98.7375 53.4642 98.7125 53.2805C98.7375 53.2098 98.7375 53.1391 98.7125 53.0543C98.7 53.0119 98.6875 52.9978 98.6625 52.9554C98.5625 52.3052 98.45 51.655 98.2625 51.0049C98.1375 50.5526 97.975 50.1144 97.8 49.7186C97.6125 49.3229 97.4 48.9837 97.1625 48.701C96.925 48.4183 96.6625 48.2204 96.3625 48.1073C96.0625 47.9801 95.7375 47.966 95.3875 48.0649C94.975 48.178 94.6875 48.4466 94.525 48.8706C94.3625 49.3087 94.3 49.8741 94.325 50.595C94.3625 51.3017 94.475 52.1497 94.6875 53.1109C94.725 53.2805 94.7625 53.4501 94.8 53.6056C93.8375 53.86 92.8875 54.1285 91.9375 54.4112C91.8125 54.1427 91.675 53.8882 91.5375 53.6762C91.4 53.4642 91.25 53.2805 91.0875 53.1391C90.925 52.9978 90.75 52.8988 90.5625 52.8423C90.375 52.7858 90.1875 52.7999 89.975 52.8564C89.7625 52.9271 89.5875 53.0261 89.45 53.1815C89.3125 53.337 89.2 53.5208 89.1125 53.7328C89.025 53.9448 88.975 54.1851 88.95 54.4536C88.925 54.7222 88.925 55.0049 88.9375 55.3158C87.425 55.7822 85.925 56.2769 84.425 56.7858C84.3 56.8282 84.2 56.8988 84.15 57.0119C84.0875 57.1109 84.0875 57.2239 84.1375 57.3511C84.1875 57.4783 84.275 57.5632 84.3875 57.6056C84.5 57.648 84.625 57.648 84.75 57.6056C86.175 57.125 87.6 56.6444 89.025 56.2063C89.0875 56.6162 89.1625 57.0402 89.2625 57.4642C89.3625 57.8882 89.475 58.2981 89.5875 58.6798C89.7 59.0755 89.825 59.443 89.9375 59.7822C90.05 60.1356 90.1625 60.4324 90.25 60.6868C90.625 61.7045 91.0375 62.6232 91.5 63.443C91.6 63.6126 91.6875 63.7681 91.7875 63.9236C91.75 64.3193 91.6875 64.7151 91.6 65.0826C91.5 65.4925 91.3875 65.8882 91.25 66.284C91.1125 66.6798 90.9625 67.0614 90.8125 67.4289C90.65 67.7964 90.5 68.1638 90.35 68.5172C90.1375 67.8812 89.95 67.2875 89.7875 66.7222C89.625 66.1568 89.475 65.6621 89.3625 65.2239C89.25 64.7999 89.15 64.4465 89.0875 64.1921C89.025 63.9377 88.9875 63.7964 88.975 63.7681C88.925 63.6409 88.85 63.5561 88.725 63.4995C88.6125 63.443 88.4875 63.4289 88.375 63.4713C88.275 63.4995 88.1875 63.5702 88.1375 63.655C88.0875 63.7398 88.075 63.8388 88.1 63.9518C88.3375 65.2805 88.425 66.3123 88.3375 67.0755C88.25 67.8388 88.0125 68.2911 87.6 68.4465C87.275 68.5596 86.9875 68.5313 86.7375 68.3476C86.4875 68.1639 86.2875 67.867 86.1125 67.443C85.9375 67.019 85.8125 66.6232 85.75 66.2416C85.6875 65.86 85.65 65.5349 85.6375 65.2381C85.625 64.9554 85.6375 64.7292 85.6625 64.5596C85.6875 64.4041 85.7 64.3193 85.6875 64.3335C85.7 64.2487 85.7 64.1639 85.6625 64.0791C85.6125 63.966 85.5375 63.8812 85.425 63.8105C85.3125 63.754 85.1875 63.7398 85.0625 63.7822C84.9125 63.8388 84.825 63.9377 84.7875 64.1073C84.7875 64.0932 84.775 64.1921 84.75 64.3759C84.725 64.5596 84.7125 64.8282 84.7375 65.1532C84.75 65.4077 84.7875 65.7186 84.8375 66.0437C84.8125 66.0861 84.7875 66.1285 84.775 66.185C84.75 66.4819 84.725 66.8352 84.675 67.2451C84.625 67.655 84.55 68.0508 84.45 68.4324C84.35 68.814 84.2 69.1674 84.0125 69.4925C83.825 69.8034 83.5875 70.0296 83.275 70.1426C83.175 70.185 83.05 70.1992 82.9125 70.2133C82.775 70.2274 82.625 70.185 82.4625 70.1285C82.3 70.072 82.15 69.9589 82 69.8034C81.85 69.6479 81.7125 69.4501 81.5875 69.1674C81.5 68.9836 81.425 68.7858 81.3625 68.5737C81.3 68.3759 81.225 68.1638 81.1625 67.9518C81.1 67.7398 81.0375 67.5419 80.975 67.3441C80.9125 67.1462 80.8375 66.9624 80.7625 66.7928C80.5625 66.3688 80.3125 66.1002 80 66.0013C79.6875 65.9024 79.3125 65.9306 78.8875 66.1144C78.775 66.1568 78.6625 66.2133 78.5375 66.2699C78.4125 66.3264 78.2875 66.3829 78.1625 66.4253C78.0875 66.2699 78 66.1003 77.875 65.9165C77.75 65.7186 77.6125 65.549 77.475 65.3935C77.325 65.2381 77.1625 65.1109 77 65.026C76.825 64.9412 76.65 64.9412 76.4875 65.0119C76.3375 65.0684 76.225 65.2098 76.1375 65.4359C76.0625 65.6479 76.0125 65.8882 76 66.1426C75.9875 66.3971 75.9875 66.6515 76.025 66.9059C76.0625 67.1462 76.1125 67.3441 76.175 67.4713C76.2625 67.6409 76.3625 67.754 76.4875 67.8246C76.6125 67.8953 76.7375 67.9236 76.875 67.9094C77.0125 67.9094 77.15 67.8812 77.2875 67.8246C77.425 67.7822 77.5625 67.7257 77.6875 67.6691C77.775 68.0225 77.8375 68.2911 77.875 68.4607C77.9 68.6303 77.925 68.7434 77.925 68.8282C77.9125 68.8564 77.9 68.8847 77.9 68.9271C77.9125 69.337 77.9125 69.761 77.9 70.1992C77.8875 70.6232 77.825 71.0331 77.725 71.4147C77.625 71.7964 77.475 72.1356 77.275 72.4465C77.075 72.7434 76.8 72.9695 76.45 73.125C76.1125 73.2805 75.7875 73.337 75.4875 73.3229C75.1875 73.2946 74.9 73.2098 74.6375 73.0684C74.8375 72.7999 75.0125 72.5172 75.1625 72.2204C75.3125 71.9236 75.4125 71.6126 75.4625 71.3017C75.525 70.9907 75.5375 70.6798 75.5 70.3688C75.4625 70.0578 75.375 69.7469 75.2125 69.4501C75.0875 69.2098 74.9375 69.0119 74.7625 68.8706C74.5875 68.7151 74.4 68.6161 74.2 68.5455C74 68.4748 73.8 68.4465 73.6 68.4465C73.4 68.4465 73.2125 68.4889 73.0375 68.5737C72.75 68.701 72.5125 68.8847 72.35 69.125C72.175 69.3653 72.075 69.6479 72.025 69.9589C71.975 70.2699 72 70.6091 72.075 70.9624C72.1 71.0755 72.15 71.2027 72.1875 71.3299C72.175 71.3865 72.15 71.443 72.1625 71.5137C72.1625 71.5278 72.175 71.5702 72.175 71.6409C72.175 71.7257 72.1625 71.8105 72.1375 71.9236C72.1125 72.0225 72.0625 72.1356 72 72.2345C71.925 72.3335 71.825 72.4324 71.6875 72.4889C71.4375 72.602 71.175 72.6444 70.9 72.6161C70.625 72.5737 70.3625 72.5031 70.1125 72.3759C69.85 72.2487 69.6125 72.1073 69.375 71.9377C69.1375 71.7681 68.9375 71.5985 68.75 71.443C68.575 71.2875 68.425 71.1462 68.325 71.0472C68.225 70.9342 68.175 70.8918 68.175 70.8918C68.1 70.807 68 70.7504 67.8875 70.7222C67.775 70.708 67.675 70.7222 67.575 70.7646C67.45 70.8211 67.375 70.92 67.3375 71.0331C67.3125 71.1603 67.325 71.2734 67.4 71.4006C67.4375 71.4713 67.4875 71.5419 67.525 71.6126C67.5625 71.6833 67.6125 71.754 67.65 71.8246C67.85 72.178 68.025 72.5455 68.15 72.913C68.275 73.2946 68.375 73.6621 68.45 74.0154C68.5125 74.3829 68.5625 74.7221 68.5875 75.0472C68.6125 75.3723 68.6125 75.655 68.6 75.9094C68.5875 76.1638 68.5625 76.3617 68.5125 76.5313C68.4625 76.7009 68.4125 76.7857 68.3625 76.814C68.275 76.8564 68.125 76.8423 67.9125 76.7575C67.6875 76.6727 67.45 76.5455 67.175 76.3476C66.9 76.1497 66.6125 75.8953 66.3 75.5843C66 75.2734 65.7125 74.9059 65.4625 74.4819C65.25 74.1285 65.1125 73.8458 65.0625 73.6338C65.0125 73.4218 64.9875 73.3087 64.9875 73.2946C64.9875 73.2239 64.9625 73.1674 64.925 73.0967C64.8625 72.9978 64.775 72.9271 64.65 72.8847C64.525 72.8423 64.4 72.8564 64.275 72.913C64.2 72.9554 64.1375 73.0119 64.1 73.0826C64.0625 73.1532 64.0375 73.2239 64.05 73.3087C64.05 73.3511 64.0875 73.5207 64.15 73.8034C64.2125 74.0861 64.4 74.4677 64.6875 74.9342C64.725 74.9907 64.775 75.0472 64.8125 75.1038C64.8125 75.1179 64.8 75.132 64.8125 75.1462C64.875 75.5561 64.9125 75.9801 64.9375 76.4183C64.9625 76.8423 64.9375 77.2663 64.875 77.6479C64.8125 78.0437 64.7 78.3971 64.525 78.708C64.35 79.019 64.1 79.2734 63.75 79.4713C63.4125 79.655 63.1 79.7539 62.7875 79.7539C62.475 79.7539 62.175 79.6974 61.9 79.5843C62.0875 79.3017 62.2375 79.0048 62.35 78.6797C62.4625 78.3688 62.5375 78.0578 62.575 77.7327C62.6 77.4218 62.5875 77.1108 62.525 76.7999C62.4625 76.4889 62.3375 76.1921 62.15 75.9094C62 75.6833 61.8375 75.4995 61.6375 75.3723C61.45 75.2451 61.2375 75.1462 61.0375 75.1038C60.825 75.0472 60.625 75.0331 60.4125 75.0614C60.2 75.0896 60.025 75.1462 59.85 75.231C59.5625 75.3865 59.35 75.5985 59.2 75.8529C59.05 76.1073 58.9625 76.4041 58.95 76.7151C58.9375 77.026 58.9875 77.3653 59.1 77.7186C59.2125 78.072 59.4 78.4112 59.6375 78.7645C59.875 79.1179 60.175 79.443 60.525 79.7257C60.875 80.0225 61.25 80.2486 61.65 80.4041C62.05 80.5596 62.4875 80.6303 62.9375 80.6303C63.3875 80.6161 63.8375 80.4889 64.2875 80.2345C64.9875 79.8246 65.45 79.2027 65.675 78.3688C65.825 77.8034 65.8875 77.1108 65.85 76.3335C66.2625 76.7009 66.6625 76.9978 67.05 77.2239C67.45 77.4501 67.825 77.6055 68.15 77.6762C68.4875 77.7469 68.7375 77.7327 68.925 77.6479C69.075 77.549 69.2125 77.3511 69.325 77.0543C69.4375 76.7575 69.5125 76.39 69.55 75.9518C69.5875 75.5137 69.575 75.0331 69.525 74.496C69.475 73.9589 69.35 73.4077 69.175 72.8564C69.375 72.9836 69.6 73.1108 69.85 73.2098C70.1 73.3229 70.35 73.3935 70.6 73.4501C70.8625 73.5066 71.1125 73.5349 71.3875 73.5207C71.65 73.5066 71.9125 73.4501 72.1625 73.3229C72.375 73.2239 72.55 73.0967 72.6875 72.9271C72.7625 72.8282 72.8375 72.7292 72.8875 72.6303C73.0125 72.7999 73.15 72.9554 73.3 73.1108C73.6125 73.4359 73.95 73.6903 74.3375 73.8882C74.7125 74.0861 75.125 74.1992 75.5625 74.2274C76 74.2557 76.45 74.1709 76.925 73.973C77.65 73.6338 78.1625 73.0684 78.4625 72.2487C78.7625 71.4571 78.8875 70.4112 78.8625 69.1108C78.875 69.0684 78.875 69.026 78.875 68.9695C78.875 68.9554 78.875 68.913 78.8625 68.814C78.85 68.7151 78.8375 68.602 78.8125 68.4465C78.7875 68.3052 78.7625 68.1214 78.725 67.9377C78.6875 67.7398 78.6375 67.5419 78.5625 67.3299C78.7 67.2593 78.825 67.2027 78.95 67.1603C79.075 67.1038 79.1875 67.0614 79.2875 67.019C79.5 66.9342 79.6625 66.9059 79.7625 66.9624C79.8625 67.0048 79.9375 67.1038 80.0125 67.2451C80.175 67.5843 80.3 67.9518 80.4 68.3617C80.5 68.7575 80.6375 69.1532 80.8125 69.5207C80.975 69.8741 81.175 70.1709 81.4125 70.4112C81.65 70.6515 81.8875 70.8352 82.15 70.9624C82.4125 71.0896 82.675 71.1603 82.95 71.1603C83.225 71.1744 83.5 71.132 83.75 71.0331C84.1625 70.8776 84.5 70.6091 84.75 70.2416C85 69.8741 85.2 69.4783 85.3375 69.026C85.4375 68.7151 85.5 68.4041 85.5625 68.0932C85.825 68.602 86.15 68.9695 86.55 69.1957C87.025 69.4783 87.5375 69.5066 88.0875 69.3229C88.425 69.2098 88.6875 68.9978 88.875 68.6727C89.075 68.3617 89.2 67.9942 89.25 67.5702C89.3625 67.9236 89.4875 68.2911 89.625 68.6868C89.7625 69.0826 89.9 69.4783 90.025 69.8458C89.8875 70.2557 89.775 70.708 89.6875 71.1886C89.6 71.6691 89.525 72.1638 89.4875 72.6868C89.45 73.1956 89.425 73.7186 89.425 74.2416C89.425 74.7645 89.4625 75.2734 89.5125 75.7681C89.5625 76.2628 89.65 76.7292 89.75 77.1815C89.85 77.6338 89.9875 78.0296 90.1375 78.3971C90.425 79.0614 90.7625 79.5419 91.175 79.8246C91.5875 80.1073 92.025 80.1638 92.4875 79.9942C92.775 79.8953 92.9875 79.7257 93.1375 79.4854C93.2875 79.2451 93.3875 78.9624 93.425 78.6091C93.475 78.2698 93.475 77.8741 93.425 77.4501C93.375 77.026 93.3 76.5737 93.1875 76.1073C93.075 75.6409 92.9375 75.1462 92.775 74.6515C92.6125 74.1426 92.4375 73.6479 92.25 73.1532C92.025 72.5455 91.7875 71.9942 91.55 71.4571C91.3125 70.9342 91.1125 70.3971 90.9375 69.86C91.1 69.4077 91.275 68.9554 91.4625 68.4889C91.6625 68.0366 91.85 67.5561 92.0375 67.0896C92.225 66.6091 92.3875 66.1144 92.5375 65.6055C92.5875 65.4218 92.6375 65.2098 92.675 65.0119C92.8125 65.1815 92.95 65.337 93.0875 65.4783C93.6 66.0154 94.1125 66.4112 94.6375 66.6373C95.1625 66.8635 95.675 66.9059 96.1875 66.7646C96.475 66.6798 96.725 66.5243 96.925 66.2981C97.1375 66.072 97.3125 65.8034 97.4625 65.5066C97.6125 65.2098 97.7375 64.8988 97.825 64.5596C97.875 64.3759 97.9125 64.2063 97.9625 64.0366C98 64.1497 98.025 64.2487 98.0625 64.3476C98.1375 64.602 98.2125 64.8423 98.3 65.0967C98.3875 65.3653 98.525 65.5914 98.7 65.7469C98.8875 65.9024 99.0875 65.9589 99.3125 65.8882C99.4375 65.86 99.5625 65.761 99.6875 65.6055C99.8125 65.4501 99.9 65.1815 99.9625 64.814C99.9875 64.6162 100.025 64.3759 100.075 64.0791C100.125 63.7822 100.188 63.4713 100.25 63.1321C100.325 62.7928 100.4 62.4677 100.488 62.1285C100.575 61.7893 100.663 61.4783 100.775 61.1957C100.875 60.913 100.988 60.6868 101.1 60.5031C101.213 60.3193 101.338 60.2063 101.463 60.178C101.55 60.1639 101.638 60.178 101.725 60.2487C101.813 60.3193 101.888 60.4748 101.963 60.7292C101.988 60.8282 102.013 60.9412 102.038 61.0826C102.063 61.2239 102.088 61.3794 102.125 61.5349C102.15 61.7045 102.188 61.86 102.213 62.0296C102.25 62.1992 102.288 62.3547 102.325 62.496C102.4 62.7787 102.5 63.0472 102.625 63.3441C102.75 63.6268 102.9 63.8812 103.075 64.0791C103.25 64.2911 103.475 64.4465 103.725 64.5596C103.975 64.6586 104.263 64.6727 104.613 64.602C104.913 64.5313 105.175 64.39 105.4 64.178C105.638 63.966 105.838 63.7116 106.013 63.4147C106.188 63.1179 106.338 62.807 106.463 62.4819C106.525 62.2981 106.588 62.1285 106.65 61.9589C106.725 62.1709 106.8 62.3688 106.9 62.5667C107.075 62.8918 107.275 63.1745 107.5 63.3865C107.738 63.5985 107.988 63.7681 108.275 63.867C108.563 63.966 108.875 63.9801 109.2 63.9094C109.463 63.8529 109.7 63.7398 109.925 63.5561C110.15 63.3723 110.35 63.1462 110.538 62.8918C110.725 62.6232 110.888 62.3405 111.038 62.0296C111.188 61.7186 111.313 61.3935 111.438 61.0826C111.55 60.7716 111.65 60.4748 111.738 60.178C111.825 59.8812 111.888 59.6409 111.95 59.443V59.4289C111.95 59.4147 111.963 59.4147 111.963 59.4006C112.1 58.6515 112.238 58.1285 112.363 57.8176C112.488 57.5066 112.588 57.337 112.65 57.2946C112.7 57.3229 112.763 57.4359 112.813 57.6197C112.863 57.8034 112.913 58.0013 112.95 58.1992C112.975 58.3547 113.013 58.5384 113.038 58.7787C113.063 59.0048 113.088 59.2593 113.113 59.5137C113.138 59.7822 113.163 60.0508 113.2 60.3193C113.225 60.5879 113.25 60.8423 113.275 61.0684C113.3 61.3087 113.313 61.5066 113.338 61.6762C113.35 61.8458 113.363 61.9589 113.375 62.0154C113.425 62.2699 113.525 62.4677 113.688 62.5808C113.85 62.6939 114.025 62.7363 114.25 62.708C114.4 62.6798 114.55 62.595 114.675 62.4536C114.8 62.3123 114.913 62.0578 115 61.7045C115.038 61.5207 115.113 61.2805 115.188 60.9836C115.275 60.6868 115.363 60.39 115.475 60.0649C115.575 59.7398 115.7 59.4147 115.825 59.0897C115.95 58.7646 116.088 58.4536 116.213 58.1992C116.35 57.9306 116.475 57.7045 116.613 57.5349C116.75 57.3653 116.875 57.2663 117 57.2522C117.063 57.2381 117.138 57.2805 117.225 57.3653C117.313 57.4501 117.388 57.6197 117.425 57.8741C117.45 58.0296 117.463 58.1851 117.488 58.3688C117.5 58.5384 117.513 58.708 117.525 58.8918C117.538 59.0614 117.538 59.231 117.55 59.3865C117.563 59.542 117.575 59.6833 117.6 59.7964C117.65 60.0791 117.713 60.3617 117.8 60.6303C117.888 60.8988 118.013 61.1533 118.163 61.3653C118.325 61.5773 118.513 61.7469 118.75 61.86C118.988 61.973 119.263 62.0154 119.6 61.973C119.9 61.9306 120.175 61.8176 120.425 61.6197C120.675 61.4218 120.9 61.1957 121.113 60.9271C121.313 60.6586 121.5 60.3617 121.663 60.0508C121.688 59.9942 121.713 59.9377 121.75 59.8812C121.788 60.0225 121.838 60.1497 121.888 60.2769C122 60.5313 122.15 60.7575 122.325 60.9412C122.5 61.125 122.7 61.2663 122.925 61.3511C123.15 61.4359 123.4 61.4642 123.663 61.4501C123.975 61.4218 124.275 61.2946 124.563 61.0967C124.85 60.8847 125.1 60.6162 125.3 60.2911C125.338 60.7716 125.375 61.2805 125.425 61.8458C125.475 62.4112 125.525 62.9766 125.575 63.5419C125.313 63.9377 125.063 64.3759 124.85 64.8423C124.625 65.3087 124.438 65.8034 124.263 66.3123C124.088 66.8211 123.95 67.3441 123.825 67.8812C123.7 68.4183 123.613 68.9412 123.55 69.4642C123.488 69.9872 123.45 70.4819 123.438 70.9624C123.425 71.443 123.45 71.8953 123.5 72.2911C123.6 73.0543 123.788 73.6338 124.088 74.0154C124.388 74.4112 124.75 74.5808 125.2 74.5384C125.513 74.5101 125.788 74.3829 126 74.1709C126.213 73.9589 126.388 73.6762 126.513 73.3229C126.65 72.9695 126.738 72.5596 126.8 72.0932C126.863 71.6267 126.9 71.1179 126.913 70.5667C126.925 70.0154 126.913 69.4501 126.888 68.8423C126.85 68.2345 126.813 67.6267 126.75 67.019C126.688 66.4112 126.638 65.8458 126.588 65.337C126.538 64.8282 126.488 64.3052 126.438 63.7964C127.238 62.4536 127.913 61.2663 128.438 60.2204C128.975 59.1745 129.388 58.2275 129.675 57.3935C129.7 57.337 129.7 57.2805 129.7 57.2239C129.688 57.0967 129.638 56.9978 129.55 56.913C129.275 56.7999 129.163 56.7575 129.038 56.7716ZM61.0375 79.1038C60.9125 79.0048 60.8 78.8776 60.675 78.7645C60.55 78.6373 60.45 78.5101 60.375 78.3971C60.2375 78.1992 60.125 77.9872 60.025 77.761C59.925 77.5349 59.8625 77.3087 59.8375 77.0967C59.8125 76.8847 59.8375 76.6868 59.9 76.5031C59.9625 76.3193 60.1 76.178 60.3 76.0649C60.45 75.9801 60.6125 75.966 60.7875 76.0084C60.9625 76.0508 61.125 76.1921 61.2625 76.39C61.3875 76.5737 61.475 76.7858 61.525 77.0119C61.575 77.238 61.5875 77.4642 61.575 77.7045C61.5625 77.9448 61.5 78.185 61.4125 78.4253C61.3125 78.6656 61.1875 78.8918 61.0375 79.1038ZM73.8625 72.5455C73.75 72.4324 73.65 72.3052 73.55 72.1639C73.45 72.0225 73.3625 71.8953 73.2875 71.7681C73.175 71.5561 73.075 71.3299 73 71.1038C72.925 70.8635 72.8875 70.6373 72.875 70.4253C72.875 70.2133 72.9125 70.0154 72.9875 69.8458C73.075 69.6762 73.2125 69.5349 73.4125 69.4501C73.5625 69.3794 73.725 69.3794 73.8875 69.4501C74.0625 69.5207 74.2 69.6621 74.3125 69.8741C74.4125 70.072 74.475 70.284 74.5125 70.5101C74.5375 70.7363 74.5375 70.9766 74.5 71.2027C74.4625 71.443 74.3875 71.6691 74.275 71.9094C74.1875 72.1356 74.0375 72.3476 73.8625 72.5455ZM76.8375 67.0472C76.825 66.9766 76.8125 66.8918 76.8 66.7928C76.7875 66.6939 76.775 66.5949 76.775 66.496C76.775 66.3971 76.775 66.3264 76.7875 66.2557C76.8 66.185 76.8125 66.1426 76.8375 66.1426C76.8625 66.1285 76.9 66.1568 76.9375 66.2133C76.9875 66.2699 77.0375 66.3264 77.0875 66.4112C77.1375 66.496 77.1875 66.5667 77.2375 66.6515C77.2875 66.7363 77.3125 66.807 77.3375 66.8494C77.1625 66.9059 77 66.9766 76.8375 67.0472ZM92.0875 75.6126C92.2875 76.291 92.4125 76.8847 92.475 77.3794C92.5375 77.8882 92.5375 78.284 92.4625 78.5949C92.3875 78.9059 92.25 79.0896 92.025 79.1744C91.775 79.2592 91.55 79.2168 91.35 79.0331C91.1375 78.8494 90.9625 78.5525 90.7875 78.1568C90.625 77.761 90.5 77.3087 90.3875 76.7716C90.2875 76.2345 90.2125 75.6691 90.1875 75.0614C90.15 74.4536 90.1625 73.8317 90.2 73.1815C90.2375 72.5313 90.325 71.9094 90.45 71.3017C90.6125 71.6833 90.7625 72.0366 90.9 72.3759C91.0375 72.7151 91.175 73.0402 91.3125 73.3794C91.6375 74.185 91.8875 74.9342 92.0875 75.6126ZM97.85 57.9872C97.7875 58.7504 97.7 59.5419 97.6 60.3476C97.4875 59.966 97.35 59.5278 97.1875 59.019C97.025 58.5101 96.8625 57.9589 96.7 57.3653C96.525 56.7716 96.3625 56.1639 96.1875 55.542C96.075 55.1038 95.975 54.6939 95.8625 54.2699C96.5125 54.1003 97.1625 53.9306 97.8125 53.761C97.8875 54.4253 97.925 55.0755 97.9375 55.7398C97.95 56.4748 97.925 57.2239 97.85 57.9872ZM95.375 51.966C95.275 51.4147 95.225 50.9342 95.2 50.5102C95.175 50.0861 95.2 49.7469 95.2625 49.4784C95.325 49.2098 95.45 49.0543 95.6375 49.0119C95.875 48.9554 96.0875 49.0119 96.275 49.1957C96.4625 49.3794 96.6375 49.6056 96.775 49.8741C96.925 50.1427 97.0375 50.4112 97.125 50.6939C97.2125 50.9625 97.2875 51.1745 97.3125 51.2875C97.475 51.8388 97.5875 52.3759 97.675 52.913C97 53.0826 96.325 53.2663 95.65 53.4359C95.55 52.9271 95.45 52.4324 95.375 51.966ZM90 54.1285C90.0875 53.9306 90.1625 53.8317 90.2375 53.8034C90.3375 53.7752 90.45 53.8458 90.6 54.0013C90.7375 54.1709 90.8875 54.4112 91.0375 54.7222C90.65 54.8352 90.2625 54.9483 89.875 55.0755C89.875 54.6515 89.9125 54.3264 90 54.1285ZM90.3125 57.8458C90.125 57.1109 90 56.4889 89.95 55.966C90.425 55.8246 90.8875 55.6833 91.3625 55.542C91.525 56.0367 91.675 56.5879 91.8 57.1957C91.925 57.8034 92.025 58.4253 92.1 59.0755C92.175 59.7257 92.2125 60.3759 92.2375 61.026C92.2625 61.6762 92.2375 62.2981 92.2 62.8776C92.025 62.5808 91.8625 62.2557 91.6875 61.8741C91.525 61.4925 91.3375 61.026 91.1375 60.4607C90.7625 59.443 90.4875 58.5667 90.3125 57.8458ZM97.2 62.3405C97.1875 62.5525 97.15 62.8494 97.075 63.231C97.0125 63.5985 96.9125 63.9801 96.8 64.3617C96.6875 64.7434 96.5375 65.0826 96.35 65.3935C96.175 65.6904 95.95 65.8882 95.6875 65.9589C95.4625 66.0296 95.2375 66.0154 95 65.9448C94.7625 65.8741 94.525 65.7469 94.275 65.5631C94.025 65.3794 93.7875 65.1533 93.5375 64.8988C93.3 64.6303 93.0625 64.3335 92.8375 64.0084C92.9 63.8105 92.95 63.5419 93 63.1745C93.0375 62.807 93.0625 62.3971 93.075 61.9165C93.0875 61.4359 93.075 60.9271 93.05 60.3759C93.025 59.8246 92.9875 59.2593 92.925 58.6939C92.8625 58.1285 92.7875 57.5632 92.675 56.9978C92.5625 56.4324 92.4375 55.9236 92.275 55.443C92.2625 55.4006 92.25 55.3582 92.2375 55.3158C93.15 55.0473 94.0625 54.7928 94.9875 54.5384C95.1375 55.1321 95.3 55.7398 95.475 56.39C95.8 57.5632 96.175 58.8211 96.5875 60.1639C96.7875 60.8282 97 61.5066 97.225 62.1992C97.225 62.2275 97.2125 62.284 97.2 62.3405ZM125.763 67.1462C125.8 67.5419 125.838 67.966 125.863 68.4324C125.9 68.8988 125.913 69.3653 125.925 69.8458C125.938 70.3123 125.925 70.7787 125.9 71.231C125.875 71.6833 125.825 72.079 125.75 72.4183C125.675 72.7716 125.575 73.0543 125.438 73.2663C125.3 73.4783 125.125 73.6055 124.925 73.6197C124.863 73.6197 124.788 73.6197 124.7 73.5914C124.613 73.5631 124.538 73.5066 124.463 73.4218C124.388 73.337 124.313 73.1956 124.25 73.026C124.188 72.8564 124.138 72.6161 124.1 72.3052C124.05 71.8388 124.038 71.2875 124.063 70.6798C124.1 70.072 124.175 69.4359 124.288 68.7858C124.413 68.1356 124.575 67.4854 124.775 66.8352C124.988 66.1851 125.225 65.5773 125.525 65.026C125.575 65.3935 125.613 65.7469 125.65 66.1002C125.7 66.4395 125.738 66.7928 125.763 67.1462Z" fill="white"/>
<path d="M134.613 52.0791C134.913 52.0791 135.175 51.966 135.375 51.7399C135.588 51.5137 135.688 51.2593 135.675 50.9484C135.675 50.7929 135.638 50.6516 135.588 50.5102C135.525 50.3689 135.45 50.2558 135.338 50.1569C135.238 50.0579 135.113 49.9731 134.975 49.9307C134.838 49.8742 134.7 49.8459 134.538 49.86C134.388 49.86 134.238 49.9024 134.113 49.959C133.975 50.0155 133.863 50.1003 133.763 50.2134C133.663 50.3123 133.588 50.4395 133.538 50.5809C133.488 50.7222 133.463 50.8636 133.463 51.019C133.475 51.33 133.588 51.5844 133.813 51.7964C134.05 51.9801 134.313 52.0791 134.613 52.0791ZM134.288 50.6657C134.363 50.5809 134.463 50.5385 134.575 50.5243C134.688 50.5243 134.788 50.5667 134.875 50.6516C134.963 50.7364 135.013 50.8353 135.013 50.9484C135.013 51.0614 134.975 51.1604 134.888 51.2452C134.8 51.33 134.713 51.3724 134.6 51.3724C134.488 51.3724 134.388 51.33 134.313 51.2593C134.225 51.1745 134.188 51.0756 134.188 50.9625C134.175 50.8494 134.213 50.7505 134.288 50.6657Z" fill="white"/>
<path d="M145.363 56.6445C145.225 56.6445 145.113 56.7293 145.025 56.9131C144.838 57.3088 144.613 57.7187 144.363 58.1286C144.113 58.5385 143.838 58.906 143.525 59.2311C143.225 59.5562 142.888 59.8247 142.513 60.0226C142.138 60.2205 141.75 60.3194 141.313 60.3194C141.275 60.3194 141.238 60.3194 141.2 60.3194C141.163 60.3194 141.125 60.3194 141.088 60.3053C141.388 60.0933 141.6 59.8389 141.738 59.5279C141.875 59.217 141.95 58.8919 141.963 58.5526C141.975 58.2841 141.938 58.0297 141.85 57.7611C141.763 57.4926 141.663 57.2099 141.525 56.9131C141.388 56.6163 141.238 56.277 141.075 55.9095C140.9 55.5421 140.738 55.1322 140.563 54.6657C140.6 54.4679 140.638 54.3124 140.663 54.171C140.688 54.0438 140.7 53.9166 140.7 53.7753C140.7 53.535 140.65 53.3371 140.55 53.1675C140.45 52.9979 140.3 52.9131 140.113 52.9131C139.913 52.9131 139.763 52.9979 139.65 53.1534C139.538 53.323 139.475 53.535 139.475 53.8035C139.475 53.9449 139.488 54.0721 139.513 54.2134C139.538 54.3406 139.575 54.5103 139.625 54.694C139.563 55.0332 139.475 55.3442 139.375 55.6551C139.275 55.9519 139.138 56.2912 138.95 56.6728C138.925 56.7011 138.9 56.7152 138.888 56.7435C138.65 57.2523 138.4 57.7046 138.163 58.1286C137.913 58.5385 137.675 58.8919 137.438 59.1887C137.2 59.4855 136.975 59.7117 136.75 59.8813C136.525 60.0509 136.313 60.1357 136.1 60.1357C135.975 60.1357 135.838 60.1215 135.7 60.065C135.563 60.0226 135.425 59.9237 135.3 59.7823C135.175 59.641 135.063 59.429 134.975 59.1746C134.888 58.906 134.838 58.5668 134.825 58.1286C134.813 57.8035 134.813 57.4643 134.825 57.0827C134.838 56.7011 134.85 56.3336 134.863 55.9943C134.888 55.6551 134.9 55.3583 134.913 55.118C134.925 54.8777 134.938 54.7223 134.938 54.6799C134.938 54.5527 134.888 54.4537 134.813 54.3548C134.738 54.2558 134.638 54.2134 134.513 54.2134C134.375 54.2134 134.275 54.2558 134.2 54.3548C134.125 54.4396 134.075 54.5385 134.063 54.6657C133.963 55.8389 133.925 57.012 133.963 58.1993C133.975 58.6092 134.025 58.9908 134.125 59.3442C134.225 59.6975 134.363 60.0085 134.55 60.2629C134.738 60.5173 134.95 60.7152 135.213 60.8707C135.475 61.012 135.763 61.0968 136.1 61.0827C136.363 61.0827 136.625 61.012 136.875 60.8707C137.125 60.7293 137.375 60.5456 137.6 60.3194C137.838 60.0933 138.05 59.8389 138.263 59.5562C138.475 59.2735 138.663 58.9908 138.838 58.7081C139.013 58.4254 139.175 58.1428 139.313 57.8742C139.45 57.6056 139.575 57.3795 139.663 57.1958C139.7 57.1392 139.738 57.0686 139.788 56.9979C139.875 56.8141 139.95 56.6445 140.025 56.489C140.088 56.3194 140.15 56.1781 140.2 56.0509C140.288 56.2912 140.388 56.5173 140.5 56.7435C140.613 56.9555 140.713 57.1675 140.8 57.3795C140.888 57.5915 140.975 57.7894 141.025 58.0014C141.088 58.2134 141.113 58.4113 141.1 58.6233C141.1 58.7223 141.075 58.8353 141.038 58.9767C141 59.118 140.938 59.2311 140.863 59.3583C140.788 59.4714 140.675 59.5703 140.55 59.6551C140.425 59.7399 140.263 59.7682 140.088 59.7682C140 59.7682 139.913 59.7541 139.825 59.7117C139.738 59.6834 139.663 59.641 139.6 59.5986C139.538 59.5562 139.475 59.5138 139.438 59.4714C139.388 59.429 139.363 59.4007 139.363 59.3866C139.275 59.3018 139.175 59.2452 139.05 59.2452C138.938 59.2452 138.838 59.2876 138.75 59.3866C138.663 59.4855 138.613 59.5844 138.613 59.7117C138.613 59.7965 138.638 59.8671 138.675 59.9519C138.95 60.3901 139.3 60.7152 139.725 60.9131C140.15 61.1109 140.625 61.2099 141.125 61.224C141.55 61.2381 141.938 61.1675 142.288 61.0544C142.65 60.9272 142.975 60.7576 143.275 60.5456C143.575 60.3336 143.863 60.0791 144.113 59.8106C144.363 59.5279 144.6 59.2452 144.8 58.9625C145 58.6657 145.175 58.383 145.325 58.1145C145.475 57.8318 145.6 57.5915 145.7 57.3795C145.725 57.323 145.738 57.2664 145.75 57.1958C145.763 57.0827 145.725 56.9696 145.663 56.8707C145.588 56.7011 145.488 56.6587 145.363 56.6445Z" fill="white"/>
<path d="M217.325 78.0721C217.3 77.9449 217.238 77.8459 217.125 77.7894C216.95 77.6904 216.763 77.7046 216.588 77.8318C216.338 78.0014 216.038 78.1851 215.675 78.3972C215.313 78.6092 214.95 78.7929 214.575 78.9484C214.2 79.1039 213.825 79.2169 213.475 79.2735C213.125 79.33 212.825 79.2876 212.575 79.1463C211.925 78.7929 211.95 77.7046 212.638 75.8954C213.125 75.542 213.688 75.1039 214.325 74.6092C214.975 74.1003 215.638 73.535 216.338 72.913C217.038 72.2911 217.725 71.6127 218.413 70.8777C219.1 70.1427 219.7 69.3795 220.238 68.5597C220.488 68.1781 220.688 67.8247 220.838 67.4713C220.988 67.1321 221.088 66.807 221.113 66.5243C221.15 66.2416 221.113 65.9872 221.013 65.7611C220.913 65.5349 220.738 65.3512 220.475 65.2098C220.188 65.0544 219.875 64.9978 219.525 65.0685C219.188 65.125 218.838 65.2664 218.475 65.4925C218.113 65.7187 217.75 66.0014 217.375 66.3547C217 66.7081 216.638 67.0897 216.288 67.5137C215.938 67.9378 215.6 68.3759 215.263 68.8424C214.938 69.3088 214.638 69.7611 214.363 70.1993C213.738 71.2028 213.225 72.1498 212.825 73.0261C212.425 73.9024 212.088 74.6798 211.813 75.3583C211.263 75.7823 210.8 76.1074 210.425 76.3477C210.05 76.588 209.738 76.7576 209.475 76.8565C209.225 76.9555 209.013 77.012 208.85 76.9979C208.688 76.9979 208.55 76.9555 208.438 76.8989C208.163 76.7576 208.013 76.5456 207.988 76.277C207.963 76.0085 208.05 75.6834 208.275 75.33C208.538 74.8918 208.825 74.5526 209.15 74.2982C209.475 74.0438 209.8 73.8742 210.125 73.7752C210.45 73.6763 210.775 73.6339 211.088 73.6622C211.4 73.6763 211.675 73.7328 211.913 73.8176C212.025 73.86 212.15 73.86 212.263 73.8176C212.375 73.7752 212.463 73.7046 212.525 73.6056C212.6 73.4925 212.613 73.3795 212.575 73.2664C212.538 73.1533 212.475 73.0685 212.363 73.012C212.025 72.8424 211.638 72.7434 211.2 72.7293C210.763 72.7152 210.313 72.8 209.863 72.9554C209.525 73.0685 209.213 73.2523 208.9 73.4643C208.863 73.4643 208.838 73.436 208.8 73.4501C208.713 73.4501 208.625 73.4925 208.538 73.5491C208.188 73.8176 207.825 74.0721 207.438 74.3123C207.05 74.5526 206.663 74.7646 206.275 74.9201C205.888 75.0756 205.5 75.1745 205.113 75.2028C204.738 75.2311 204.375 75.1745 204.025 75.0049C203.688 74.8494 203.438 74.6516 203.275 74.4113C203.113 74.171 203.013 73.9166 202.975 73.6339C203.325 73.6198 203.675 73.5774 204.025 73.5067C204.375 73.436 204.7 73.3229 205 73.1816C205.3 73.0402 205.575 72.8565 205.825 72.6445C206.075 72.4325 206.275 72.1781 206.45 71.8812C206.575 71.6551 206.663 71.4289 206.675 71.2028C206.7 70.9766 206.675 70.7788 206.613 70.5809C206.55 70.3971 206.463 70.2275 206.325 70.072C206.2 69.9307 206.05 69.8176 205.875 69.7328C205.588 69.5915 205.288 69.5349 204.975 69.5632C204.663 69.5773 204.363 69.6763 204.063 69.8318C203.763 69.9872 203.488 70.1993 203.225 70.4819C203.15 70.5526 203.088 70.6374 203.025 70.7222C202.938 70.7364 202.863 70.7788 202.775 70.8494C202.6 71.0049 202.363 71.1887 202.038 71.4289C201.713 71.6551 201.363 71.8812 201 72.0791C200.638 72.277 200.263 72.4466 199.913 72.5455C199.55 72.6586 199.25 72.6586 199 72.5455C198.788 72.4466 198.613 72.3053 198.488 72.0933C198.363 71.8812 198.275 71.6409 198.225 71.3441C198.175 71.0614 198.15 70.7364 198.163 70.383C198.175 70.0296 198.213 69.6622 198.288 69.2805C198.475 69.1816 198.725 69.012 199.013 68.7717C199.313 68.5314 199.638 68.2346 199.988 67.8954C200.338 67.5561 200.713 67.1604 201.1 66.7505C201.488 66.3264 201.863 65.8883 202.238 65.436C202.613 64.9837 202.963 64.5031 203.288 64.0226C203.613 63.542 203.888 63.0756 204.125 62.6233C204.15 62.5809 204.163 62.5385 204.188 62.4961C206.163 63.3441 208.125 64.2487 210.075 65.1816C210.2 65.2381 210.325 65.2522 210.45 65.224C210.575 65.1957 210.663 65.125 210.738 65.012C210.8 64.8989 210.813 64.7858 210.763 64.6727C210.713 64.5597 210.625 64.4749 210.513 64.4183C208.538 63.4713 206.538 62.5667 204.538 61.7045C204.638 61.4218 204.713 61.1533 204.775 60.913C204.825 60.6586 204.838 60.4324 204.825 60.2346C204.8 60.0226 204.738 59.8388 204.638 59.6833C204.538 59.5279 204.388 59.4006 204.188 59.33C203.975 59.2452 203.763 59.2028 203.55 59.231C203.338 59.2593 203.113 59.3158 202.9 59.4289C202.688 59.542 202.463 59.6833 202.25 59.8529C202.038 60.0367 201.825 60.2487 201.613 60.4749C200.138 59.8671 198.65 59.2876 197.163 58.7222C197.038 58.6798 196.913 58.6657 196.8 58.7081C196.688 58.7505 196.6 58.8211 196.538 58.9483C196.488 59.0756 196.488 59.1886 196.538 59.2876C196.588 59.3865 196.688 59.4713 196.813 59.5137C198.225 60.0508 199.638 60.6021 201.038 61.1816C200.775 61.5208 200.538 61.8883 200.3 62.2558C200.063 62.6233 199.85 63.0049 199.65 63.3582C199.45 63.7257 199.275 64.065 199.1 64.3901C198.938 64.7151 198.8 65.012 198.675 65.2522C198.213 66.2416 197.85 67.1886 197.613 68.0791C197.563 68.277 197.513 68.4607 197.475 68.6445C197.425 68.6869 197.35 68.7434 197.275 68.8141C197.113 68.9554 196.888 69.1109 196.625 69.2947C196.363 69.4643 196.063 69.648 195.725 69.8318C195.388 70.0155 195.038 70.1568 194.65 70.2841C194.275 70.3971 193.875 70.4678 193.488 70.4819C193.088 70.4961 192.7 70.4395 192.3 70.2841C192 70.171 191.763 70.0014 191.6 69.7894C191.438 69.5773 191.325 69.3371 191.275 69.0685C191.225 68.8 191.213 68.5031 191.263 68.1922C191.313 67.8812 191.4 67.5703 191.525 67.2593C191.663 66.9342 191.838 66.6374 192.05 66.3689C192.263 66.1003 192.488 65.8883 192.713 65.7328C192.95 65.5632 193.188 65.4643 193.438 65.3936C193.688 65.3371 193.913 65.3512 194.125 65.4219C194.35 65.5067 194.513 65.648 194.6 65.8317C194.688 66.0155 194.7 66.1851 194.625 66.3406C194.575 66.4537 194.525 66.5385 194.463 66.6091C194.4 66.6657 194.35 66.7222 194.288 66.7505C194.238 66.7929 194.188 66.8212 194.138 66.8636C194.088 66.8918 194.05 66.9484 194.025 67.0049C193.975 67.1321 193.963 67.2452 194.013 67.3583C194.05 67.4713 194.138 67.5561 194.263 67.5985C194.338 67.6268 194.438 67.6268 194.55 67.5985C194.663 67.5703 194.775 67.4996 194.875 67.4148C194.988 67.33 195.1 67.2169 195.2 67.0897C195.3 66.9625 195.4 66.8212 195.475 66.6515C195.55 66.4819 195.588 66.2841 195.588 66.0862C195.588 65.8883 195.55 65.6763 195.475 65.4925C195.4 65.2947 195.275 65.1109 195.113 64.9554C194.95 64.7858 194.738 64.6586 194.488 64.5738C194.15 64.4466 193.8 64.4183 193.438 64.4749C193.075 64.5314 192.713 64.6727 192.363 64.8848C192.013 65.0968 191.7 65.3795 191.4 65.7469C191.363 65.8035 191.325 65.86 191.288 65.9166C191.275 65.9166 191.263 65.9166 191.263 65.9166C191.175 65.9307 191.1 65.9731 191.025 66.0438C190.725 66.3406 190.4 66.6374 190.063 66.9342C189.725 67.2311 189.375 67.4713 189.013 67.6833C188.65 67.8954 188.288 68.0367 187.925 68.1074C187.563 68.1922 187.2 68.1639 186.85 68.0508C186.5 67.9378 186.225 67.7682 186.038 67.5561C185.85 67.3441 185.713 67.0897 185.65 66.8212C185.988 66.7646 186.325 66.6798 186.65 66.5667C186.975 66.4537 187.275 66.2982 187.55 66.1286C187.825 65.9448 188.063 65.7469 188.275 65.4925C188.488 65.2522 188.663 64.9696 188.775 64.6586C188.875 64.4183 188.913 64.178 188.913 63.9519C188.9 63.7257 188.863 63.5279 188.775 63.3441C188.688 63.1604 188.575 63.0049 188.438 62.8777C188.3 62.7505 188.138 62.6515 187.963 62.595C187.663 62.4961 187.363 62.4819 187.075 62.5385C186.775 62.595 186.488 62.7222 186.225 62.9201C185.95 63.1038 185.713 63.3582 185.5 63.6551C185.425 63.754 185.363 63.8671 185.3 63.9802C185.25 64.0084 185.2 64.0226 185.15 64.0791C185 64.2487 184.775 64.4749 184.488 64.7575C184.2 65.0261 183.888 65.2946 183.55 65.5349C183.213 65.7752 182.875 65.9731 182.525 66.1286C182.175 66.2841 181.863 66.3123 181.588 66.2275C181.438 66.1851 181.325 66.1144 181.25 66.0014C181.175 65.9024 181.138 65.7752 181.125 65.6339C181.113 65.4925 181.138 65.3229 181.175 65.1533C181.213 64.9696 181.263 64.7858 181.325 64.6021C181.375 64.4466 181.438 64.2911 181.5 64.1356C181.563 63.966 181.638 63.8105 181.7 63.6409C181.763 63.4855 181.825 63.33 181.888 63.1886C181.95 63.0473 182 62.9201 182.025 62.8211C182.175 62.383 182.2 61.9872 182.113 61.6339C182.025 61.2805 181.775 61.0402 181.375 60.9271C181.175 60.8706 180.938 60.8706 180.675 60.9271C180.413 60.9837 180.125 61.125 179.813 61.337C179.5 61.5632 179.2 61.8035 178.9 62.0579C178.6 62.3123 178.313 62.5809 178.038 62.8494C177.763 63.118 177.5 63.3865 177.25 63.6551C177 63.9236 176.775 64.178 176.575 64.4042C176.663 64.178 176.775 63.9095 176.9 63.5703C177.025 63.2452 177.163 62.9059 177.288 62.5667C177.425 62.2275 177.538 61.9165 177.65 61.6197C177.763 61.3229 177.838 61.1109 177.875 60.9696C177.938 60.7858 177.975 60.5879 177.988 60.4042C178.013 60.2204 178 60.0367 177.975 59.8671C177.95 59.6975 177.888 59.5561 177.788 59.4289C177.688 59.3017 177.55 59.2169 177.375 59.1745C177.075 59.1038 176.713 59.2169 176.288 59.542C175.875 59.8671 175.375 60.4042 174.788 61.1816C174.788 61.1816 174.788 61.1957 174.775 61.1957C174.638 61.3794 174.438 61.6197 174.175 61.9024C173.913 62.1992 173.625 62.4678 173.313 62.7363C173 63.0049 172.675 63.231 172.338 63.4007C172.013 63.5703 171.7 63.6268 171.413 63.5703C171.263 63.542 171.138 63.4713 171.063 63.3724C170.988 63.2734 170.938 63.1604 170.913 63.0049C170.888 62.8635 170.9 62.6939 170.925 62.5243C170.95 62.3406 170.988 62.1568 171.038 61.9731C171.075 61.8176 171.125 61.6621 171.175 61.4925C171.225 61.3229 171.288 61.1533 171.338 60.9837C171.388 60.8141 171.438 60.6586 171.488 60.5173C171.538 60.3759 171.575 60.2487 171.6 60.1498C171.713 59.6975 171.713 59.3017 171.588 58.9625C171.475 58.6233 171.213 58.3971 170.813 58.3123C170.613 58.2699 170.375 58.284 170.125 58.3688C169.863 58.4395 169.6 58.595 169.3 58.8353C169.013 59.0756 168.725 59.3441 168.45 59.6268C168.175 59.9095 167.913 60.1922 167.65 60.4749C167.4 60.7575 167.15 61.0544 166.925 61.337C166.7 61.6197 166.5 61.8883 166.313 62.1286C166.388 61.9024 166.475 61.6197 166.575 61.2805C166.675 60.9413 166.775 60.6021 166.888 60.2487C166.988 59.9095 167.088 59.5844 167.175 59.2876C167.263 58.9907 167.325 58.7646 167.35 58.6233C167.388 58.4254 167.413 58.2416 167.425 58.0437C167.425 57.8459 167.413 57.6763 167.375 57.5066C167.338 57.337 167.263 57.1957 167.15 57.0826C167.05 56.9695 166.9 56.8989 166.725 56.8565C166.425 56.7999 166.075 56.9413 165.688 57.2946C165.3 57.648 164.85 58.2275 164.325 59.0331C164.313 59.0473 164.313 59.0614 164.313 59.0756C164.175 59.2734 164.025 59.443 163.888 59.5844C163.713 59.7681 163.538 59.9095 163.338 60.0084C163.15 60.1074 162.938 60.178 162.725 60.2063C162.513 60.2346 162.275 60.2346 162.013 60.1922C161.963 60.178 161.913 60.178 161.863 60.1639C161.813 60.1498 161.775 60.1498 161.725 60.1356C161.838 59.8671 161.913 59.5985 161.963 59.3441C162.05 58.8494 162.088 58.4254 162.063 58.0579C162.038 57.6904 161.975 57.3794 161.875 57.1392C161.775 56.8847 161.638 56.701 161.463 56.5738C161.288 56.4466 161.1 56.3618 160.888 56.3335C160.538 56.277 160.225 56.39 159.963 56.6445C159.7 56.913 159.538 57.2664 159.463 57.7328C159.375 58.3123 159.438 58.8494 159.65 59.3441C159.863 59.8529 160.175 60.2628 160.575 60.5738C160.363 60.8847 160.1 61.125 159.788 61.2946C159.475 61.4643 159.1 61.5208 158.675 61.4643C158.438 61.436 158.225 61.3512 158.038 61.2381C157.85 61.125 157.7 60.9695 157.588 60.7858C157.463 60.6021 157.388 60.39 157.35 60.1498C157.313 59.9095 157.3 59.6551 157.338 59.3865C157.375 59.0897 157.463 58.8211 157.575 58.5808C157.688 58.3406 157.813 58.1427 157.963 57.9872C158.113 57.8176 158.263 57.6904 158.413 57.5914C158.575 57.4925 158.713 57.4218 158.85 57.3653C158.988 57.3229 159.1 57.2664 159.188 57.2098C159.275 57.1533 159.338 57.0543 159.363 56.913C159.388 56.7858 159.363 56.6869 159.313 56.602C159.263 56.5172 159.163 56.4748 159.025 56.4466C158.913 56.4324 158.725 56.4748 158.475 56.5596C158.225 56.6586 157.963 56.8141 157.688 57.0402C157.475 57.224 157.275 57.4642 157.075 57.7328H157.063C156.988 57.7752 156.925 57.8317 156.875 57.9024C156.85 57.9448 156.788 58.0579 156.675 58.2416C156.563 58.4254 156.413 58.6374 156.213 58.8635C156.025 59.1038 155.8 59.3582 155.538 59.6127C155.275 59.8812 154.988 60.1074 154.675 60.3335C154.363 60.5455 154.013 60.7151 153.65 60.8423C153.288 60.9695 152.9 61.012 152.5 60.9696C152.188 60.9413 151.913 60.8423 151.7 60.6869C151.488 60.5314 151.313 60.3194 151.188 60.0791C151.063 59.8388 150.975 59.5561 150.925 59.2452C150.875 58.9342 150.875 58.6091 150.9 58.284C150.938 57.9307 151.013 57.6056 151.125 57.2946C151.238 56.9837 151.388 56.7293 151.563 56.5031C151.738 56.277 151.925 56.1073 152.138 55.9943C152.35 55.8671 152.563 55.8247 152.788 55.8388C153.025 55.8671 153.213 55.9519 153.35 56.1073C153.488 56.2628 153.55 56.4183 153.525 56.5879C153.513 56.7151 153.488 56.8141 153.45 56.8847C153.413 56.9554 153.375 57.0261 153.338 57.0685C153.3 57.125 153.263 57.1674 153.225 57.2098C153.188 57.2522 153.175 57.3088 153.163 57.3794C153.15 57.5066 153.175 57.6197 153.25 57.7187C153.325 57.8176 153.425 57.8741 153.55 57.8883C153.638 57.9024 153.725 57.8741 153.813 57.8035C153.9 57.7469 153.988 57.6621 154.063 57.549C154.138 57.436 154.213 57.3088 154.275 57.1533C154.338 56.9978 154.375 56.8423 154.4 56.6586C154.425 56.4748 154.4 56.277 154.338 56.0791C154.275 55.8812 154.188 55.6975 154.063 55.542C153.938 55.3724 153.775 55.231 153.575 55.1179C153.375 55.0049 153.138 54.9342 152.888 54.9059C152.538 54.8777 152.213 54.9342 151.888 55.0897C151.563 55.2452 151.275 55.4713 151.013 55.7681C150.75 56.0649 150.538 56.4183 150.375 56.8423C150.2 57.2664 150.1 57.7187 150.063 58.1992C150.013 58.7081 150.038 59.1745 150.125 59.5985C150.213 60.0226 150.35 60.4042 150.563 60.7293C150.763 61.0544 151.025 61.3088 151.338 61.5067C151.65 61.7045 152.013 61.8176 152.45 61.86C152.925 61.9024 153.375 61.86 153.813 61.7328C154.238 61.6056 154.638 61.4218 155 61.1957C155.363 60.9695 155.7 60.7151 156 60.4183C156.188 60.2346 156.35 60.065 156.513 59.8953C156.525 60.0508 156.538 60.2063 156.563 60.3618C156.638 60.7151 156.763 61.0261 156.95 61.2946C157.138 61.5632 157.363 61.7752 157.638 61.959C157.913 62.1286 158.225 62.2416 158.575 62.284C158.875 62.3264 159.163 62.3123 159.425 62.2699C159.7 62.2134 159.95 62.1286 160.175 62.0014C160.413 61.8741 160.625 61.7187 160.813 61.5491C161 61.3653 161.175 61.1674 161.338 60.9413C161.475 60.9978 161.638 61.0402 161.825 61.0685C162.175 61.1392 162.513 61.1392 162.813 61.0826C163.113 61.0261 163.4 60.9413 163.663 60.8141C163.925 60.6869 164.163 60.5314 164.375 60.3335C164.588 60.1356 164.788 59.9377 164.963 59.7116C165 59.6551 165.05 59.5844 165.1 59.5137C165.113 59.4996 165.113 59.4854 165.113 59.4854C165.525 58.8494 165.85 58.3971 166.075 58.1568C166.313 57.9165 166.463 57.7893 166.538 57.7752C166.575 57.8176 166.588 57.9448 166.563 58.1286C166.538 58.3123 166.513 58.5102 166.463 58.7081C166.425 58.8635 166.388 59.0473 166.325 59.2734C166.263 59.4996 166.188 59.7399 166.113 59.9943C166.038 60.2487 165.963 60.5172 165.875 60.7717C165.8 61.0261 165.725 61.2805 165.65 61.5067C165.575 61.7328 165.525 61.9307 165.475 62.0862C165.425 62.2416 165.4 62.3547 165.388 62.4112C165.338 62.6657 165.363 62.8777 165.463 63.0473C165.563 63.2169 165.725 63.3158 165.938 63.3582C166.088 63.3865 166.263 63.3582 166.438 63.2734C166.613 63.1886 166.813 62.9908 167.038 62.6798C167.15 62.5243 167.3 62.3123 167.5 62.072C167.688 61.8317 167.9 61.5773 168.113 61.3088C168.338 61.0402 168.575 60.7717 168.813 60.5173C169.063 60.2487 169.3 60.0226 169.525 59.8105C169.75 59.6127 169.963 59.443 170.15 59.33C170.338 59.2169 170.5 59.1745 170.625 59.2028C170.688 59.2169 170.75 59.2734 170.8 59.3865C170.85 59.4996 170.85 59.6833 170.788 59.9377C170.75 60.0932 170.7 60.2487 170.65 60.4183C170.6 60.5879 170.538 60.7434 170.488 60.913C170.425 61.0826 170.375 61.2381 170.325 61.3794C170.275 61.5349 170.238 61.6621 170.213 61.7893C170.15 62.072 170.1 62.3547 170.075 62.6374C170.05 62.9201 170.075 63.1886 170.138 63.4431C170.2 63.6975 170.325 63.9095 170.5 64.1074C170.675 64.2911 170.925 64.4183 171.263 64.5031C171.563 64.5738 171.863 64.5597 172.175 64.4607C172.488 64.3618 172.788 64.2346 173.088 64.0508C173.388 63.8671 173.675 63.6551 173.95 63.4148C174.225 63.1745 174.475 62.9342 174.688 62.7222C174.9 62.4961 175.088 62.2982 175.238 62.1286C175.388 61.959 175.488 61.8317 175.525 61.7752C175.525 61.7752 175.525 61.7611 175.538 61.7611C176 61.1392 176.363 60.7293 176.613 60.5031C176.863 60.277 177.038 60.1639 177.113 60.1498C177.15 60.2063 177.15 60.3194 177.113 60.5031C177.075 60.6869 177.025 60.8847 176.975 61.0826C176.925 61.2381 176.875 61.4218 176.788 61.6339C176.713 61.8459 176.625 62.0862 176.525 62.3406C176.425 62.595 176.325 62.8494 176.225 63.1038C176.125 63.3582 176.038 63.5985 175.95 63.8105C175.863 64.0367 175.788 64.2204 175.725 64.3759C175.663 64.5314 175.625 64.6445 175.613 64.701C175.538 64.9554 175.55 65.1674 175.638 65.337C175.725 65.5067 175.875 65.6197 176.088 65.6763C176.238 65.7187 176.413 65.7045 176.588 65.6197C176.775 65.5491 176.988 65.3653 177.238 65.0685C177.363 64.913 177.538 64.7293 177.738 64.489C177.95 64.2628 178.175 64.0226 178.413 63.7681C178.65 63.5137 178.913 63.2734 179.175 63.019C179.45 62.7787 179.7 62.5526 179.95 62.3688C180.2 62.1851 180.425 62.0296 180.625 61.9307C180.825 61.8317 180.988 61.7893 181.113 61.8317C181.175 61.8459 181.225 61.9166 181.275 62.0296C181.325 62.1427 181.3 62.3264 181.225 62.5667C181.175 62.7222 181.125 62.8635 181.05 63.0332C180.988 63.1886 180.913 63.3582 180.838 63.5137C180.763 63.6692 180.7 63.8247 180.638 63.966C180.575 64.1074 180.525 64.2487 180.488 64.3618C180.4 64.6303 180.325 64.913 180.288 65.1957C180.238 65.4784 180.238 65.7469 180.288 66.0014C180.338 66.2558 180.438 66.4819 180.6 66.6798C180.763 66.8777 181.013 67.019 181.338 67.118C181.625 67.2028 181.938 67.2169 182.263 67.1462C182.588 67.0756 182.9 66.9625 183.213 66.7929C183.525 66.6374 183.825 66.4395 184.125 66.2134C184.363 66.0438 184.563 65.8742 184.763 65.7045C184.75 65.7894 184.738 65.8742 184.725 65.959C184.688 66.383 184.725 66.7929 184.838 67.1886C184.95 67.5703 185.138 67.9236 185.413 68.2346C185.688 68.5455 186.063 68.7858 186.538 68.9413C187.288 69.1816 188.075 69.1109 188.913 68.7293C189.4 68.5031 189.913 68.178 190.463 67.754C190.413 67.9519 190.375 68.1498 190.35 68.3477C190.3 68.7858 190.338 69.1816 190.438 69.5491C190.538 69.9166 190.725 70.2417 190.975 70.5102C191.225 70.7788 191.55 70.9908 191.963 71.1463C192.425 71.3159 192.888 71.4007 193.35 71.4007C193.813 71.4007 194.263 71.33 194.688 71.2169C195.113 71.1039 195.525 70.9484 195.913 70.7505C196.3 70.5526 196.638 70.3547 196.95 70.1569C197.075 70.072 197.175 70.0014 197.288 69.9307C197.275 70.1286 197.263 70.3265 197.25 70.5102C197.238 71.2311 197.35 71.8388 197.575 72.3477C197.8 72.8424 198.163 73.2099 198.663 73.4219C198.938 73.5491 199.238 73.5774 199.563 73.5491C199.888 73.5067 200.213 73.436 200.55 73.3088C200.888 73.1816 201.213 73.0261 201.525 72.8424C201.775 72.701 201.988 72.5597 202.2 72.4042C202.175 72.489 202.15 72.5738 202.125 72.6586C202.038 73.0827 202.025 73.4925 202.088 73.8883C202.15 74.2841 202.3 74.6516 202.538 75.0049C202.775 75.3441 203.125 75.6268 203.588 75.853C204.325 76.1781 205.125 76.2063 206.025 75.9378C206.413 75.8247 206.838 75.641 207.263 75.4148C207.188 75.5986 207.125 75.7682 207.1 75.9236C207.05 76.2205 207.05 76.4749 207.1 76.7152C207.15 76.9413 207.263 77.1533 207.413 77.3088C207.563 77.4784 207.75 77.6198 207.963 77.7187C208.363 77.9166 208.838 77.9449 209.375 77.8035C209.925 77.6622 210.588 77.3088 211.375 76.7717C211.15 77.6622 211.1 78.3547 211.225 78.8636C211.35 79.3724 211.65 79.7541 212.113 80.0085C212.363 80.1498 212.638 80.2205 212.938 80.2205C213.238 80.2205 213.563 80.1922 213.888 80.1215C214.213 80.0509 214.538 79.9378 214.863 79.7965C215.188 79.6551 215.5 79.5138 215.788 79.3583C216.075 79.2169 216.338 79.0615 216.563 78.9201C216.788 78.7788 216.975 78.6657 217.1 78.5668C217.15 78.5385 217.188 78.4961 217.238 78.4396C217.325 78.3123 217.338 78.1993 217.325 78.0721ZM161.038 59.6833C160.9 59.5561 160.775 59.4006 160.688 59.2452C160.6 59.0756 160.525 58.9059 160.475 58.7222C160.425 58.5384 160.388 58.3688 160.375 58.1851C160.363 58.0155 160.375 57.8459 160.4 57.6904C160.438 57.4501 160.5 57.2946 160.588 57.2381C160.675 57.1816 160.75 57.1533 160.788 57.1533C160.9 57.1674 160.988 57.2381 161.063 57.3794C161.125 57.5066 161.175 57.6763 161.2 57.8741C161.225 58.072 161.238 58.284 161.225 58.5243C161.213 58.7505 161.188 58.9766 161.163 59.2028C161.125 59.3582 161.088 59.5137 161.038 59.6833ZM185.6 65.9166C185.613 65.7611 185.638 65.6056 185.663 65.4501C185.7 65.2805 185.738 65.1392 185.788 64.9978C185.875 64.7717 185.975 64.5597 186.1 64.3335C186.225 64.1215 186.375 63.9378 186.525 63.7823C186.688 63.6268 186.863 63.5137 187.05 63.4431C187.238 63.3724 187.438 63.3724 187.638 63.4431C187.788 63.4996 187.9 63.5985 187.975 63.754C188.038 63.9095 188.038 64.1074 187.938 64.3335C187.863 64.5455 187.738 64.7293 187.588 64.913C187.438 65.0968 187.25 65.2522 187.05 65.3936C186.85 65.5349 186.613 65.648 186.363 65.7469C186.125 65.8318 185.875 65.8883 185.6 65.9166ZM203.313 60.178C203.513 60.0932 203.663 60.065 203.725 60.0932C203.825 60.1356 203.863 60.2628 203.85 60.4749C203.838 60.6869 203.775 60.9554 203.663 61.2805C203.288 61.125 202.913 60.9554 202.538 60.7999C202.838 60.4748 203.1 60.277 203.313 60.178ZM200.838 63.1038C201.238 62.4395 201.6 61.9024 201.925 61.4925C202.388 61.6904 202.85 61.8741 203.3 62.072C203.063 62.5385 202.775 63.0332 202.425 63.5703C202.075 64.0932 201.688 64.6162 201.275 65.1533C200.85 65.6763 200.413 66.1851 199.95 66.6798C199.488 67.1745 199.025 67.6127 198.563 68.0226C198.65 67.6975 198.763 67.3441 198.913 66.9625C199.063 66.5809 199.263 66.1144 199.525 65.5632C200.013 64.5879 200.45 63.7681 200.838 63.1038ZM203.038 72.7152C203.075 72.5597 203.113 72.4183 203.175 72.2487C203.225 72.0933 203.288 71.9519 203.363 71.8106C203.475 71.5986 203.613 71.3865 203.763 71.1887C203.925 70.9908 204.088 70.8212 204.275 70.694C204.463 70.5526 204.65 70.4678 204.85 70.4254C205.05 70.383 205.25 70.4113 205.45 70.4961C205.6 70.5667 205.7 70.6798 205.75 70.8494C205.8 71.019 205.763 71.2028 205.638 71.4289C205.525 71.6268 205.388 71.7964 205.2 71.966C205.025 72.1215 204.813 72.2629 204.588 72.3759C204.363 72.489 204.113 72.5738 203.85 72.6304C203.575 72.701 203.313 72.7293 203.038 72.7152ZM214.138 72.5031C214.475 71.853 214.838 71.2169 215.238 70.595C215.65 69.9448 216.088 69.3229 216.563 68.7152C217.038 68.1074 217.5 67.5985 217.938 67.1462C218.375 66.7081 218.788 66.383 219.15 66.1568C219.513 65.9307 219.8 65.8742 219.988 65.9872C220.1 66.0438 220.163 66.1568 220.15 66.3123C220.138 66.4678 220.1 66.6515 220.025 66.8494C219.95 67.0473 219.85 67.2593 219.738 67.4713C219.613 67.6833 219.5 67.8671 219.388 68.0508C219 68.6586 218.563 69.2381 218.075 69.7894C217.6 70.3547 217.088 70.8918 216.563 71.4148C216.038 71.9378 215.488 72.4325 214.938 72.8989C214.375 73.3653 213.825 73.8176 213.275 74.2558C213.5 73.7328 213.8 73.1533 214.138 72.5031Z" fill="white"/>
</svg>
