<svg width="54" height="54" viewBox="0 0 54 54" fill="none" xmlns="http://www.w3.org/2000/svg">
<circle cx="27" cy="27" r="26.5" stroke="white"/>
<path d="M30.3824 19.6624C30.2838 19.6908 30.2044 19.7234 30.14 19.7579C29.9864 19.8095 29.8745 19.9187 29.8073 20.0316C29.732 20.1582 29.7054 20.2962 29.6924 20.3878C29.6666 20.5705 29.6666 20.8105 29.6667 21.038L29.6667 21.0672V22.7479V23.2479H30.1667H33.3333C33.4196 23.2479 33.5053 23.2488 33.5838 23.262C33.6206 23.2682 33.6444 23.2754 33.6575 23.2807L33.7023 23.3258L33.7749 23.3624C33.834 23.3922 33.9375 23.4806 34.0286 23.6338C34.1168 23.7819 34.1667 23.9467 34.1667 24.0924V28.4622C34.1667 28.9043 33.8467 29.3067 33.3333 29.3067H30.1667H29.6667V29.8067V39.8908C29.6667 40.3328 29.3467 40.7353 28.8333 40.7353H24.3333C23.9051 40.7353 23.5 40.4187 23.5 39.8908V29.6387V29.1387H23H20.3333C19.9051 29.1387 19.5 28.822 19.5 28.2941V23.9244C19.5 23.4823 19.82 23.0798 20.3333 23.0798H23H23.5V22.5798V20.395C23.5 18.3197 24.1299 16.5971 25.2001 15.3571C26.4212 14.1325 28.1129 13.5 30.1667 13.5H33.6667C34.0949 13.5 34.5 13.8166 34.5 14.3445V18.7143C34.5 19.1564 34.18 19.5588 33.6667 19.5588H31.3333C30.8859 19.5588 30.5865 19.6036 30.3824 19.6624Z" stroke="white"/>
</svg>
