<svg width="36" height="36" viewBox="0 0 36 36" fill="none" xmlns="http://www.w3.org/2000/svg">
<circle cx="18" cy="18" r="17.5" stroke="white"/>
<path d="M23.2083 8.84171V8.34171H22.7083H20.2542C18.8554 8.34171 17.686 8.76529 16.8006 9.65066C15.9064 10.5449 15.4917 11.8501 15.4917 13.2334V15.0417V15.8334H14.7H12.8917H12.3917V16.3334V19.175V19.675H12.8917H14.7H15.4917V20.5959V28.3459V28.6962C15.322 28.6152 15.2 28.4466 15.2 28.2167V20.3375V19.8375H14.7H12.6333C12.351 19.8375 12.1 19.6338 12.1 19.3042V15.9459C12.1 15.6635 12.3037 15.4125 12.6333 15.4125H14.7H15.2V14.9125V13.2334C15.2 11.6649 15.6792 10.3708 16.4862 9.44186C17.4071 8.52774 18.6868 8.05005 20.2542 8.05005H22.9667C23.249 8.05005 23.5 8.25375 23.5 8.58338V11.9417C23.5 12.2241 23.2963 12.475 22.9667 12.475H21.1583C20.805 12.475 20.5621 12.5101 20.3913 12.5589C20.3127 12.5813 20.2464 12.6075 20.1905 12.6364C20.0476 12.6866 19.9428 12.7886 19.8799 12.8934C19.8093 13.0111 19.786 13.1362 19.7753 13.2111C19.754 13.3602 19.7541 13.5525 19.7542 13.7236C19.7542 13.7325 19.7542 13.7413 19.7542 13.75V15.0417V15.5417H20.2542H22.7083C22.7758 15.5417 22.8338 15.5426 22.8845 15.5511C22.8909 15.5521 22.8965 15.5532 22.9013 15.5543L22.9288 15.5818L23.0014 15.6181C23.0232 15.629 23.0889 15.6791 23.1515 15.7833C23.1614 15.7999 23.1705 15.8166 23.1788 15.8334H22.7083H20.3833H19.5917V15.0417V13.75C19.5917 13.4841 19.593 13.2376 19.6325 13.0135C19.6716 12.7921 19.7397 12.6467 19.8327 12.5536L19.8763 12.5101L19.9079 12.4573C20.0164 12.2765 20.1782 12.1762 20.3976 12.1185C20.6321 12.0567 20.8912 12.0542 21.1583 12.0542H22.7083H23.2083V11.5542V8.84171ZM19.5917 20.5959V19.8042H20.3833H22.7083H23.1002C23.008 19.9032 22.8741 19.9667 22.7083 19.9667H20.2542H19.7542V20.4667V28.2167C19.7542 28.3675 19.6961 28.5094 19.5917 28.6088V28.3459V20.5959ZM23.2417 19.4334C23.2417 19.5003 23.2302 19.5655 23.2083 19.626V19.3042V16.3334V15.9023C23.2304 15.9631 23.2417 16.0227 23.2417 16.075V19.4334Z" stroke="white"/>
</svg>
