<svg width="36" height="36" viewBox="0 0 36 36" fill="none" xmlns="http://www.w3.org/2000/svg">
<circle cx="18" cy="18" r="17.5" stroke="white"/>
<path d="M26 22.1967C26 24.2951 24.2951 26 22.1967 26H13.8033C11.7049 26 10 24.2951 10 22.1967V13.8033C10 11.7049 11.7049 10 13.8033 10H22.1967C24.2951 10 26 11.7049 26 13.8033V22.1967Z" stroke="white" stroke-miterlimit="10"/>
<path d="M17.8688 21.9345C15.7705 21.9345 13.9344 20.2296 13.9344 18.0001C13.9344 15.9017 15.6393 14.0657 17.8688 14.0657C19.9672 14.0657 21.8033 15.7706 21.8033 18.0001C21.8033 20.2296 20.0983 21.9345 17.8688 21.9345Z" stroke="white" stroke-miterlimit="10"/>
<path d="M22.7213 12.2295C22.1967 12.2295 21.8032 12.6229 21.8032 13.1475C21.8032 13.6721 22.1967 14.0656 22.7213 14.0656C23.2458 14.0656 23.6393 13.6721 23.6393 13.1475C23.6393 12.6229 23.2458 12.2295 22.7213 12.2295Z" fill="white"/>
</svg>
