<svg width="54" height="54" viewBox="0 0 54 54" fill="none" xmlns="http://www.w3.org/2000/svg">
<circle cx="27" cy="27" r="26.5" stroke="white"/>
<path d="M39 33.5682C39 36.715 36.4426 39.2717 33.2951 39.2717H20.7049C17.5574 39.2717 15 36.715 15 33.5682V20.9813C15 17.8346 17.5574 15.2778 20.7049 15.2778H33.2951C36.4426 15.2778 39 17.8346 39 20.9813V33.5682Z" stroke="white" stroke-miterlimit="10"/>
<path d="M26.8037 33.1753C23.6561 33.1753 20.902 30.6185 20.902 27.2751C20.902 24.1284 23.4594 21.375 26.8037 21.375C29.9512 21.375 32.7053 23.9317 32.7053 27.2751C32.7053 30.6185 30.1479 33.1753 26.8037 33.1753Z" stroke="white" stroke-miterlimit="10"/>
<path d="M34.0817 18.6211C33.2948 18.6211 32.7047 19.2111 32.7047 19.9978C32.7047 20.7845 33.2948 21.3745 34.0817 21.3745C34.8686 21.3745 35.4588 20.7845 35.4588 19.9978C35.4588 19.2111 34.8686 18.6211 34.0817 18.6211Z" fill="white"/>
</svg>
