<svg width="40" height="27" viewBox="0 0 40 27" fill="none" xmlns="http://www.w3.org/2000/svg">
<path d="M39.8005 1.64532C39.2709 0.720383 37.1526 -0.346851 28.9619 2.96158L27.6556 0.61366C27.1966 -0.204553 25.6785 -0.204553 23.1365 0.61366C20.8064 1.36072 17.9114 2.74813 15.0163 4.4557C12.086 6.16328 9.50875 8.04873 7.70819 9.72073C5.7311 11.5706 4.95439 12.8869 5.44866 13.7051L6.75495 16.053C-0.200155 21.6737 -0.341376 24.0928 0.1882 25.0178C0.929607 26.334 3.68341 26.2629 8.02593 24.8399C8.94386 24.5197 9.96771 24.164 11.0622 23.7371L12.545 26.334C12.7921 26.7609 13.2864 26.9388 14.0278 26.9388C14.7692 26.9388 15.8284 26.7253 17.0993 26.2984C19.4295 25.5514 22.2892 24.164 25.2195 22.4564C28.1498 20.7488 30.7271 18.8634 32.5277 17.1914C34.5047 15.3415 35.2815 14.0252 34.7872 13.207L33.3044 10.6101C34.187 9.8986 35.0343 9.18711 35.7757 8.47562C38.1059 6.30558 40.7538 3.31732 39.8005 1.64532ZM12.9333 22.9189C13.1099 22.8477 13.3217 22.741 13.4982 22.6698L13.5688 22.6343C13.8866 22.492 14.2043 22.3497 14.5221 22.1718C14.7692 22.0651 15.0163 21.9583 15.2282 21.816C15.5106 21.6738 15.7931 21.5315 16.0755 21.3892L16.2873 21.2824C16.3932 21.2469 16.4992 21.1757 16.6051 21.1401C16.711 21.1046 16.7816 21.0334 16.8875 20.9978C17.4171 20.7132 17.9467 20.4642 18.4762 20.1796C18.6528 20.0729 18.8646 19.9662 19.0411 19.895C19.4648 19.6816 19.8531 19.4326 20.2768 19.2191L20.8064 18.8989C21.4419 18.5432 22.0067 18.223 22.5363 17.9029C22.96 17.6538 23.3836 17.4048 23.8073 17.1558L24.0897 16.9779C24.4781 16.7289 24.9018 16.4799 25.2901 16.2309L25.3254 16.1953C25.7491 15.9107 26.1728 15.6617 26.5964 15.3771L26.7376 15.2703C28.9619 13.8829 30.9742 12.46 32.7395 11.037L34.1517 13.5272C34.3635 13.8829 33.9046 14.9146 31.9981 16.6577C30.2328 18.2942 27.6556 20.144 24.7958 21.8516C21.9361 23.5592 19.0764 24.8755 16.8169 25.6225C14.3808 26.4052 13.2864 26.2984 13.0746 25.9427L11.6624 23.4525C12.086 23.3102 12.5097 23.0967 12.9333 22.9189ZM32.7748 10.1476L32.6336 10.2543C30.833 11.6773 28.7853 13.1715 26.5258 14.6656C26.4905 14.7012 26.4552 14.7367 26.3846 14.7367C25.5373 15.3059 24.6546 15.8395 23.8073 16.3732L23.5249 16.551C23.1012 16.8 22.6775 17.0846 22.2186 17.3337C21.6184 17.6894 21.0535 18.0096 20.4886 18.3298L19.9237 18.6499C19.5354 18.8634 19.147 19.0768 18.7587 19.2903C18.5469 19.397 18.335 19.5037 18.1232 19.6104C17.6642 19.8595 17.2406 20.0729 16.7816 20.2863C16.5345 20.3931 16.3226 20.5354 16.0755 20.6421L16.0049 20.6777C15.6165 20.8555 15.2635 21.069 14.8751 21.2469C14.628 21.3536 14.3808 21.4959 14.1337 21.6026L13.2511 21.9939C13.004 22.1006 12.7568 22.2074 12.5097 22.3141C12.2625 22.4208 12.0154 22.5275 11.7683 22.6343L11.5211 22.7766C11.4152 22.8121 11.3093 22.8833 11.2034 22.9189L10.9916 22.99C9.8618 23.4525 8.80264 23.8438 7.8141 24.164C4.00115 25.4091 1.31796 25.5869 0.788387 24.662C0.258811 23.7371 1.6004 21.1046 7.07269 16.6577L7.46105 17.3337C4.98969 19.6816 4.03646 21.3892 4.63664 22.4208C4.91908 22.9189 5.55457 23.2035 6.54312 23.2035C7.84941 23.2035 9.57936 22.741 10.7797 22.3141C13.9925 21.2469 18.0173 19.3614 22.0774 16.9423C26.1374 14.5589 29.7386 11.9619 32.2805 9.614C34.1517 7.90643 36.1994 5.55851 35.458 4.24226C34.7519 2.96158 31.9628 3.53077 29.7386 4.20668L29.2796 3.56634C35.7757 0.969404 38.7061 1.07613 39.2003 2.00106C39.7299 2.96158 38.2118 5.23834 35.2815 7.97758C34.5401 8.68907 33.6927 9.40056 32.7748 10.1476ZM34.8225 4.598C35.2109 5.30949 34.0458 7.01707 31.7863 9.11596C29.3149 11.3927 25.7491 13.9541 21.7243 16.3376C17.7348 18.6855 13.7454 20.5709 10.5679 21.6382C7.67288 22.5987 5.62519 22.741 5.20152 22.0651C4.84847 21.4247 5.83702 19.8595 7.8141 17.9384L9.01447 20.0373C9.47344 20.8555 11.0269 20.8555 13.5335 20.0373C15.8637 19.2903 18.7587 17.9029 21.6537 16.1953C24.4075 14.5589 27.0201 12.6734 28.8206 11.0726C30.2681 9.7563 31.8569 7.97758 31.2567 6.94592L30.021 4.84702C32.6336 4.06438 34.4694 3.95766 34.8225 4.598ZM21.3006 15.6261C18.4409 17.3337 15.5812 18.6499 13.3217 19.397C10.8856 20.1796 9.79119 20.0729 9.57936 19.7172L6.54312 14.3454C6.64903 14.3454 6.79025 14.381 6.89617 14.381C7.63758 14.381 8.66142 14.1675 9.96771 13.7406C12.2978 12.9936 15.1929 11.6062 18.0879 9.8986C22.1833 7.47953 26.667 4.09996 27.6203 1.89434L30.6565 7.30166C31.1155 8.19102 27.7968 11.784 21.3006 15.6261ZM17.6995 9.29383C14.8398 11.0014 12.0154 12.3177 9.72058 13.0647C7.28452 13.8474 6.19007 13.7406 5.97824 13.3849C5.76641 13.0292 6.22537 11.9975 8.13185 10.2543C9.8971 8.61792 12.4391 6.76804 15.3341 5.06047C18.1938 3.38847 21.0182 2.03664 23.313 1.28957C24.5134 0.898255 25.502 0.684809 26.1727 0.684809C26.6317 0.684809 26.9495 0.791532 27.0554 0.969405C27.5496 1.85877 24.231 5.45179 17.6995 9.29383Z" fill="white"/>
</svg>
