<svg width="54" height="54" viewBox="0 0 54 54" fill="none" xmlns="http://www.w3.org/2000/svg">
<circle cx="27" cy="27" r="26.5" stroke="white"/>
<path d="M24.0897 20.2376C23.2837 19.8348 22.4778 20.2376 22.4778 21.0434V31.1157C22.4778 31.9215 23.4852 32.5258 24.0897 32.1229L32.5526 27.0868C33.1571 26.6839 33.1571 25.6767 32.5526 25.2738L24.0897 20.2376Z" stroke="white" stroke-miterlimit="10"/>
<path d="M41.4186 33.1301C41.0156 34.9431 39.8066 36.3532 37.9932 36.5547C31.5453 37.5619 22.4779 37.5619 16.03 36.5547C14.2165 36.3532 13.0075 34.9431 12.6045 33.1301C11.7985 28.2954 11.7985 24.0651 12.6045 19.2304C13.0075 17.4173 14.2165 16.0072 16.03 15.8058C19.2539 15.2014 23.0824 15 26.9108 15C30.7393 15 34.5677 15.2014 37.7917 15.8058C39.6051 16.0072 40.8141 17.4173 41.2171 19.2304C42.2246 24.0651 42.2246 28.094 41.4186 33.1301Z" stroke="white" stroke-miterlimit="10"/>
</svg>
