<svg width="36" height="36" viewBox="0 0 36 36" fill="none" xmlns="http://www.w3.org/2000/svg">
<circle cx="18" cy="18" r="17.5" stroke="white"/>
<path d="M16.4783 13.5392C15.9338 13.2669 15.3894 13.5392 15.3894 14.0836V20.8895C15.3894 21.434 16.0699 21.8423 16.4783 21.5701L22.1952 18.1672C22.6036 17.8949 22.6036 17.2143 22.1952 16.9421L16.4783 13.5392Z" stroke="white" stroke-miterlimit="10"/>
<path d="M28.1845 22.2506C27.9122 23.4756 27.0955 24.4284 25.8705 24.5646C21.5147 25.2451 15.3894 25.2451 11.0337 24.5646C9.80862 24.4284 8.99191 23.4756 8.71968 22.2506C8.17521 18.9837 8.17521 16.1253 8.71968 12.8585C8.99191 11.6334 9.80862 10.6806 11.0337 10.5445C13.2116 10.1361 15.7978 10 18.384 10C20.9702 10 23.5565 10.1361 25.7343 10.5445C26.9594 10.6806 27.7761 11.6334 28.0483 12.8585C28.7289 16.1253 28.7289 18.8476 28.1845 22.2506Z" stroke="white" stroke-miterlimit="10"/>
</svg>
